<svg width="72" height="72" viewBox="0 0 72 72" fill="none" xmlns="http://www.w3.org/2000/svg">
<path d="M34.0078 3.98458C35.2784 3.10428 36.7644 2.40461 38.854 2.13458C38.4908 2.62878 38.2735 3.15136 38.2055 3.70335C38.0414 5.03359 38.8023 6.10424 39.4592 6.77301L39.6456 6.96287L39.9018 7.03494C46.0271 8.75807 47.5123 14.3603 47.3087 16.9395C47.2001 18.2908 47.0084 19.8548 46.8423 21.0891C46.7595 21.7047 46.6835 22.2348 46.6283 22.6108C46.6007 22.7987 46.5783 22.948 46.5629 23.0501L46.5451 23.1666L46.5406 23.1962L46.5394 23.2035L46.5392 23.2053L46.5391 23.2057L46.5391 23.2057L46.4305 23.9045L47.0151 24.2193C47.0195 24.2228 47.0252 24.2277 47.0321 24.2338C47.0696 24.2677 47.1462 24.3455 47.2325 24.4858C47.3994 24.757 47.6363 25.3167 47.6411 26.3481C47.4471 29.2837 46.8729 29.7392 46.6482 29.9003C46.5631 29.9613 46.481 30.0078 46.3507 30.0816C46.3303 30.0932 46.3087 30.1054 46.2857 30.1185C46.1344 30.2045 45.9171 30.3304 45.7071 30.5143C45.2308 30.9314 44.9429 31.5052 44.8115 32.3356L44.8115 32.3358C44.33 35.384 43.5692 36.555 42.9625 37.3844C42.9105 37.4555 42.8556 37.5289 42.7989 37.6046C42.5228 37.9738 42.2043 38.3995 41.9697 38.8944C41.6648 39.5374 41.5004 40.2734 41.5004 41.2674C41.5004 44.3346 42.1363 46.7323 43.8753 48.7832C45.5705 50.7824 48.2289 52.3456 52.0083 53.9746L52.0089 53.9748C55.7708 55.5937 59.4857 57.3809 62.2549 59.599C65.0115 61.8071 66.706 64.3375 66.706 67.4513V69.9858H5.0564V67.4513C5.0564 64.3336 6.75137 61.8013 9.50681 59.5936C12.2749 57.3757 15.9879 55.5902 19.746 53.975L19.747 53.9746C23.5263 52.3456 26.1863 50.7826 27.8832 48.7836C29.6241 46.7329 30.2621 44.3352 30.2621 41.2674C30.2621 40.2715 30.0971 39.5341 29.7917 38.8902C29.5563 38.3941 29.2371 37.9678 28.9603 37.5983C28.9037 37.5227 28.8489 37.4495 28.7969 37.3785C28.1896 36.5493 27.429 35.3806 26.9511 32.3367L26.9509 32.3356C26.8196 31.5052 26.5317 30.9315 26.0557 30.5145C25.8457 30.3306 25.6285 30.2047 25.4774 30.1187C25.4547 30.1057 25.4333 30.0936 25.4131 30.0821C25.2826 30.0082 25.2007 29.9617 25.1157 29.9007C24.8922 29.7402 24.3191 29.2854 24.1285 26.3487C24.1331 25.3157 24.3689 24.755 24.535 24.4834C24.6209 24.3429 24.6968 24.2653 24.7339 24.2317C24.7404 24.2258 24.7458 24.2211 24.7501 24.2176L25.3316 23.9025L25.2233 23.2057L25.2233 23.2057L25.2233 23.2053L25.223 23.2035L25.2219 23.1962L25.2173 23.1665L25.1995 23.0499C25.1841 22.9479 25.1616 22.7985 25.134 22.6105C25.0786 22.2344 25.0024 21.7042 24.9191 21.0884C24.7523 19.8546 24.5588 18.291 24.4466 16.9393C24.2968 14.9491 25.1713 11.0868 28.4254 8.6638C29.5034 7.88433 30.4291 7.03977 31.2914 6.25315L31.3592 6.19125C32.2552 5.37407 33.0816 4.62625 34.0078 3.98458Z" stroke="#F3F3F3" stroke-width="2"/>
</svg>
