<svg width="72" height="72" viewBox="0 0 72 72" fill="none" xmlns="http://www.w3.org/2000/svg">
<mask id="path-1-outside-1_701_1913" maskUnits="userSpaceOnUse" x="25.1306" y="39.855" width="20" height="20" fill="black">
<rect fill="white" x="25.1306" y="39.855" width="20" height="20"/>
<path fill-rule="evenodd" clip-rule="evenodd" d="M36.7226 41.855H32.6839V47.4085H27.1306V51.4471H32.6839V56.9999H36.7226V51.4471H42.2755V47.4085H36.7226V41.855Z"/>
</mask>
<path d="M32.6839 41.855V39.855H30.6839V41.855H32.6839ZM36.7226 41.855H38.7226V39.855H36.7226V41.855ZM32.6839 47.4085V49.4085H34.6839V47.4085H32.6839ZM27.1306 47.4085V45.4085H25.1306V47.4085H27.1306ZM27.1306 51.4471H25.1306V53.4471H27.1306V51.4471ZM32.6839 51.4471H34.6839V49.4471H32.6839V51.4471ZM32.6839 56.9999H30.6839V58.9999H32.6839V56.9999ZM36.7226 56.9999V58.9999H38.7226V56.9999H36.7226ZM36.7226 51.4471V49.4471H34.7226V51.4471H36.7226ZM42.2755 51.4471V53.4471H44.2755V51.4471H42.2755ZM42.2755 47.4085H44.2755V45.4085H42.2755V47.4085ZM36.7226 47.4085H34.7226V49.4085H36.7226V47.4085ZM32.6839 43.855H36.7226V39.855H32.6839V43.855ZM34.6839 47.4085V41.855H30.6839V47.4085H34.6839ZM27.1306 49.4085H32.6839V45.4085H27.1306V49.4085ZM29.1306 51.4471V47.4085H25.1306V51.4471H29.1306ZM32.6839 49.4471H27.1306V53.4471H32.6839V49.4471ZM34.6839 56.9999V51.4471H30.6839V56.9999H34.6839ZM36.7226 54.9999H32.6839V58.9999H36.7226V54.9999ZM34.7226 51.4471V56.9999H38.7226V51.4471H34.7226ZM42.2755 49.4471H36.7226V53.4471H42.2755V49.4471ZM40.2755 47.4085V51.4471H44.2755V47.4085H40.2755ZM36.7226 49.4085H42.2755V45.4085H36.7226V49.4085ZM34.7226 41.855V47.4085H38.7226V41.855H34.7226Z" fill="#F3F3F3" mask="url(#path-1-outside-1_701_1913)"/>
<rect x="9" y="5.39111" width="53" height="64.1594" rx="5" stroke="#F3F3F3" stroke-width="2"/>
<path d="M17.9639 15.5508H53.0363M17.9639 23.9203H53.0363M17.9639 33.087H53.0363" stroke="#F3F3F3" stroke-width="2"/>
<path d="M21.551 5.26087V5.26087C21.551 3.45994 23.011 2 24.8119 2H46.2612C48.4623 2 50.2467 3.78437 50.2467 5.98551V5.98551" stroke="#F3F3F3" stroke-width="2"/>
</svg>
