<svg width="72" height="72" viewBox="0 0 72 72" fill="none" xmlns="http://www.w3.org/2000/svg">
<path d="M43.7823 1.7292L43.8292 1.27772L43.8356 1.28111L43.8478 1.28713C43.9924 1.35845 44.0528 1.39428 44.0745 1.40803C44.0889 1.44076 44.1235 1.53697 44.1563 1.75687C44.2668 2.49828 44.2735 3.92189 44.2735 6.97964L44.2735 8.34601C43.8975 7.95569 43.4794 7.61001 43.0406 7.35385C42.5273 7.05215 41.9483 6.83266 41.3522 6.69092C42.047 6.09461 42.6397 5.34881 43.0774 4.46223C43.5199 3.59235 43.6497 2.962 43.7819 1.73278L43.7823 1.7292ZM44.0676 1.39409C44.0676 1.39409 44.0679 1.39458 44.0684 1.39558L44.0676 1.39409ZM38.1951 11.6856C39.2369 10.4387 41.171 10.8062 41.6778 12.2084L41.6777 12.2084L41.6807 12.2164L41.8633 12.7085L42.1053 13.3605L42.8008 13.3605L43.9807 13.3605L44.2735 13.3605L45.1752 13.3605L45.2735 13.3605L46.3601 13.3605L46.4255 13.3605C46.884 13.3605 47.1264 13.3758 47.2818 13.4024C47.4002 13.4227 47.4557 13.447 47.5305 13.4929C47.668 13.578 47.7105 13.6242 47.7286 13.6476C47.7427 13.666 47.7784 13.7166 47.8142 13.8677C47.9004 14.2314 47.9269 14.8733 47.8984 16.2028L47.8983 16.2054C47.8767 17.3526 47.862 17.8443 47.8229 18.1078C47.819 18.1347 47.8153 18.1545 47.8124 18.1684C47.8031 18.1791 47.7899 18.1938 47.7717 18.2137C47.5507 18.4503 47.4244 18.5245 47.2991 18.5688C47.138 18.6256 46.8794 18.6663 46.3272 18.6663L45.2735 18.6663L44.2735 18.6663L44.2735 19.6663L44.2735 21.0713L44.2735 22.4763L44.2735 23.0942L44.826 23.3706L45.9754 23.9457C45.9758 23.9459 45.9761 23.946 45.9764 23.9462C51.1668 26.5622 54.8284 30.407 56.7213 35.1531C57.7022 37.6314 58.1862 41.0406 57.934 43.7376C57.8176 44.9685 56.9455 51.0419 56.0631 56.9479C55.6233 59.8907 55.1834 62.7764 54.8378 64.9719C54.6649 66.0701 54.516 66.9928 54.4027 67.6628C54.346 67.9984 54.2989 68.2664 54.2626 68.4597C54.2407 68.5767 54.2262 68.6463 54.2187 68.6818C54.2114 68.7171 54.211 68.719 54.2172 68.7006L54.2168 68.7018C54.1257 68.9713 53.8735 69.3735 53.4843 69.7891C53.1027 70.1966 52.6701 70.5304 52.3065 70.7096C52.3064 70.7097 52.3062 70.7098 52.306 70.7099L51.715 71L35.5097 71L19.3044 71L18.712 70.7093L18.709 70.7078C18.3418 70.5291 17.9072 70.1936 17.5257 69.7849C17.1361 69.3674 16.8899 68.968 16.8054 68.7105L16.8055 68.7105L16.8012 68.6979C16.8048 68.7083 16.8024 68.6968 16.7939 68.6562C16.7818 68.5978 16.7571 68.4793 16.7197 68.2793C16.6651 67.9871 16.5952 67.5911 16.5152 67.123C16.3554 66.1879 16.1576 64.9788 15.9649 63.7667C15.7721 62.5547 15.5849 61.3428 15.446 60.4022C15.4118 60.1705 15.3806 59.956 15.3531 59.7625C16.0422 59.7526 17.0304 59.7432 18.2476 59.7345C20.7216 59.7169 24.1338 59.7028 27.8838 59.6959L27.885 59.6959L41.5551 59.6541L42.548 59.651L42.552 58.6581L42.5938 48.2893L42.5938 48.288L42.6217 37.9332L42.6244 36.9305L41.6217 36.9305L27.0805 36.9305L13.7313 36.9305C13.8255 36.6246 13.9448 36.2651 14.0767 35.8882C14.4036 34.9544 14.7829 33.9865 15.0216 33.5013C16.9776 29.6318 20.5303 26.2082 25.0421 23.9459L26.1933 23.3699L26.7459 23.0934L26.7459 22.4756L26.7459 21.0706L26.7459 19.6656L26.7459 18.6656L25.7459 18.6656L24.6914 18.6656C24.1393 18.6656 23.8806 18.6249 23.7195 18.568C23.5941 18.5238 23.4677 18.4494 23.2464 18.2123C23.2282 18.1927 23.2151 18.1779 23.2058 18.1674C23.2029 18.1535 23.1993 18.1338 23.1953 18.1071C23.1563 17.8434 23.1415 17.3518 23.1196 16.2044L23.1195 16.2018C23.0906 14.8728 23.1171 14.2311 23.2034 13.8677C23.2392 13.7167 23.2749 13.6659 23.2893 13.6473C23.3076 13.6235 23.3505 13.5769 23.4889 13.4912C23.5634 13.4454 23.6187 13.4214 23.7352 13.4013C23.8884 13.3749 24.1269 13.3598 24.5785 13.3598L25.6068 13.3598L25.7444 13.3598L26.7444 13.3598L29.1865 13.3598L30.9149 13.3598L32.6293 13.3598L33.0778 13.3598L33.2884 13.3598L34.3151 13.3598L35.5654 13.3598L36.8157 13.3598L37.5964 13.3598L37.7858 12.6023L37.8841 12.2093L37.8915 12.1798L37.8917 12.1783C37.8933 12.1743 37.8954 12.1693 37.898 12.1631C37.9123 12.1297 37.9358 12.0819 37.9691 12.0228C38.0354 11.9053 38.1191 11.7812 38.1951 11.6856ZM35.3205 8.28016C34.7802 8.80085 34.343 9.41059 34.0037 10.1094C33.979 9.71481 33.919 9.31697 33.8167 8.95522L33.8168 8.9552L33.8131 8.94256C33.6473 8.38423 33.3147 7.8146 32.9347 7.32558C33.6772 7.80184 34.4875 8.11756 35.3205 8.28016ZM29.6626 1.1485C29.6626 3.03248 30.1862 4.52688 31.3143 5.88069C31.2865 5.86554 31.2586 5.85084 31.2307 5.8366C29.7752 5.08706 28.2141 5.07441 26.7451 5.71743L26.7451 4.52091C26.7451 3.22963 26.7527 2.52639 26.7845 2.0933C26.8123 1.71614 26.8522 1.6431 26.8764 1.59868C26.8778 1.59625 26.879 1.59391 26.8803 1.59162L26.883 1.58654C27.0029 1.35869 27.0632 1.32259 27.2001 1.27659C27.458 1.18993 27.9299 1.13729 28.9342 1.13729L29.6626 1.13729L29.6626 1.1485ZM29.5197 10.8172C29.3921 11.0079 29.2373 11.1571 29.1259 11.2272C29.1248 11.2279 29.1237 11.2286 29.1226 11.2293L28.8216 11.4116L28.8001 11.4006L28.1681 11.0773C28.1681 11.0773 28.168 11.0772 28.168 11.0772C27.8147 10.8965 27.4278 10.7588 27.0237 10.7297L27.4567 10.425C27.4568 10.4249 27.457 10.4248 27.4571 10.4247C28.1137 9.96427 28.5081 9.78143 28.7622 9.72692C28.9396 9.68887 29.0585 9.7062 29.2498 9.82923L29.2575 9.83418L29.2653 9.83898C29.3182 9.87164 29.4292 9.97582 29.5299 10.1582C29.6207 10.3226 29.6552 10.4638 29.661 10.5398C29.6584 10.549 29.6537 10.5639 29.6455 10.5848C29.6219 10.6453 29.5806 10.7262 29.5197 10.8172Z" stroke="#F3F3F3" stroke-width="2"/>
<path d="M39.3552 1.14854L39.3552 1.23392C39.3384 2.20148 39.0344 2.83779 38.5035 3.30367C38.1882 3.57801 37.9401 3.72701 37.6945 3.81767C37.4463 3.9093 37.1411 3.96327 36.6821 3.96972C36.3296 3.9695 36.1697 3.95142 36.0462 3.92052C35.9253 3.89028 35.7834 3.83379 35.4886 3.67392C34.6276 3.18298 34.1054 2.35505 34.0543 1.13733L36.7027 1.13733L39.3552 1.13733L39.3552 1.14854Z" stroke="#F3F3F3" stroke-width="2"/>
<path d="M38.0241 41.3775C38.0785 41.3784 38.1308 41.3794 38.1811 41.3803C38.1898 41.7539 38.1977 42.2324 38.2045 42.7961C38.222 44.231 38.2324 46.2007 38.2324 48.3547L38.2324 55.1943L26.5179 55.1943C23.0212 55.1943 19.8456 55.1839 17.5453 55.1647C16.3945 55.1551 15.4663 55.1433 14.8275 55.1296C14.7764 55.1285 14.7274 55.1274 14.6805 55.1263C14.6435 54.8679 14.5987 54.5555 14.5473 54.1991C14.5015 53.881 14.4506 53.5277 14.3956 53.1461C14.2691 52.2692 14.1211 51.243 13.9645 50.1515L13.9641 50.1486C13.0268 43.751 12.9172 42.5278 13.0409 41.3498L13.0442 41.3185L25.5902 41.3185C29.2907 41.3185 32.6636 41.329 35.1156 41.3465C36.3422 41.3552 37.3358 41.3657 38.0241 41.3775ZM13.9602 55.0991C13.9602 55.0991 13.9616 55.0992 13.9641 55.0995L13.9602 55.0991ZM14.7965 55.963C14.8009 56.0011 14.8033 56.0408 14.8033 56.0821C14.8033 56.0353 14.7997 55.9964 14.7993 55.9915L14.7993 55.991C14.7983 55.9798 14.7973 55.9699 14.7965 55.963Z" stroke="#F3F3F3" stroke-width="2"/>
</svg>
