<svg width="72" height="72" viewBox="0 0 72 72" fill="none" xmlns="http://www.w3.org/2000/svg">
<g clip-path="url(#clip0_701_1917)">
<mask id="path-1-inside-1_701_1917" fill="white">
<path d="M8.03084 2.54216C8.28371 2.76383 8.51035 2.87846 8.59943 3.06391C9.8888 5.76102 11.551 8.19877 13.4864 10.4517C13.9133 10.9471 14.45 11.3567 14.9853 11.7338C15.8388 12.3407 16.7787 12.8194 17.6011 13.4601C19.0607 14.5816 20.4433 15.7984 21.8827 16.9533C24.823 19.3091 27.3176 22.1167 29.6549 25.0391C30.9636 26.6755 32.0168 28.5338 33.1372 30.3188C34.7693 32.9363 35.845 35.8211 36.7503 38.7672C37.2165 40.3046 37.4541 41.9329 37.6425 43.5472C37.8116 44.9675 37.8306 46.416 37.8059 47.8555C37.7923 48.797 37.6003 49.7408 37.4459 50.6775C37.3649 51.1839 37.0284 51.2795 36.6272 51.0047C35.5185 50.2466 34.3793 49.5331 33.3372 48.691C32.3459 47.8954 31.4363 46.9882 30.5426 46.0748C29.6775 45.1981 28.8224 44.2993 28.0616 43.3316C26.8087 41.736 25.5446 40.1302 24.4387 38.431C23.0322 36.2797 21.7623 34.036 20.4718 31.8148C19.9991 31.0078 19.6367 30.1256 19.1851 29.3069C19.1026 29.1482 18.8459 29.0889 18.6685 28.9884C18.6281 29.1794 18.5026 29.4065 18.558 29.5609C19.0759 30.9176 19.599 32.2687 20.1752 33.5959C21.3102 36.2239 22.6775 38.723 24.3088 41.0702C25.1042 42.2149 25.8476 43.4051 26.6533 44.5385C27.1772 45.2785 27.78 45.9664 28.3776 46.6599C29.2374 47.6667 30.1132 48.6673 30.9937 49.6515C31.505 50.2244 32.0732 50.7354 32.5582 51.3256C32.758 51.5712 32.8169 51.9364 32.9435 52.2392C33.0218 52.4251 33.0747 52.6499 33.2047 52.7795C35.2275 54.8016 35.895 57.374 36.0692 60.1677C36.085 60.4104 36.1975 60.7625 36.357 60.8259C36.5438 60.8936 36.878 60.7441 37.0771 60.5949C37.9951 59.9336 38.9125 59.2614 39.7958 58.5475C40.0465 58.3421 40.2429 58.0038 40.3538 57.6908C40.5042 57.2895 40.5828 56.8535 40.6238 56.4246C40.6432 56.2453 40.5349 55.9904 40.3894 55.8777C39.7561 55.3587 39.7726 55.1146 40.5308 54.763C40.9393 54.5778 41.3716 54.4457 41.7744 54.2553C42.0021 54.1428 42.1942 53.9561 42.482 53.7328C41.7923 53.2866 41.1947 53.4745 40.6079 53.5375C40.3549 53.5646 39.9217 53.5508 39.8791 53.4391C39.7867 53.1781 39.7977 52.8045 39.9161 52.5398C40.153 52.0105 40.5109 51.5301 40.7805 51.0101C41.8071 48.976 43.2302 47.2331 44.816 45.6291C46.438 43.9858 48.1501 42.4251 49.8565 40.8593C50.4862 40.286 51.2243 39.8433 51.8657 39.2912C52.069 39.1148 52.1354 38.7713 52.2646 38.5062C51.9693 38.5567 51.5939 38.5026 51.3793 38.6686C49.5049 40.1011 47.5568 41.4556 45.8194 43.0552C43.957 44.7684 42.288 46.7003 40.5729 48.5694C40.1338 49.0479 39.8355 49.6556 39.4527 50.1857C39.3606 50.3087 39.1621 50.3442 39.0142 50.4263C38.9739 50.2442 38.8459 50.0334 38.8995 49.8959C39.8271 47.6983 40.6604 45.4454 41.7593 43.3324C42.7783 41.3743 44.1413 39.6177 45.6206 37.9264C47.4043 35.8922 49.2846 33.9674 51.5077 32.4713C53.7938 30.9292 56.1925 29.4904 58.8274 28.6417C61.1211 27.9051 63.4574 27.2801 65.8119 26.8275C67.9196 26.4178 70.0669 26.3039 72.2031 26.0553C72.2495 26.129 72.2903 26.1976 72.3368 26.2713C72.2146 26.4496 72.1319 26.6641 71.976 26.8113C70.3208 28.3101 68.6543 29.7985 66.999 31.2973C66.9159 31.3766 66.8558 31.4873 66.8008 31.5924C66.0782 33.0241 65.3664 34.4552 64.6325 35.8765C64.4925 36.1421 64.2639 36.3575 64.0962 36.608C63.2418 37.8669 62.4319 39.1562 61.533 40.3846C60.8378 41.3229 60.0756 42.2101 59.274 43.0611C58.0483 44.363 56.8114 45.6545 55.4951 46.8629C53.3201 48.849 50.9086 50.4938 48.212 51.6696C47.5059 51.9757 46.7525 52.1866 46.0521 52.4979C45.792 52.6118 45.5989 52.9013 45.3811 53.1161C45.6072 53.22 45.8263 53.4107 46.0596 53.4277C47.952 53.5464 49.7597 53.9609 51.4302 54.83C51.7122 54.9747 51.9435 55.1973 52.2001 55.381C53.0822 56.0244 53.9037 56.7679 54.8557 57.2785C55.5976 57.6793 56.4954 57.8083 57.3218 58.0378C57.4861 58.0848 57.7086 57.9779 57.8682 58.0414C58.0385 58.1043 58.1703 58.2771 58.3214 58.395C58.2082 58.5297 58.1194 58.7282 57.9762 58.7938C56.5349 59.483 55.0941 60.183 53.6233 60.814C51.2023 61.859 48.7975 61.3945 46.3481 61.0239C44.7642 60.7837 43.5353 59.9983 42.3028 59.1266C41.7341 58.7292 41.2249 58.7078 40.6032 59.2158C39.4176 60.1915 38.1461 61.0573 36.9258 61.9804C36.6849 62.1638 36.4787 62.3997 36.2998 62.64C35.3581 63.8809 34.4384 65.1318 33.4968 66.3728C33.415 66.4844 33.307 66.6134 33.1845 66.6566C32.8225 66.7911 32.4428 66.8885 32.0743 66.9963C32.0378 66.6517 31.9362 66.2992 31.9814 65.9674C32.0813 65.2709 32.3548 64.5886 32.3791 63.8954C32.433 62.1302 32.4165 60.3625 32.3897 58.6062C32.3625 56.839 32.2976 55.0789 32.238 53.3132C32.2357 53.1348 32.1148 52.8372 32.0003 52.8151C31.7553 52.7769 31.4375 52.8068 31.2431 52.9395C30.5018 53.431 29.7843 53.9756 29.0608 54.5042C27.2052 55.871 25.0809 56.649 22.9623 57.4322C22.1478 57.7322 21.2959 57.9148 20.4753 58.1988C20.2781 58.2668 20.1437 58.5375 19.9836 58.7121C20.1821 58.8009 20.396 58.9972 20.5674 58.9574C21.2536 58.8197 21.9502 58.6708 22.6046 58.421C24.8444 57.5623 27.0776 56.6768 29.2878 55.7598C29.8244 55.5367 30.2888 55.1436 30.8066 54.8618C30.9282 54.7971 31.1323 54.8911 31.3008 54.9109C31.2538 55.0751 31.2635 55.3018 31.1541 55.3984C29.7689 56.6368 28.4413 57.9593 26.9581 59.0559C25.0814 60.4344 23.0949 61.65 20.9162 62.5439C18.2219 63.6493 15.4379 64.1745 12.5959 64.3561C11.2962 64.439 9.98395 64.2304 8.68955 64.0589C7.30269 63.8751 5.9196 63.6534 4.56897 63.3058C3.25681 62.9728 1.99121 62.4648 0.711507 62.0061C0.502682 61.9285 0.342266 61.7191 0.157415 61.5702C0.37246 61.415 0.568295 61.1903 0.803013 61.1153C1.84891 60.7892 2.90746 60.5057 3.96507 60.2007C5.33768 59.801 6.33839 58.8009 7.47746 58.0003C9.23067 56.7677 11.0003 55.5398 12.8346 54.4335C15.423 52.8784 18.2171 51.8337 21.1467 51.1724C24.5317 50.4105 27.8412 50.2845 30.9578 51.9622C31.0409 52.0073 31.1305 52.0791 31.2112 52.0703C31.4046 52.0403 31.591 51.9728 31.7834 51.9213C31.6892 51.7415 31.6508 51.4781 31.5068 51.3978C30.0329 50.5743 28.4929 49.8455 27.0543 48.961C25.71 48.1319 24.4099 47.1982 23.1675 46.2241C21.813 45.1575 20.4937 44.0299 19.2421 42.8399C16.9926 40.7032 15.1235 38.231 13.4905 35.592C11.8228 32.9003 10.5251 30.0088 9.53022 26.9908C8.43033 23.6691 7.77496 20.2471 7.47777 16.7287C7.26669 13.704 7.27807 10.6969 7.45702 7.68791C7.55877 6.02878 7.82292 4.37349 8.03084 2.54216Z"/>
</mask>
<path d="M8.03084 2.54216C8.28371 2.76383 8.51035 2.87846 8.59943 3.06391C9.8888 5.76102 11.551 8.19877 13.4864 10.4517C13.9133 10.9471 14.45 11.3567 14.9853 11.7338C15.8388 12.3407 16.7787 12.8194 17.6011 13.4601C19.0607 14.5816 20.4433 15.7984 21.8827 16.9533C24.823 19.3091 27.3176 22.1167 29.6549 25.0391C30.9636 26.6755 32.0168 28.5338 33.1372 30.3188C34.7693 32.9363 35.845 35.8211 36.7503 38.7672C37.2165 40.3046 37.4541 41.9329 37.6425 43.5472C37.8116 44.9675 37.8306 46.416 37.8059 47.8555C37.7923 48.797 37.6003 49.7408 37.4459 50.6775C37.3649 51.1839 37.0284 51.2795 36.6272 51.0047C35.5185 50.2466 34.3793 49.5331 33.3372 48.691C32.3459 47.8954 31.4363 46.9882 30.5426 46.0748C29.6775 45.1981 28.8224 44.2993 28.0616 43.3316C26.8087 41.736 25.5446 40.1302 24.4387 38.431C23.0322 36.2797 21.7623 34.036 20.4718 31.8148C19.9991 31.0078 19.6367 30.1256 19.1851 29.3069C19.1026 29.1482 18.8459 29.0889 18.6685 28.9884C18.6281 29.1794 18.5026 29.4065 18.558 29.5609C19.0759 30.9176 19.599 32.2687 20.1752 33.5959C21.3102 36.2239 22.6775 38.723 24.3088 41.0702C25.1042 42.2149 25.8476 43.4051 26.6533 44.5385C27.1772 45.2785 27.78 45.9664 28.3776 46.6599C29.2374 47.6667 30.1132 48.6673 30.9937 49.6515C31.505 50.2244 32.0732 50.7354 32.5582 51.3256C32.758 51.5712 32.8169 51.9364 32.9435 52.2392C33.0218 52.4251 33.0747 52.6499 33.2047 52.7795C35.2275 54.8016 35.895 57.374 36.0692 60.1677C36.085 60.4104 36.1975 60.7625 36.357 60.8259C36.5438 60.8936 36.878 60.7441 37.0771 60.5949C37.9951 59.9336 38.9125 59.2614 39.7958 58.5475C40.0465 58.3421 40.2429 58.0038 40.3538 57.6908C40.5042 57.2895 40.5828 56.8535 40.6238 56.4246C40.6432 56.2453 40.5349 55.9904 40.3894 55.8777C39.7561 55.3587 39.7726 55.1146 40.5308 54.763C40.9393 54.5778 41.3716 54.4457 41.7744 54.2553C42.0021 54.1428 42.1942 53.9561 42.482 53.7328C41.7923 53.2866 41.1947 53.4745 40.6079 53.5375C40.3549 53.5646 39.9217 53.5508 39.8791 53.4391C39.7867 53.1781 39.7977 52.8045 39.9161 52.5398C40.153 52.0105 40.5109 51.5301 40.7805 51.0101C41.8071 48.976 43.2302 47.2331 44.816 45.6291C46.438 43.9858 48.1501 42.4251 49.8565 40.8593C50.4862 40.286 51.2243 39.8433 51.8657 39.2912C52.069 39.1148 52.1354 38.7713 52.2646 38.5062C51.9693 38.5567 51.5939 38.5026 51.3793 38.6686C49.5049 40.1011 47.5568 41.4556 45.8194 43.0552C43.957 44.7684 42.288 46.7003 40.5729 48.5694C40.1338 49.0479 39.8355 49.6556 39.4527 50.1857C39.3606 50.3087 39.1621 50.3442 39.0142 50.4263C38.9739 50.2442 38.8459 50.0334 38.8995 49.8959C39.8271 47.6983 40.6604 45.4454 41.7593 43.3324C42.7783 41.3743 44.1413 39.6177 45.6206 37.9264C47.4043 35.8922 49.2846 33.9674 51.5077 32.4713C53.7938 30.9292 56.1925 29.4904 58.8274 28.6417C61.1211 27.9051 63.4574 27.2801 65.8119 26.8275C67.9196 26.4178 70.0669 26.3039 72.2031 26.0553C72.2495 26.129 72.2903 26.1976 72.3368 26.2713C72.2146 26.4496 72.1319 26.6641 71.976 26.8113C70.3208 28.3101 68.6543 29.7985 66.999 31.2973C66.9159 31.3766 66.8558 31.4873 66.8008 31.5924C66.0782 33.0241 65.3664 34.4552 64.6325 35.8765C64.4925 36.1421 64.2639 36.3575 64.0962 36.608C63.2418 37.8669 62.4319 39.1562 61.533 40.3846C60.8378 41.3229 60.0756 42.2101 59.274 43.0611C58.0483 44.363 56.8114 45.6545 55.4951 46.8629C53.3201 48.849 50.9086 50.4938 48.212 51.6696C47.5059 51.9757 46.7525 52.1866 46.0521 52.4979C45.792 52.6118 45.5989 52.9013 45.3811 53.1161C45.6072 53.22 45.8263 53.4107 46.0596 53.4277C47.952 53.5464 49.7597 53.9609 51.4302 54.83C51.7122 54.9747 51.9435 55.1973 52.2001 55.381C53.0822 56.0244 53.9037 56.7679 54.8557 57.2785C55.5976 57.6793 56.4954 57.8083 57.3218 58.0378C57.4861 58.0848 57.7086 57.9779 57.8682 58.0414C58.0385 58.1043 58.1703 58.2771 58.3214 58.395C58.2082 58.5297 58.1194 58.7282 57.9762 58.7938C56.5349 59.483 55.0941 60.183 53.6233 60.814C51.2023 61.859 48.7975 61.3945 46.3481 61.0239C44.7642 60.7837 43.5353 59.9983 42.3028 59.1266C41.7341 58.7292 41.2249 58.7078 40.6032 59.2158C39.4176 60.1915 38.1461 61.0573 36.9258 61.9804C36.6849 62.1638 36.4787 62.3997 36.2998 62.64C35.3581 63.8809 34.4384 65.1318 33.4968 66.3728C33.415 66.4844 33.307 66.6134 33.1845 66.6566C32.8225 66.7911 32.4428 66.8885 32.0743 66.9963C32.0378 66.6517 31.9362 66.2992 31.9814 65.9674C32.0813 65.2709 32.3548 64.5886 32.3791 63.8954C32.433 62.1302 32.4165 60.3625 32.3897 58.6062C32.3625 56.839 32.2976 55.0789 32.238 53.3132C32.2357 53.1348 32.1148 52.8372 32.0003 52.8151C31.7553 52.7769 31.4375 52.8068 31.2431 52.9395C30.5018 53.431 29.7843 53.9756 29.0608 54.5042C27.2052 55.871 25.0809 56.649 22.9623 57.4322C22.1478 57.7322 21.2959 57.9148 20.4753 58.1988C20.2781 58.2668 20.1437 58.5375 19.9836 58.7121C20.1821 58.8009 20.396 58.9972 20.5674 58.9574C21.2536 58.8197 21.9502 58.6708 22.6046 58.421C24.8444 57.5623 27.0776 56.6768 29.2878 55.7598C29.8244 55.5367 30.2888 55.1436 30.8066 54.8618C30.9282 54.7971 31.1323 54.8911 31.3008 54.9109C31.2538 55.0751 31.2635 55.3018 31.1541 55.3984C29.7689 56.6368 28.4413 57.9593 26.9581 59.0559C25.0814 60.4344 23.0949 61.65 20.9162 62.5439C18.2219 63.6493 15.4379 64.1745 12.5959 64.3561C11.2962 64.439 9.98395 64.2304 8.68955 64.0589C7.30269 63.8751 5.9196 63.6534 4.56897 63.3058C3.25681 62.9728 1.99121 62.4648 0.711507 62.0061C0.502682 61.9285 0.342266 61.7191 0.157415 61.5702C0.37246 61.415 0.568295 61.1903 0.803013 61.1153C1.84891 60.7892 2.90746 60.5057 3.96507 60.2007C5.33768 59.801 6.33839 58.8009 7.47746 58.0003C9.23067 56.7677 11.0003 55.5398 12.8346 54.4335C15.423 52.8784 18.2171 51.8337 21.1467 51.1724C24.5317 50.4105 27.8412 50.2845 30.9578 51.9622C31.0409 52.0073 31.1305 52.0791 31.2112 52.0703C31.4046 52.0403 31.591 51.9728 31.7834 51.9213C31.6892 51.7415 31.6508 51.4781 31.5068 51.3978C30.0329 50.5743 28.4929 49.8455 27.0543 48.961C25.71 48.1319 24.4099 47.1982 23.1675 46.2241C21.813 45.1575 20.4937 44.0299 19.2421 42.8399C16.9926 40.7032 15.1235 38.231 13.4905 35.592C11.8228 32.9003 10.5251 30.0088 9.53022 26.9908C8.43033 23.6691 7.77496 20.2471 7.47777 16.7287C7.26669 13.704 7.27807 10.6969 7.45702 7.68791C7.55877 6.02878 7.82292 4.37349 8.03084 2.54216Z" stroke="#F3F3F3" stroke-width="4" mask="url(#path-1-inside-1_701_1917)"/>
</g>
<defs>
<clipPath id="clip0_701_1917">
<rect width="72" height="72" fill="white"/>
</clipPath>
</defs>
</svg>
