<svg width="72" height="72" viewBox="0 0 72 72" fill="none" xmlns="http://www.w3.org/2000/svg">
<path d="M2 12.4623C5.17536 12.5691 11.7801 16.3706 12.7962 30.7223C13.8123 45.0741 25.2859 51.0113 30.8957 52.186C29.3081 50.691 26.0692 45.843 25.8152 38.4108C25.4976 29.1206 20.4171 23.995 21.3697 23.6746C22.3223 23.3542 44.8673 21.4321 43.5972 47.3807C45.3802 44.965 47.2123 40.6 47.0753 35.2072C47.067 34.951 49.8336 27.412 51.218 23.6746L46.1889 29.4409C44.9348 25.0111 42.2273 20.1877 37.2464 15.3454C23.2749 1.7625 7.71564 7.76377 2 12.4623ZM30.2607 30.7223C33.8594 39.6922 40.4853 59.1055 38.1991 65C39.3633 62.6508 42.2 58.2726 44.2322 59.554C42.2212 53.3606 36.6114 38.9234 30.2607 30.7223ZM48.6777 46.7399C51.4297 45.3517 56.4256 40.3969 54.3934 31.6834C52.3611 22.9698 56.0869 19.7235 58.2038 19.1896C56.0869 18.3353 51.091 17.716 48.0427 22.0728C48.5339 21.4321 46.455 17.2675 42.9621 15.9861C46.455 12.569 56.5526 6.95216 69 11.8215C66.9889 13.8504 63.0938 20.0225 63.6019 28.4798C64.11 36.9371 53.8641 44.1771 48.6777 46.7399Z" stroke="#F3F3F3" stroke-width="2" stroke-linejoin="bevel"/>
</svg>
