<svg width="72" height="72" viewBox="0 0 72 72" fill="none" xmlns="http://www.w3.org/2000/svg">
<path d="M4.79295 32.9906C3.9598 32.0321 2.71909 30.2927 2.22006 27.9826C1.5437 24.8515 2.17689 20.4134 7.74243 15.1586L7.05591 14.4314L7.74243 15.1586C13.262 9.94712 20.3865 8.42245 26.2253 8.22945C29.1358 8.13324 31.6973 8.3694 33.5302 8.62974C33.7389 8.65939 33.938 8.68933 34.127 8.71911C31.6665 10.5526 30.05 12.4513 28.9821 14.3977C27.649 16.8274 27.2147 19.2538 26.983 21.5422C26.9124 22.2389 26.859 22.9169 26.8069 23.5778C26.5104 27.3399 26.2576 30.5475 23.1407 33.4894L23.1406 33.4895C19.1833 37.2257 14.7295 37.295 11.2126 36.3823C11.6401 33.9371 12.2971 30.8002 13.243 27.7535C14.3154 24.2996 15.7217 21.0883 17.495 19.0994L16.0604 17.7084L16.7486 18.4339C16.0604 17.7084 16.0603 17.7085 16.0601 17.7087L16.0596 17.7092L16.058 17.7107L16.0525 17.7159L16.033 17.7346C16.0161 17.7508 15.9916 17.7744 15.9598 17.8052C15.8964 17.8667 15.8041 17.9569 15.6861 18.0741C15.45 18.3086 15.111 18.6512 14.6943 19.0883C13.8612 19.9622 12.7155 21.216 11.4606 22.7405C9.21843 25.4642 6.59258 29.0936 4.79295 32.9906Z" stroke="#F3F3F3" stroke-width="2"/>
<path d="M61.5479 21.7546L62.4874 21.4121L60.6417 22.1774C59.5363 19.8076 57.0919 17.1916 54.2601 14.7434C51.7255 12.552 48.9685 10.5687 46.8028 9.10595C44.3542 11.6287 42.4408 15.3378 44.2311 20.2777L61.5479 21.7546ZM61.5479 21.7546C62.4874 21.4121 62.4873 21.4118 62.4872 21.4116L62.487 21.4109L62.4862 21.4088L62.4837 21.4019L62.4745 21.3769C62.4665 21.3554 62.4548 21.3242 62.4395 21.2838C62.409 21.2029 62.3639 21.0851 62.3045 20.9336C62.1856 20.6307 62.0094 20.1932 61.7775 19.6484C61.314 18.5594 60.6269 17.0389 59.7297 15.3062C58.1463 12.2478 55.8874 8.48617 53.0212 5.2691C54.3402 5.00722 56.5206 4.77908 58.9091 5.38286C62.2836 6.23587 66.2474 8.79175 68.7718 15.7671C71.2728 22.678 69.5586 29.2761 67.1454 34.2241C65.9418 36.692 64.5764 38.7224 63.5115 40.1353C63.3515 40.3476 63.1985 40.5458 63.054 40.7292C62.4018 37.7517 61.2885 35.4922 59.8787 33.6958C58.1579 31.5028 56.0439 30.0636 53.9691 28.8525C53.3363 28.4831 52.713 28.1358 52.1049 27.797C48.6315 25.8617 45.655 24.2033 44.2312 20.2779L61.5479 21.7546Z" stroke="#F3F3F3" stroke-width="2"/>
<path d="M35.8269 58.3985L35.6647 59.3852L35.9129 57.4022C38.6924 57.642 42.3393 56.8927 45.9943 55.7533C49.234 54.7433 52.3879 53.457 54.7924 52.3928C53.602 49.2363 51.0388 45.8933 45.5197 44.972L35.8269 58.3985ZM35.8269 58.3985C35.6647 59.3852 35.6649 59.3853 35.6652 59.3853L35.6659 59.3854L35.6681 59.3858L35.6756 59.387L35.7029 59.3914C35.7266 59.3952 35.7611 59.4006 35.806 59.4075C35.8958 59.4213 36.0273 59.441 36.1971 59.4652C36.5368 59.5135 37.03 59.5796 37.6505 59.6518C38.8909 59.7962 40.6425 59.9652 42.6936 60.0647C46.3531 60.2421 51.013 60.2006 55.4372 59.3801M35.8269 58.3985L55.4372 59.3801M55.4372 59.3801C55.0518 60.5687 54.2256 62.4326 52.5353 64.074C50.1292 66.4107 45.8069 68.4549 37.991 67.1543C30.246 65.8655 24.8632 61.2458 21.3916 56.8853C19.6579 54.7076 18.4137 52.6097 17.604 51.0577C17.5134 50.8841 17.4283 50.7175 17.3487 50.5584C20.4175 51.4446 23.0375 51.6158 25.3704 51.3292C28.234 50.9773 30.5921 49.9434 32.7291 48.8247C33.3756 48.4863 33.9981 48.1441 34.6066 47.8097C38.0858 45.8974 41.106 44.2374 45.5193 44.9719L55.4372 59.3801Z" stroke="#F3F3F3" stroke-width="2"/>
</svg>
