<svg width="72" height="72" viewBox="0 0 72 72" fill="none" xmlns="http://www.w3.org/2000/svg">
<path d="M51.7221 67.4397L52.7211 67.3943L52.7211 67.3943L51.7221 67.4397ZM49.7359 69.3587L49.7503 68.3588L49.7503 68.3588L49.7359 69.3587ZM51.6608 66.4181L52.6584 66.3492L52.6584 66.3492L51.6608 66.4181ZM52.9947 63.3907L52.4033 62.5843L52.4033 62.5843L52.9947 63.3907ZM60.9772 43.4923L61.9765 43.4563L61.9765 43.4563L60.9772 43.4923ZM48.8299 23.7097L49.3407 22.85L49.3059 22.8293L49.2695 22.8115L48.8299 23.7097ZM40.0376 20.9332L40.0721 19.9338L40.0721 19.9338L40.0376 20.9332ZM41.1802 13.5549L41.2149 12.5555L41.1802 13.5549ZM44.8965 11.2154L43.9091 11.0574L44.8965 11.2154ZM41.1945 8.67028V9.67028H41.2361L41.2776 9.66682L41.1945 8.67028ZM35.9886 8.67028V7.67028H34.9886V8.67028H35.9886ZM35.9886 8.67031V9.67031H36.9886V8.67031H35.9886ZM30.8055 8.67031L30.7224 9.66685L30.7639 9.67031H30.8055V8.67031ZM27.1034 11.2154L28.0909 11.0574L28.0909 11.0574L27.1034 11.2154ZM30.8198 13.5549L30.8545 14.5543L30.8198 13.5549ZM31.9623 20.9332L31.9279 19.9338L31.9279 19.9338L31.9623 20.9332ZM23.1701 23.7097L22.7305 22.8115L22.6941 22.8293L22.6593 22.85L23.1701 23.7097ZM11.0228 43.4924L10.0235 43.4564L11.0228 43.4924ZM19.0053 63.3907L18.4139 64.1971L18.4139 64.1971L19.0053 63.3907ZM20.3392 66.4181L19.3416 66.3492L19.3416 66.3492L20.3392 66.4181ZM20.2778 67.4398L21.2768 67.4852L21.2768 67.4852L20.2778 67.4398ZM22.2641 69.3587L22.2497 68.3589L22.2497 68.3589L22.2641 69.3587ZM22.823 69.4065L22.3758 70.3009L22.5869 70.4065H22.823V69.4065ZM36.0114 69.4065L36.0114 70.4065L36.0114 70.4065L36.0114 69.4065ZM49.177 69.4064L49.177 70.4064L49.4131 70.4064L49.6242 70.3009L49.177 69.4064ZM50.7232 67.4851C50.7407 67.8711 50.6862 68.0718 50.6464 68.1627C50.6142 68.2363 50.5854 68.2564 50.5604 68.2709C50.5182 68.2956 50.4353 68.3267 50.2825 68.3447C50.1268 68.3629 49.9605 68.3619 49.7503 68.3588L49.7214 70.3586C50.0646 70.3636 50.8801 70.4004 51.5691 69.9979C52.4043 69.5101 52.7758 68.5968 52.7211 67.3943L50.7232 67.4851ZM50.6632 66.487C50.6835 66.7812 50.706 67.1071 50.7232 67.4851L52.7211 67.3943C52.7027 66.9901 52.6787 66.643 52.6584 66.3492L50.6632 66.487ZM52.4033 62.5843C51.674 63.1191 51.0837 63.6196 50.8035 64.3374C50.5396 65.0135 50.6133 65.765 50.6632 66.487L52.6584 66.3492C52.5965 65.452 52.6028 65.2282 52.6666 65.0647C52.7142 64.9429 52.8468 64.7392 53.5861 64.1971L52.4033 62.5843ZM59.9778 43.5284C60.4252 55.942 53.9603 61.4424 52.4033 62.5843L53.5861 64.1971C55.4997 62.7937 62.4547 56.7254 61.9765 43.4563L59.9778 43.5284ZM48.3192 24.5694C50.1556 25.6604 52.9996 27.9491 55.4224 31.2124C57.8399 34.4687 59.8018 38.6451 59.9778 43.5284L61.9765 43.4563C61.7823 38.0665 59.618 33.5085 57.0282 30.0202C54.4436 26.5389 51.3991 24.0728 49.3407 22.85L48.3192 24.5694ZM40.0032 21.9326C41.1866 21.9734 42.8128 22.4022 44.4307 22.9676C46.0256 23.5249 47.5161 24.1801 48.3904 24.6079L49.2695 22.8115C48.3313 22.3524 46.7676 21.6656 45.0905 21.0795C43.4364 20.5015 41.5726 19.9855 40.0721 19.9338L40.0032 21.9326ZM40.0376 12.5292C38.8543 12.5292 38.0426 13.3456 37.5725 14.1781C37.0922 15.0288 36.8318 16.1039 36.7828 17.1406C36.7341 18.173 36.8896 19.286 37.3616 20.1902C37.8528 21.1313 38.7247 21.8885 40.0032 21.9326L40.0721 19.9338C39.6731 19.92 39.3737 19.7228 39.1346 19.2648C38.8763 18.7699 38.7426 18.0391 38.7806 17.235C38.8184 16.4351 39.0208 15.681 39.3141 15.1615C39.6177 14.6238 39.8906 14.5292 40.0376 14.5292V12.5292ZM41.2149 12.5555C40.8579 12.5431 40.46 12.5292 40.0376 12.5292V14.5292C40.4202 14.5292 40.7847 14.5417 41.1455 14.5543L41.2149 12.5555ZM43.9091 11.0574C43.74 12.1143 43.4322 12.3304 43.2311 12.4222C43.0758 12.4931 42.8495 12.545 42.4966 12.5657C42.1404 12.5867 41.731 12.5734 41.2149 12.5555L41.1455 14.5543C41.6364 14.5713 42.146 14.5898 42.6141 14.5623C43.0854 14.5345 43.5887 14.4575 44.0616 14.2416C45.117 13.7599 45.6603 12.7714 45.884 11.3734L43.9091 11.0574ZM41.2776 9.66682C41.8817 9.61648 42.7088 9.67843 43.2924 9.94273C43.5708 10.0688 43.7332 10.2132 43.8201 10.3531C43.8967 10.4765 43.9692 10.6817 43.9091 11.0574L45.884 11.3734C46.009 10.5922 45.8848 9.88645 45.5189 9.2976C45.1633 8.72526 44.6374 8.35632 44.1175 8.12087C43.1046 7.66212 41.8957 7.60839 41.1115 7.67373L41.2776 9.66682ZM35.9886 9.67028H41.1945V7.67028H35.9886V9.67028ZM36.9886 8.67031V8.67028H34.9886V8.67031H36.9886ZM35.9886 7.67031H30.8055V9.67031H35.9886V7.67031ZM30.8885 7.67376C30.1043 7.60841 28.8954 7.66215 27.8825 8.1209C27.3626 8.35635 26.8367 8.72529 26.4811 9.29763C26.1152 9.88648 25.991 10.5923 26.116 11.3734L28.0909 11.0574C28.0308 10.6817 28.1032 10.4765 28.1799 10.3531C28.2668 10.2133 28.4292 10.0688 28.7076 9.94276C29.2912 9.67846 30.1183 9.61651 30.7224 9.66685L30.8885 7.67376ZM26.116 11.3734C26.3397 12.7714 26.883 13.7599 27.9384 14.2416C28.4113 14.4575 28.9146 14.5346 29.3859 14.5623C29.854 14.5899 30.3636 14.5713 30.8545 14.5543L30.7851 12.5555C30.269 12.5734 29.8596 12.5867 29.5034 12.5658C29.1505 12.545 28.9242 12.4931 28.7689 12.4222C28.5678 12.3304 28.26 12.1143 28.0909 11.0574L26.116 11.3734ZM30.8545 14.5543C31.2153 14.5418 31.5798 14.5292 31.9623 14.5292V12.5292C31.54 12.5292 31.142 12.5431 30.7851 12.5555L30.8545 14.5543ZM31.9623 14.5292C32.1094 14.5292 32.3823 14.6239 32.6859 15.1615C32.9792 15.681 33.1816 16.4352 33.2194 17.235C33.2574 18.0392 33.1237 18.7699 32.8654 19.2648C32.6263 19.7228 32.3268 19.9201 31.9279 19.9338L31.9968 21.9326C33.2753 21.8885 34.1472 21.1313 34.6384 20.1903C35.1104 19.286 35.2659 18.173 35.2171 17.1406C35.1682 16.1039 34.9078 15.0288 34.4274 14.1781C33.9573 13.3456 33.1457 12.5292 31.9623 12.5292V14.5292ZM31.9279 19.9338C30.4273 19.9856 28.5636 20.5016 26.9095 21.0796C25.2324 21.6656 23.6687 22.3524 22.7305 22.8115L23.6096 24.608C24.4839 24.1801 25.9744 23.5249 27.5693 22.9676C29.1872 22.4022 30.8134 21.9734 31.9968 21.9326L31.9279 19.9338ZM22.6593 22.85C20.6009 24.0728 17.5564 26.5389 14.9718 30.0202C12.382 33.5085 10.2177 38.0665 10.0235 43.4564L12.0222 43.5284C12.1981 38.6452 14.16 34.4687 16.5776 31.2124C19.0004 27.9491 21.8444 25.6604 23.6808 24.5695L22.6593 22.85ZM10.0235 43.4564C9.5453 56.7254 16.5003 62.7938 18.4139 64.1971L19.5966 62.5843C18.0396 61.4425 11.5748 55.942 12.0222 43.5284L10.0235 43.4564ZM18.4139 64.1971C19.1532 64.7393 19.2858 64.9429 19.3334 65.0647C19.3972 65.2282 19.4035 65.452 19.3416 66.3492L21.3368 66.487C21.3867 65.765 21.4604 65.0136 21.1965 64.3375C20.9163 63.6196 20.326 63.1191 19.5966 62.5843L18.4139 64.1971ZM19.3416 66.3492C19.3213 66.643 19.2973 66.9901 19.2789 67.3944L21.2768 67.4852C21.294 67.1071 21.3165 66.7813 21.3368 66.487L19.3416 66.3492ZM19.2789 67.3944C19.2242 68.5968 19.5956 69.5101 20.4309 69.998C21.1199 70.4004 21.9354 70.3636 22.2786 70.3586L22.2497 68.3589C22.0395 68.3619 21.8732 68.363 21.7175 68.3447C21.5647 68.3268 21.4818 68.2956 21.4396 68.271C21.4146 68.2564 21.3858 68.2363 21.3536 68.1627C21.3138 68.0718 21.2593 67.8711 21.2768 67.4852L19.2789 67.3944ZM22.2785 70.3586C22.342 70.3577 22.3929 70.357 22.439 70.3571C22.4851 70.3571 22.516 70.358 22.5368 70.3592C22.5591 70.3605 22.5561 70.3615 22.5371 70.3579C22.5266 70.3559 22.5072 70.3517 22.4814 70.3437C22.4558 70.3358 22.4191 70.3225 22.3758 70.3009L23.2702 68.512C23.0222 68.388 22.7688 68.3694 22.6541 68.3627C22.5146 68.3545 22.3618 68.3572 22.2497 68.3589L22.2785 70.3586ZM22.823 70.4065H36.0114V68.4065H22.823V70.4065ZM49.177 68.4064L36.0114 68.4065L36.0114 70.4065L49.177 70.4064L49.177 68.4064ZM49.7503 68.3588C49.6382 68.3572 49.4854 68.3544 49.3459 68.3626C49.2312 68.3694 48.9778 68.388 48.7298 68.512L49.6242 70.3009C49.5809 70.3225 49.5441 70.3357 49.5186 70.3437C49.4928 70.3517 49.4734 70.3559 49.4629 70.3579C49.4439 70.3615 49.4409 70.3605 49.4631 70.3592C49.484 70.358 49.5149 70.3571 49.5609 70.3571C49.6071 70.357 49.658 70.3577 49.7214 70.3586L49.7503 68.3588Z" fill="#F3F3F3"/>
<path d="M23.9505 48.323C24.8905 56.6431 29.3983 58.6827 32.0641 59.4517C33.3203 59.8141 34.7011 60.1052 36.0072 60.0458C48.2003 59.4913 49.0702 46.8565 47.5185 41.0206C46.9687 38.9529 46.1657 37.3736 45.33 36.2031C44.0822 34.4555 41.9219 35.4523 41.5494 37.567C41.4846 37.935 41.3654 38.2932 41.1627 38.6071C39.8838 40.5881 37.4654 42.356 36.0845 36.2682C35.1774 32.269 33.5355 30.0347 32.0376 28.8795C31.2983 28.3093 30.5487 29.3312 30.6878 30.2544C30.9601 32.0621 30.5124 34.7152 28.1508 38.1228C24.2305 43.7793 23.7172 47.2798 23.9505 48.323Z" stroke="#F3F3F3" stroke-width="2"/>
<path d="M32.3522 3.57752L32.4321 3.91105C32.842 5.6249 34.3709 6.83871 36.1331 6.83871C38.0572 6.83871 39.7605 5.55923 40.3183 3.71784C40.5757 2.86815 39.9431 2 39.0553 2H33.5915C32.7667 2 32.1596 2.77548 32.3522 3.57752Z" stroke="#F3F3F3" stroke-width="2"/>
</svg>
