<svg width="72" height="72" viewBox="0 0 72 72" fill="none" xmlns="http://www.w3.org/2000/svg">
<path d="M16.5714 29.2968C12.1558 29.2968 2 29.2968 2 29.2968M16.5714 29.2968C17.3239 29.2968 27.5425 29.2968 39.5327 29.2968M16.5714 29.2968H39.5327M16.5714 29.2968H2M70 29.2968L58.1031 55.531C54.8614 62.6795 47.7378 67.2709 39.8886 67.2709H29.8809C21.8189 67.2709 14.5495 62.4294 11.638 54.9115C6.9184 42.7248 2 29.2968 2 29.2968M70 29.2968C70 29.2968 57.146 29.2968 49.6885 29.2968M70 29.2968H49.6885M39.5327 29.2968L51.0132 16.9332C50.5716 12.812 51.6314 4.65787 59.4028 5.01112C67.1742 5.36436 68.4604 12.5065 66.4677 16.4917C65.4374 18.5523 62.2288 22.3203 57.6366 20.9073C57.2833 21.2606 52.1907 26.6475 49.6885 29.2968M39.5327 29.2968C42.8371 29.2968 46.2761 29.2968 49.6885 29.2968M39.5327 29.2968H49.6885" stroke="#F3F3F3" stroke-width="2"/>
<mask id="path-2-outside-1_702_1921" maskUnits="userSpaceOnUse" x="25.6104" y="36.5586" width="21" height="21" fill="black">
<rect fill="white" x="25.6104" y="36.5586" width="21" height="21"/>
<path fill-rule="evenodd" clip-rule="evenodd" d="M38.2372 38.5586H33.7627V44.7109H27.6104V49.1853H33.7627V55.3378H38.2372V49.1853H44.3896V44.7109H38.2372V38.5586Z"/>
</mask>
<path d="M33.7627 38.5586V36.5586H31.7627V38.5586H33.7627ZM38.2372 38.5586H40.2372V36.5586H38.2372V38.5586ZM33.7627 44.7109V46.7109H35.7627V44.7109H33.7627ZM27.6104 44.7109V42.7109H25.6104V44.7109H27.6104ZM27.6104 49.1853H25.6104V51.1853H27.6104V49.1853ZM33.7627 49.1853H35.7627V47.1853H33.7627V49.1853ZM33.7627 55.3378H31.7627V57.3378H33.7627V55.3378ZM38.2372 55.3378V57.3378H40.2372V55.3378H38.2372ZM38.2372 49.1853V47.1853H36.2372V49.1853H38.2372ZM44.3896 49.1853V51.1853H46.3896V49.1853H44.3896ZM44.3896 44.7109H46.3896V42.7109H44.3896V44.7109ZM38.2372 44.7109H36.2372V46.7109H38.2372V44.7109ZM33.7627 40.5586H38.2372V36.5586H33.7627V40.5586ZM35.7627 44.7109V38.5586H31.7627V44.7109H35.7627ZM27.6104 46.7109H33.7627V42.7109H27.6104V46.7109ZM29.6104 49.1853V44.7109H25.6104V49.1853H29.6104ZM33.7627 47.1853H27.6104V51.1853H33.7627V47.1853ZM35.7627 55.3378V49.1853H31.7627V55.3378H35.7627ZM38.2372 53.3378H33.7627V57.3378H38.2372V53.3378ZM36.2372 49.1853V55.3378H40.2372V49.1853H36.2372ZM44.3896 47.1853H38.2372V51.1853H44.3896V47.1853ZM42.3896 44.7109V49.1853H46.3896V44.7109H42.3896ZM38.2372 46.7109H44.3896V42.7109H38.2372V46.7109ZM36.2372 38.5586V44.7109H40.2372V38.5586H36.2372Z" fill="#F3F3F3" mask="url(#path-2-outside-1_702_1921)"/>
</svg>
