<svg width="25" height="24" viewBox="0 0 25 24" fill="none" xmlns="http://www.w3.org/2000/svg">
<path d="M12.2894 17.0795C12.3144 17.1121 12.3464 17.1385 12.3829 17.1566C12.4194 17.1748 12.4594 17.1842 12.5 17.1842C12.5406 17.1842 12.5806 17.1748 12.6171 17.1566C12.6536 17.1385 12.6855 17.1121 12.7106 17.0795L16.4539 12.2489C16.5909 12.0716 16.4672 11.8091 16.2433 11.8091H13.7667V0.272727C13.7667 0.122727 13.6464 0 13.4993 0H11.494C11.3469 0 11.2266 0.122727 11.2266 0.272727V11.8057H8.75668C8.53275 11.8057 8.40909 12.0682 8.54612 12.2455L12.2894 17.0795ZM24.7326 15.8864H22.7273C22.5802 15.8864 22.4599 16.0091 22.4599 16.1591V21.4091H2.54011V16.1591C2.54011 16.0091 2.41979 15.8864 2.27273 15.8864H0.26738C0.120321 15.8864 0 16.0091 0 16.1591V22.9091C0 23.5125 0.477941 24 1.06952 24H23.9305C24.5221 24 25 23.5125 25 22.9091V16.1591C25 16.0091 24.8797 15.8864 24.7326 15.8864Z" fill="#F3F3F3"/>
</svg>
