<svg width="28" height="27" viewBox="0 0 28 27" fill="none" xmlns="http://www.w3.org/2000/svg">
<path d="M27.9991 20.1369V24.1858C28.0007 24.5617 27.9204 24.9337 27.7633 25.2781C27.6063 25.6225 27.3759 25.9317 27.087 26.1858C26.798 26.4399 26.457 26.6334 26.0855 26.7538C25.7141 26.8742 25.3206 26.9189 24.9301 26.8851C20.5979 26.4338 16.4366 25.0147 12.7805 22.7417C9.3789 20.6695 6.49497 17.9048 4.33347 14.6438C1.9542 11.1229 0.473538 7.11411 0.011427 2.94236C-0.0237541 2.56914 0.0225135 2.19298 0.147283 1.83784C0.272053 1.4827 0.472592 1.15636 0.736131 0.87959C0.999671 0.60282 1.32044 0.381689 1.67801 0.230275C2.03558 0.078862 2.42212 0.000483756 2.81301 0.000130851H7.03651C7.71974 -0.00631567 8.3821 0.225628 8.90014 0.652729C9.41818 1.07983 9.75655 1.67295 9.85217 2.32152C10.0304 3.61728 10.361 4.88953 10.8377 6.11403C11.0271 6.5971 11.0681 7.1221 10.9558 7.62683C10.8435 8.13155 10.5826 8.59483 10.2041 8.96179L8.41619 10.6758C10.4203 14.0547 13.3386 16.8524 16.8632 18.7737L18.6511 17.0597C19.0339 16.6968 19.5172 16.4467 20.0436 16.3391C20.5701 16.2314 21.1178 16.2707 21.6217 16.4523C22.8989 16.9093 24.226 17.2262 25.5777 17.3971C26.2615 17.4896 26.8861 17.8198 27.3326 18.325C27.779 18.8301 28.0163 19.475 27.9991 20.1369Z" fill="#F3F3F3"/>
</svg>
