<svg width="58" height="58" viewBox="0 0 58 58" fill="none" xmlns="http://www.w3.org/2000/svg">
<path fill-rule="evenodd" clip-rule="evenodd" d="M29 0C12.9837 0 0 12.9837 0 29C0 45.0163 12.9837 58 29 58C45.0163 58 58 45.0163 58 29C58 12.9837 45.0163 0 29 0ZM22.624 13.627C24.2737 13.5519 24.8009 13.5335 29.0014 13.5335H28.9966C33.1984 13.5335 33.7237 13.5519 35.3735 13.627C37.02 13.7024 38.1446 13.9631 39.1306 14.3455C40.1488 14.7403 41.0092 15.2687 41.8695 16.1291C42.7299 16.9888 43.2583 17.8517 43.6547 18.8689C44.0349 19.8524 44.2959 20.9763 44.3732 22.6229C44.4473 24.2727 44.4667 24.7998 44.4667 29.0004C44.4667 33.2009 44.4473 33.7268 44.3732 35.3765C44.2959 37.0225 44.0349 38.1467 43.6547 39.1305C43.2583 40.1474 42.7299 41.0103 41.8695 41.87C41.0101 42.7304 40.1485 43.2601 39.1316 43.6552C38.1475 44.0377 37.0223 44.2983 35.3757 44.3737C33.7259 44.4488 33.2004 44.4672 28.9995 44.4672C24.7993 44.4672 24.2725 44.4488 22.6227 44.3737C20.9764 44.2983 19.8522 44.0377 18.8681 43.6552C17.8515 43.2601 16.9886 42.7304 16.1292 41.87C15.2692 41.0103 14.7407 40.1474 14.3453 39.1302C13.9632 38.1467 13.7025 37.0228 13.6268 35.3762C13.552 33.7264 13.5333 33.2009 13.5333 29.0004C13.5333 24.7998 13.5527 24.2723 13.6265 22.6225C13.7006 20.9766 13.9616 19.8524 14.345 18.8686C14.7414 17.8517 15.2698 16.9888 16.1301 16.1291C16.9898 15.269 17.8528 14.7406 18.87 14.3455C19.8535 13.9631 20.9774 13.7024 22.624 13.627ZM27.6139 16.3207C27.8833 16.3203 28.1731 16.3204 28.4859 16.3205L29.0014 16.3207C33.131 16.3207 33.6205 16.3355 35.2513 16.4096C36.7593 16.4786 37.5778 16.7306 38.123 16.9423C38.8447 17.2226 39.3593 17.5577 39.9004 18.0991C40.4417 18.6404 40.7768 19.156 41.0578 19.8777C41.2695 20.4223 41.5218 21.2408 41.5904 22.7488C41.6645 24.3792 41.6807 24.869 41.6807 28.9967C41.6807 33.1244 41.6645 33.6142 41.5904 35.2447C41.5215 36.7527 41.2695 37.5712 41.0578 38.1157C40.7775 38.8375 40.4417 39.3514 39.9004 39.8925C39.359 40.4338 38.8451 40.7689 38.123 41.0493C37.5784 41.2619 36.7593 41.5133 35.2513 41.5822C33.6208 41.6563 33.131 41.6724 29.0014 41.6724C24.8714 41.6724 24.382 41.6563 22.7515 41.5822C21.2435 41.5126 20.425 41.2606 19.8795 41.0489C19.1577 40.7686 18.6422 40.4335 18.1008 39.8921C17.5595 39.3508 17.2244 38.8365 16.9434 38.1144C16.7317 37.5699 16.4794 36.7514 16.4108 35.2434C16.3367 33.6129 16.3218 33.1231 16.3218 28.9929C16.3218 24.8626 16.3367 24.3754 16.4108 22.7449C16.4797 21.2369 16.7317 20.4184 16.9434 19.8732C17.2237 19.1514 17.5595 18.6359 18.1008 18.0945C18.6422 17.5532 19.1577 17.2181 19.8795 16.9371C20.4247 16.7244 21.2435 16.4731 22.7515 16.4038C24.1783 16.3394 24.7313 16.3201 27.6139 16.3168V16.3207ZM37.2574 18.8888C36.2328 18.8888 35.4014 19.7192 35.4014 20.7442C35.4014 21.7689 36.2328 22.6002 37.2574 22.6002C38.2821 22.6002 39.1135 21.7689 39.1135 20.7442C39.1135 19.7195 38.2821 18.8882 37.2574 18.8882V18.8888ZM21.0585 29.0003C21.0585 24.6138 24.6149 21.0574 29.0014 21.0574C33.3877 21.0576 36.943 24.6139 36.943 29.0003C36.943 33.3867 33.3879 36.9415 29.0014 36.9415C24.6149 36.9415 21.0585 33.3867 21.0585 29.0003ZM34.157 29C34.157 26.1525 31.8486 23.8444 29.0014 23.8444C26.1539 23.8444 23.8458 26.1525 23.8458 29C23.8458 31.8472 26.1539 34.1556 29.0014 34.1556C31.8486 34.1556 34.157 31.8472 34.157 29Z" fill="#F3F3F3"/>
</svg>
