<svg width="55" height="54" viewBox="0 0 55 54" fill="none" xmlns="http://www.w3.org/2000/svg">
<circle cx="27.5" cy="26.5" r="21.5" fill="#1B1B1B"/>
<path d="M27.3201 0.37793C12.5601 0.37793 0.594482 12.3435 0.594482 27.1035C0.594482 41.8635 12.5601 53.8291 27.3201 53.8291C42.08 53.8291 54.0456 41.8635 54.0456 27.1035C54.0456 12.3435 42.08 0.37793 27.3201 0.37793ZM26.4161 14.3038C26.6133 14.3 26.8198 14.3304 26.997 14.3298C27.0691 14.3293 27.1358 14.3239 27.1938 14.3092C33.576 14.5412 39.1453 20.343 39.0293 26.7252C39.0293 27.3051 39.2613 28.2335 38.3329 28.2335C37.4045 28.2335 37.6364 27.3051 37.6364 26.6092C37.5351 25.7681 37.3969 24.9828 37.2207 24.2511C37.0446 23.5195 36.8294 22.8409 36.5742 22.2128C36.1905 21.2703 35.7157 20.4411 35.1407 19.7154C33.4167 17.5378 30.7979 16.2896 27.0773 15.7021C26.4973 15.5861 25.6849 15.7021 25.6849 15.0057C25.6849 14.403 26.0323 14.3033 26.4161 14.3038ZM35.1997 26.9572C34.1554 27.0732 34.3873 26.1448 34.2714 25.5649C33.5749 21.5033 32.1826 19.995 28.0056 19.0666C27.4252 18.9507 26.4973 19.0666 26.6133 18.1383C26.7293 17.2099 27.6577 17.5583 28.2376 17.6743C32.4151 18.1383 35.7802 21.6193 35.7802 25.5649C35.6637 26.0288 36.0122 26.8412 35.1997 26.9572ZM32.6471 24.8684C32.6471 25.3324 32.6471 25.9128 31.9506 26.0288C31.4867 26.0288 31.2542 25.6808 31.1382 25.2164C31.0222 23.4761 30.0939 22.5477 28.3536 22.3152C27.8897 22.1992 27.3092 22.0832 27.5412 21.3868C27.6572 20.9229 28.1211 20.9229 28.5856 20.9229C30.5583 20.8075 32.6471 22.8962 32.6471 24.8684ZM39.1447 37.6329C38.4483 39.6056 36.0116 41.5779 33.9229 41.5779C33.6909 41.4619 33.1105 41.4619 32.5305 41.2299C23.4797 37.2849 16.7495 30.9027 13.0365 21.6199C11.7601 18.6027 13.1524 15.9341 16.2856 14.8897C16.8655 14.6577 17.4459 14.6577 18.0258 14.8897C19.4181 15.3536 22.7832 20.1116 22.8992 21.5039C23.0152 22.6642 22.2028 23.2441 21.5069 23.7086C20.1146 24.637 20.1146 25.9133 20.6945 27.1897C22.0868 30.2068 24.4075 32.179 27.3087 33.5719C28.3531 34.0358 29.3974 34.0358 30.0933 32.8755C31.3697 30.9027 32.9939 30.9027 34.7347 32.179C35.5471 32.759 36.475 33.3394 37.2874 34.0358C38.4489 34.9637 39.8412 35.7761 39.1447 37.6329Z" fill="#F3F3F3"/>
</svg>
