<svg width="55" height="54" viewBox="0 0 55 54" fill="none" xmlns="http://www.w3.org/2000/svg">
<g clip-path="url(#clip0_616_1915)">
<circle cx="27.5" cy="26.5" r="21.5" fill="#1B1B1B"/>
<path d="M27.3201 0C12.5601 0 0.594482 11.9656 0.594482 26.7256C0.594482 41.4856 12.5601 53.4512 27.3201 53.4512C42.08 53.4512 54.0456 41.4856 54.0456 26.7256C54.0456 11.9656 42.08 0 27.3201 0ZM42.3537 12.4214L36.3699 40.5236C36.2577 41.0753 35.629 41.3457 35.1515 41.0466L25.9494 34.9435L21.1091 39.4478C20.6782 39.8163 20.0111 39.6369 19.8235 39.1014L16.672 29.1617L8.20915 25.691C7.55987 25.395 7.56908 24.361 8.23462 24.1024L41.2709 11.5087C41.866 11.2778 42.4806 11.796 42.3537 12.4214Z" fill="#F3F3F3"/>
<path d="M20.8402 36.1535L21.3778 31.0438L36.3026 16.4551L18.2853 28.2873L20.8402 36.1535Z" fill="#F3F3F3"/>
</g>
<defs>
<clipPath id="clip0_616_1915">
<rect width="53.4512" height="53.4512" fill="white" transform="translate(0.594482)"/>
</clipPath>
</defs>
</svg>
