<svg width="58" height="58" viewBox="0 0 58 58" fill="none" xmlns="http://www.w3.org/2000/svg">
<path fill-rule="evenodd" clip-rule="evenodd" d="M57.9995 29C57.9995 45.0163 45.0158 58 28.9995 58C12.9833 58 -0.000488281 45.0163 -0.000488281 29C-0.000488281 12.9837 12.9833 0 28.9995 0C45.0158 0 57.9995 12.9837 57.9995 29ZM46.0908 18.2983C47.3597 18.2983 47.6462 18.9532 47.3597 19.8537C46.9126 21.9175 43.1993 27.3919 42.0492 29.0875C41.8306 29.4097 41.7046 29.5954 41.7112 29.5954C41.2609 30.3322 41.0972 30.6596 41.7112 31.4783C41.9331 31.7809 42.4038 32.2428 42.9416 32.7706C43.4949 33.3134 44.1192 33.9261 44.6173 34.5072C46.4183 36.5538 47.81 38.2729 48.1783 39.4599C48.5058 40.6469 47.9328 41.2609 46.7048 41.2609H42.4889C41.3716 41.2609 40.7957 40.6193 39.5683 39.2518C39.042 38.6655 38.396 37.9457 37.5361 37.0859C35.0393 34.6709 33.9342 34.3435 33.3202 34.3435C32.4606 34.3435 32.215 34.5481 32.215 35.7761V39.5827C32.215 40.606 31.8876 41.22 29.1861 41.22C24.7246 41.22 19.7719 38.5185 16.2927 33.4839C11.0534 26.1162 9.62083 20.5496 9.62083 19.4444C9.62083 18.8304 9.82549 18.2574 11.0534 18.2574H15.3103C16.3745 18.2574 16.7838 18.7076 17.1932 19.8946C19.2807 25.9116 22.7599 31.1918 24.1925 31.1918C24.7246 31.1918 24.9702 30.9462 24.9702 29.5954V23.3738C24.8691 21.6054 24.2535 20.8349 23.797 20.2636C23.5139 19.9092 23.292 19.6315 23.292 19.2397C23.292 18.7486 23.7013 18.2574 24.3562 18.2574H30.9871C31.8876 18.2574 32.215 18.7486 32.215 19.8128V28.2038C32.215 29.1042 32.5834 29.4317 32.8699 29.4317C33.4021 29.4317 33.8523 29.1042 34.8347 28.1219C37.8636 24.7246 40.033 19.4853 40.033 19.4853C40.3195 18.8714 40.8107 18.2983 41.8749 18.2983H46.0908Z" fill="#F3F3F3"/>
</svg>
