<svg width="58" height="58" viewBox="0 0 58 58" fill="none" xmlns="http://www.w3.org/2000/svg">
<circle cx="29" cy="29" r="24" fill="#1B1B1B"/>
<path fill-rule="evenodd" clip-rule="evenodd" d="M29 58C12.9837 58 0 45.0163 0 29C0 12.9837 12.9837 0 29 0C45.0163 0 58 12.9837 58 29C58 45.0163 45.0163 58 29 58ZM29.9559 45.1341C39.4635 45.1302 47.1963 37.3956 47.2001 27.8899C47.2019 23.2823 45.4099 18.9498 42.1542 15.6905C38.8984 12.4309 34.5688 10.6351 29.9557 10.6331C20.4508 10.6331 12.715 18.3685 12.7112 27.8763C12.7099 30.9156 13.504 33.8821 15.0131 36.4973L12.5667 45.4331L21.7081 43.0351C24.2268 44.409 27.0627 45.1331 29.9487 45.1341H29.9559ZM22.1317 39.9135L16.707 41.3365L18.1549 36.0475L17.8141 35.5052C16.3794 33.2232 15.6216 30.5857 15.6227 27.8775C15.6259 19.975 22.0556 13.5459 29.9615 13.5459C33.7898 13.5472 37.3885 15.0399 40.0945 17.7491C42.8006 20.4583 44.29 24.0593 44.2885 27.8891C44.2853 35.7922 37.8557 42.222 29.9559 42.222H29.9501C27.3782 42.221 24.8556 41.53 22.655 40.2241L22.1317 39.9135ZM38.6434 31.991C38.5568 31.8463 38.3539 31.7483 38.0533 31.603C37.9804 31.5678 37.9018 31.5298 37.8177 31.4877C37.3868 31.272 35.2684 30.2298 34.8734 30.0858C34.4785 29.9421 34.1912 29.8703 33.904 30.3015C33.6168 30.7328 32.791 31.7034 32.5397 31.991C32.2883 32.2785 32.0369 32.3146 31.6062 32.0988C31.5359 32.0636 31.4401 32.022 31.3217 31.9707L31.3214 31.9706C30.7148 31.7075 29.5181 31.1884 28.1412 29.9602C26.8603 28.8177 25.9955 27.4067 25.7442 26.9754C25.4928 26.544 25.7174 26.3109 25.9331 26.096C26.0621 25.9674 26.2104 25.7869 26.3586 25.6064L26.3586 25.6064L26.3587 25.6063C26.433 25.5157 26.5074 25.4251 26.5794 25.3411C26.7625 25.1273 26.8419 24.9653 26.9497 24.7451C26.9688 24.7062 26.9887 24.6655 27.0103 24.6224C27.1539 24.3347 27.0821 24.0831 26.9744 23.8675C26.9023 23.7231 26.4926 22.7258 26.1219 21.8231C25.9385 21.3768 25.7647 20.9536 25.6459 20.6682C25.3371 19.9264 25.024 19.9282 24.7729 19.9297C24.7396 19.9299 24.7074 19.9301 24.6764 19.9285C24.4254 19.9159 24.1378 19.9132 23.8506 19.9132C23.5634 19.9132 23.0966 20.0211 22.7016 20.4525C22.6763 20.4801 22.648 20.5103 22.6173 20.5431C22.1685 21.022 21.1936 22.0623 21.1936 24.047C21.1936 26.1568 22.7215 28.1954 22.9495 28.4996L22.953 28.5042C22.9607 28.5146 22.9719 28.5303 22.9865 28.551C22.9983 28.5678 23.0123 28.5879 23.0285 28.6112C23.5444 29.3511 26.2742 33.2661 30.3136 35.0103C31.3416 35.4543 32.1441 35.7194 32.7699 35.918C33.8021 36.246 34.7415 36.1997 35.4838 36.0887C36.3117 35.965 38.033 35.0464 38.3923 34.04C38.7511 33.0333 38.7511 32.1706 38.6434 31.991Z" fill="#D9D9D9"/>
</svg>
