<svg width="58" height="58" viewBox="0 0 58 58" fill="none" xmlns="http://www.w3.org/2000/svg">
<path fill-rule="evenodd" clip-rule="evenodd" d="M0 29C0 12.9837 12.9837 0 29 0C45.0163 0 58 12.9837 58 29C58 45.0163 45.0163 58 29 58C12.9837 58 0 45.0163 0 29ZM43.8202 21.8385C43.4645 20.4718 42.4163 19.3957 41.0853 19.0304C38.6732 18.3667 29 18.3667 29 18.3667C29 18.3667 19.3268 18.3667 16.9146 19.0304C15.5835 19.3957 14.5353 20.4718 14.1796 21.8385C13.5333 24.3153 13.5333 29.4833 13.5333 29.4833C13.5333 29.4833 13.5333 34.6511 14.1796 37.1282C14.5353 38.4948 15.5835 39.571 16.9146 39.9364C19.3268 40.6 29 40.6 29 40.6C29 40.6 38.6732 40.6 41.0853 39.9364C42.4163 39.571 43.4645 38.4948 43.8202 37.1282C44.4667 34.6511 44.4667 29.4833 44.4667 29.4833C44.4667 29.4833 44.4667 24.3153 43.8202 21.8385ZM26.1 25.1333V34.8L33.8333 29.9669L26.1 25.1333Z" fill="#F3F3F3"/>
</svg>
