<svg width="124" height="33" viewBox="0 0 124 33" fill="none" xmlns="http://www.w3.org/2000/svg">
<path d="M0.115 32H24.555V29.744H3.405L24.132 2.202V0.509999H0.726V2.719H20.983L0.115 30.261V32ZM28.3984 29.979C31.2184 31.53 33.9444 32.329 37.4694 32.329C44.1434 32.329 48.1854 25.608 48.1854 15.409C48.1854 5.445 45.1304 0.415998 38.4564 0.415998C31.5474 0.415998 27.8814 4.552 27.8814 10.756C27.8814 16.537 31.0774 20.438 37.0464 20.438C40.4304 20.438 42.8274 19.451 45.8824 17.853C45.2714 25.138 42.3574 30.073 37.1404 30.073C34.6964 30.073 32.5814 29.603 28.7274 27.723L28.3984 29.979ZM38.0804 2.672C45.5064 2.672 45.9764 9.957 45.9764 15.691C43.1094 17.242 40.6654 18.276 37.4694 18.417C32.7694 18.605 30.1374 15.926 30.1374 11.038C30.1374 5.821 33.0514 2.672 38.0804 2.672ZM52.7245 29.979C55.5445 31.53 58.2705 32.329 61.7955 32.329C68.4695 32.329 72.5115 25.608 72.5115 15.409C72.5115 5.445 69.4565 0.415998 62.7825 0.415998C55.8735 0.415998 52.2075 4.552 52.2075 10.756C52.2075 16.537 55.4035 20.438 61.3725 20.438C64.7565 20.438 67.1535 19.451 70.2085 17.853C69.5975 25.138 66.6835 30.073 61.4665 30.073C59.0225 30.073 56.9075 29.603 53.0535 27.723L52.7245 29.979ZM62.4065 2.672C69.8325 2.672 70.3025 9.957 70.3025 15.691C67.4355 17.242 64.9915 18.276 61.7955 18.417C57.0955 18.605 54.4635 15.926 54.4635 11.038C54.4635 5.821 57.3775 2.672 62.4065 2.672ZM77.0507 29.979C79.8707 31.53 82.5967 32.329 86.1217 32.329C92.7957 32.329 96.8377 25.608 96.8377 15.409C96.8377 5.445 93.7827 0.415998 87.1087 0.415998C80.1997 0.415998 76.5337 4.552 76.5337 10.756C76.5337 16.537 79.7297 20.438 85.6987 20.438C89.0827 20.438 91.4797 19.451 94.5347 17.853C93.9237 25.138 91.0097 30.073 85.7927 30.073C83.3487 30.073 81.2337 29.603 77.3797 27.723L77.0507 29.979ZM86.7327 2.672C94.1587 2.672 94.6287 9.957 94.6287 15.691C91.7617 17.242 89.3177 18.276 86.1217 18.417C81.4217 18.605 78.7897 15.926 78.7897 11.038C78.7897 5.821 81.7037 2.672 86.7327 2.672ZM99.072 32H123.512V29.744H102.362L123.089 2.202V0.509999H99.683V2.719H119.94L99.072 30.261V32Z" fill="white"/>
</svg>
