<svg width="100" height="33" viewBox="0 0 100 33" fill="none" xmlns="http://www.w3.org/2000/svg">
<path d="M0.711703 11.5463L10.9076 1.38128L13.1665 0.422027L12.2073 2.68091L3.32644 11.5617L12.5941 20.8294L2.39813 31.0407L0.139246 32L1.0985 29.7411L9.99479 20.8448L0.711703 11.5463ZM17.1007 30.013C19.8732 31.5379 22.5534 32.3235 26.0191 32.3235C32.5808 32.3235 36.5547 25.7156 36.5547 15.6882C36.5547 5.89183 33.5511 0.947447 26.9894 0.947447C20.1967 0.947447 16.5924 5.01385 16.5924 11.1135C16.5924 16.7972 19.7346 20.6325 25.6032 20.6325C28.9302 20.6325 31.2869 19.6622 34.2905 18.091C33.6898 25.2535 30.8248 30.1054 25.6956 30.1054C23.2927 30.1054 21.2133 29.6433 17.4242 27.795L17.1007 30.013ZM26.6198 3.16549C33.9208 3.16549 34.3829 10.3279 34.3829 15.9654C31.5642 17.4903 29.1613 18.5069 26.0191 18.6456C21.3981 18.8304 18.8104 16.1965 18.8104 11.3907C18.8104 6.2615 21.6754 3.16549 26.6198 3.16549ZM41.0175 30.013C43.7901 31.5379 46.4702 32.3235 49.9359 32.3235C56.4976 32.3235 60.4716 25.7156 60.4716 15.6882C60.4716 5.89183 57.468 0.947447 50.9063 0.947447C44.1135 0.947447 40.5092 5.01385 40.5092 11.1135C40.5092 16.7972 43.6515 20.6325 49.52 20.6325C52.8471 20.6325 55.2037 19.6622 58.2073 18.091C57.6066 25.2535 54.7417 30.1054 49.6124 30.1054C47.2096 30.1054 45.1301 29.6433 41.341 27.795L41.0175 30.013ZM50.5366 3.16549C57.8377 3.16549 58.2998 10.3279 58.2998 15.9654C55.481 17.4903 53.0781 18.5069 49.9359 18.6456C45.315 18.8304 42.7273 16.1965 42.7273 11.3907C42.7273 6.2615 45.5922 3.16549 50.5366 3.16549ZM64.9344 30.013C67.7069 31.5379 70.3871 32.3235 73.8527 32.3235C80.4144 32.3235 84.3884 25.7156 84.3884 15.6882C84.3884 5.89183 81.3848 0.947447 74.8231 0.947447C68.0304 0.947447 64.4261 5.01385 64.4261 11.1135C64.4261 16.7972 67.5683 20.6325 73.4369 20.6325C76.7639 20.6325 79.1206 19.6622 82.1242 18.091C81.5235 25.2535 78.6585 30.1054 73.5293 30.1054C71.1264 30.1054 69.047 29.6433 65.2578 27.795L64.9344 30.013ZM74.4535 3.16549C81.7545 3.16549 82.2166 10.3279 82.2166 15.9654C79.3978 17.4903 76.995 18.5069 73.8527 18.6456C69.2318 18.8304 66.6441 16.1965 66.6441 11.3907C66.6441 6.2615 69.5091 3.16549 74.4535 3.16549ZM87.0676 11.5463L97.2636 1.38128L99.5224 0.422027L98.5632 2.68091L89.6824 11.5617L98.95 20.8294L88.7541 31.0407L86.4952 32L87.4544 29.7411L96.3507 20.8448L87.0676 11.5463Z" fill="white"/>
</svg>
