<svg width="27" height="27" viewBox="0 0 27 27" fill="none" xmlns="http://www.w3.org/2000/svg">
<path d="M13.1796 25.5C13.1796 26.0523 13.6273 26.5 14.1796 26.5C14.7319 26.5 15.1796 26.0523 15.1796 25.5L13.1796 25.5ZM15.1796 25.5C15.1796 25.4973 15.1796 25.4945 15.1796 25.4916C15.1796 25.4888 15.1796 25.4859 15.1796 25.4829C15.1796 25.48 15.1796 25.477 15.1796 25.4739C15.1796 25.4708 15.1796 25.4677 15.1796 25.4646C15.1796 25.4614 15.1796 25.4582 15.1796 25.4549C15.1796 25.4516 15.1796 25.4483 15.1796 25.4449C15.1796 25.4415 15.1796 25.438 15.1796 25.4345C15.1796 25.431 15.1796 25.4275 15.1796 25.4239C15.1796 25.4203 15.1796 25.4166 15.1796 25.4129C15.1796 25.4092 15.1796 25.4054 15.1796 25.4016C15.1796 25.3978 15.1796 25.3939 15.1796 25.39C15.1796 25.3861 15.1796 25.3821 15.1796 25.378C15.1796 25.374 15.1796 25.3699 15.1796 25.3658C15.1796 25.3616 15.1796 25.3575 15.1796 25.3532C15.1796 25.349 15.1796 25.3447 15.1796 25.3403C15.1796 25.336 15.1796 25.3316 15.1796 25.3271C15.1796 25.3226 15.1796 25.3181 15.1796 25.3136C15.1796 25.309 15.1796 25.3044 15.1796 25.2997C15.1796 25.2951 15.1796 25.2904 15.1796 25.2856C15.1796 25.2808 15.1796 25.276 15.1796 25.2711C15.1796 25.2663 15.1796 25.2613 15.1796 25.2564C15.1796 25.2514 15.1796 25.2464 15.1796 25.2413C15.1796 25.2362 15.1796 25.2311 15.1796 25.2259C15.1796 25.2207 15.1796 25.2155 15.1796 25.2102C15.1796 25.2049 15.1796 25.1996 15.1796 25.1942C15.1796 25.1888 15.1796 25.1834 15.1796 25.1779C15.1796 25.1724 15.1796 25.1669 15.1796 25.1613C15.1796 25.1557 15.1796 25.15 15.1796 25.1444C15.1796 25.1387 15.1796 25.1329 15.1796 25.1271C15.1796 25.1213 15.1796 25.1155 15.1796 25.1096C15.1796 25.1037 15.1796 25.0978 15.1796 25.0918C15.1796 25.0858 15.1796 25.0798 15.1796 25.0737C15.1796 25.0676 15.1796 25.0614 15.1796 25.0552C15.1796 25.0491 15.1796 25.0428 15.1796 25.0365C15.1796 25.0302 15.1796 25.0239 15.1796 25.0175C15.1796 25.0111 15.1796 25.0047 15.1796 24.9982C15.1796 24.9917 15.1796 24.9852 15.1796 24.9786C15.1796 24.972 15.1796 24.9654 15.1796 24.9587C15.1796 24.952 15.1796 24.9453 15.1796 24.9385C15.1796 24.9317 15.1796 24.9249 15.1796 24.918C15.1796 24.9112 15.1796 24.9042 15.1796 24.8973C15.1796 24.8903 15.1796 24.8833 15.1796 24.8762C15.1796 24.8691 15.1796 24.862 15.1796 24.8549C15.1796 24.8477 15.1796 24.8405 15.1796 24.8332C15.1796 24.826 15.1796 24.8187 15.1796 24.8113C15.1796 24.8039 15.1796 24.7965 15.1796 24.7891C15.1796 24.7816 15.1796 24.7741 15.1796 24.7666C15.1796 24.7591 15.1796 24.7515 15.1796 24.7438C15.1796 24.7362 15.1796 24.7285 15.1796 24.7208C15.1796 24.713 15.1796 24.7053 15.1796 24.6974C15.1796 24.6896 15.1796 24.6817 15.1796 24.6738C15.1796 24.6659 15.1796 24.6579 15.1796 24.6499C15.1796 24.6419 15.1796 24.6338 15.1796 24.6257C15.1796 24.6176 15.1796 24.6095 15.1796 24.6013C15.1796 24.5931 15.1796 24.5848 15.1796 24.5765C15.1796 24.5683 15.1796 24.5599 15.1796 24.5515C15.1796 24.5432 15.1796 24.5347 15.1796 24.5263C15.1796 24.5178 15.1796 24.5093 15.1796 24.5007C15.1796 24.4921 15.1796 24.4835 15.1796 24.4749C15.1796 24.4662 15.1796 24.4575 15.1796 24.4488C15.1796 24.44 15.1796 24.4312 15.1796 24.4224C15.1796 24.4136 15.1796 24.4047 15.1796 24.3958C15.1796 24.3869 15.1796 24.3779 15.1796 24.3689C15.1796 24.3599 15.1796 24.3508 15.1796 24.3417C15.1796 24.3326 15.1796 24.3235 15.1796 24.3143C15.1796 24.3051 15.1796 24.2958 15.1796 24.2866C15.1796 24.2773 15.1796 24.268 15.1796 24.2586C15.1796 24.2492 15.1796 24.2398 15.1796 24.2304C15.1796 24.2209 15.1796 24.2114 15.1796 24.2019C15.1796 24.1923 15.1796 24.1827 15.1796 24.1731C15.1796 24.1635 15.1796 24.1538 15.1796 24.1441C15.1796 24.1344 15.1796 24.1246 15.1796 24.1148C15.1796 24.105 15.1796 24.0952 15.1796 24.0853C15.1796 24.0754 15.1796 24.0655 15.1796 24.0555C15.1796 24.0455 15.1796 24.0355 15.1796 24.0255C15.1796 24.0154 15.1796 24.0053 15.1796 23.9952C15.1796 23.985 15.1796 23.9748 15.1796 23.9646C15.1796 23.9544 15.1796 23.9441 15.1796 23.9338C15.1796 23.9235 15.1796 23.9131 15.1796 23.9027C15.1796 23.8923 15.1796 23.8819 15.1796 23.8714C15.1796 23.8609 15.1796 23.8504 15.1796 23.8399C15.1796 23.8293 15.1796 23.8187 15.1796 23.8081C15.1796 23.7974 15.1796 23.7867 15.1796 23.776C15.1796 23.7653 15.1796 23.7545 15.1796 23.7437C15.1796 23.7329 15.1796 23.722 15.1796 23.7111C15.1796 23.7002 15.1796 23.6893 15.1796 23.6783C15.1796 23.6674 15.1796 23.6564 15.1796 23.6453C15.1796 23.6342 15.1796 23.6232 15.1796 23.612C15.1796 23.6009 15.1796 23.5897 15.1796 23.5785C15.1796 23.5673 15.1796 23.556 15.1796 23.5447C15.1796 23.5334 15.1796 23.5221 15.1796 23.5107C15.1796 23.4993 15.1796 23.4879 15.1796 23.4765C15.1796 23.465 15.1796 23.4535 15.1796 23.442C15.1796 23.4305 15.1796 23.4189 15.1796 23.4073C15.1796 23.3957 15.1796 23.384 15.1796 23.3723C15.1796 23.3606 15.1796 23.3489 15.1796 23.3371C15.1796 23.3254 15.1796 23.3135 15.1796 23.3017C15.1796 23.2898 15.1796 23.278 15.1796 23.266C15.1796 23.2541 15.1796 23.2421 15.1796 23.2301C15.1796 23.2181 15.1796 23.2061 15.1796 23.194C15.1796 23.1819 15.1796 23.1698 15.1796 23.1577C15.1796 23.1455 15.1796 23.1333 15.1796 23.1211C15.1796 23.1089 15.1796 23.0966 15.1796 23.0843C15.1796 23.072 15.1796 23.0596 15.1796 23.0473C15.1796 23.0349 15.1796 23.0225 15.1796 23.01C15.1796 22.9975 15.1796 22.985 15.1796 22.9725C15.1796 22.96 15.1796 22.9474 15.1796 22.9348C15.1796 22.9222 15.1796 22.9095 15.1796 22.8969C15.1796 22.8842 15.1796 22.8715 15.1796 22.8587C15.1796 22.846 15.1796 22.8332 15.1796 22.8203C15.1796 22.8075 15.1796 22.7946 15.1796 22.7817C15.1796 22.7688 15.1796 22.7559 15.1796 22.7429C15.1796 22.73 15.1796 22.7169 15.1796 22.7039C15.1796 22.6908 15.1796 22.6778 15.1796 22.6646C15.1796 22.6515 15.1796 22.6384 15.1796 22.6252C15.1796 22.612 15.1796 22.5988 15.1796 22.5855C15.1796 22.5722 15.1796 22.5589 15.1796 22.5456C15.1796 22.5323 15.1796 22.5189 15.1796 22.5055C15.1796 22.4921 15.1796 22.4787 15.1796 22.4652C15.1796 22.4517 15.1796 22.4382 15.1796 22.4247C15.1796 22.4111 15.1796 22.3975 15.1796 22.3839C15.1796 22.3703 15.1796 22.3567 15.1796 22.343C15.1796 22.3293 15.1796 22.3156 15.1796 22.3018C15.1796 22.2881 15.1796 22.2743 15.1796 22.2605C15.1796 22.2466 15.1796 22.2328 15.1796 22.2189C15.1796 22.205 15.1796 22.1911 15.1796 22.1771C15.1796 22.1632 15.1796 22.1492 15.1796 22.1351C15.1796 22.1211 15.1796 22.1071 15.1796 22.093C15.1796 22.0789 15.1796 22.0647 15.1796 22.0506C15.1796 22.0364 15.1796 22.0222 15.1796 22.008C15.1796 21.9938 15.1796 21.9795 15.1796 21.9652C15.1796 21.9509 15.1796 21.9366 15.1796 21.9222C15.1796 21.9079 15.1796 21.8935 15.1796 21.8791C15.1796 21.8646 15.1796 21.8502 15.1796 21.8357C15.1796 21.8212 15.1796 21.8067 15.1796 21.7921C15.1796 21.7776 15.1796 21.763 15.1796 21.7484C15.1796 21.7337 15.1796 21.7191 15.1796 21.7044C15.1796 21.6897 15.1796 21.675 15.1796 21.6603C15.1796 21.6455 15.1796 21.6307 15.1796 21.6159C15.1796 21.6011 15.1796 21.5863 15.1796 21.5714C15.1796 21.5565 15.1796 21.5416 15.1796 21.5267C15.1796 21.5117 15.1796 21.4968 15.1796 21.4818C15.1796 21.4668 15.1796 21.4517 15.1796 21.4367C15.1796 21.4216 15.1796 21.4065 15.1796 21.3914C15.1796 21.3762 15.1796 21.3611 15.1796 21.3459C15.1796 21.3307 15.1796 21.3155 15.1796 21.3003C15.1796 21.285 15.1796 21.2697 15.1796 21.2544C15.1796 21.2391 15.1796 21.2238 15.1796 21.2084C15.1796 21.193 15.1796 21.1776 15.1796 21.1622C15.1796 21.1468 15.1796 21.1313 15.1796 21.1158C15.1796 21.1003 15.1796 21.0848 15.1796 21.0692C15.1796 21.0537 15.1796 21.0381 15.1796 21.0225C15.1796 21.0069 15.1796 20.9913 15.1796 20.9756C15.1796 20.9599 15.1796 20.9442 15.1796 20.9285C15.1796 20.9128 15.1796 20.897 15.1796 20.8812C15.1796 20.8654 15.1796 20.8496 15.1796 20.8338C15.1796 20.8179 15.1796 20.8021 15.1796 20.7862C15.1796 20.7703 15.1796 20.7543 15.1796 20.7384C15.1796 20.7224 15.1796 20.7064 15.1796 20.6904C15.1796 20.6744 15.1796 20.6583 15.1796 20.6423C15.1796 20.6262 15.1796 20.6101 15.1796 20.594C15.1796 20.5778 15.1796 20.5617 15.1796 20.5455C15.1796 20.5293 15.1796 20.5131 15.1796 20.4969C15.1796 20.4806 15.1796 20.4644 15.1796 20.4481C15.1796 20.4318 15.1796 20.4154 15.1796 20.3991C15.1796 20.3827 15.1796 20.3664 15.1796 20.35C15.1796 20.3335 15.1796 20.3171 15.1796 20.3007C15.1796 20.2842 15.1796 20.2677 15.1796 20.2512C15.1796 20.2347 15.1796 20.2181 15.1796 20.2016C15.1796 20.185 15.1796 20.1684 15.1796 20.1518C15.1796 20.1352 15.1796 20.1185 15.1796 20.1019C15.1796 20.0852 15.1796 20.0685 15.1796 20.0518C15.1796 20.035 15.1796 20.0183 15.1796 20.0015C15.1796 19.9847 15.1796 19.9679 15.1796 19.9511C15.1796 19.9343 15.1796 19.9174 15.1796 19.9005C15.1796 19.8836 15.1796 19.8667 15.1796 19.8498C15.1796 19.8329 15.1796 19.8159 15.1796 19.7989C15.1796 19.7819 15.1796 19.7649 15.1796 19.7479C15.1796 19.7309 15.1796 19.7138 15.1796 19.6967C15.1796 19.6796 15.1796 19.6625 15.1796 19.6454C15.1796 19.6282 15.1796 19.6111 15.1796 19.5939C15.1796 19.5767 15.1796 19.5595 15.1796 19.5423C15.1796 19.525 15.1796 19.5078 15.1796 19.4905C15.1796 19.4732 15.1796 19.4559 15.1796 19.4386C15.1796 19.4212 15.1796 19.4039 15.1796 19.3865C15.1796 19.3691 15.1796 19.3517 15.1796 19.3343C15.1796 19.3169 15.1796 19.2994 15.1796 19.2819C15.1796 19.2645 15.1796 19.247 15.1796 19.2295C15.1796 19.2119 15.1796 19.1944 15.1796 19.1768C15.1796 19.1592 15.1796 19.1417 15.1796 19.124C15.1796 19.1064 15.1796 19.0888 15.1796 19.0711C15.1796 19.0535 15.1796 19.0358 15.1796 19.0181C15.1796 19.0004 15.1796 18.9826 15.1796 18.9649C15.1796 18.9471 15.1796 18.9293 15.1796 18.9115C15.1796 18.8937 15.1796 18.8759 15.1796 18.8581C15.1796 18.8402 15.1796 18.8224 15.1796 18.8045C15.1796 18.7866 15.1796 18.7687 15.1796 18.7508C15.1796 18.7328 15.1796 18.7149 15.1796 18.6969C15.1796 18.6789 15.1796 18.6609 15.1796 18.6429C15.1796 18.6249 15.1796 18.6068 15.1796 18.5888C15.1796 18.5707 15.1796 18.5526 15.1796 18.5345C15.1796 18.5164 15.1796 18.4983 15.1796 18.4801C15.1796 18.462 15.1796 18.4438 15.1796 18.4256C15.1796 18.4074 15.1796 18.3892 15.1796 18.371C15.1796 18.3528 15.1796 18.3345 15.1796 18.3162C15.1796 18.298 15.1796 18.2797 15.1796 18.2614C15.1796 18.243 15.1796 18.2247 15.1796 18.2063C15.1796 18.188 15.1796 18.1696 15.1796 18.1512C15.1796 18.1328 15.1796 18.1144 15.1796 18.096C15.1796 18.0775 15.1796 18.0591 15.1796 18.0406C15.1796 18.0221 15.1796 18.0036 15.1796 17.9851C15.1796 17.9666 15.1796 17.9481 15.1796 17.9295C15.1796 17.9109 15.1796 17.8924 15.1796 17.8738C15.1796 17.8552 15.1796 17.8366 15.1796 17.8179C15.1796 17.7993 15.1796 17.7807 15.1796 17.762C15.1796 17.7433 15.1796 17.7246 15.1796 17.7059C15.1796 17.6872 15.1796 17.6685 15.1796 17.6497C15.1796 17.631 15.1796 17.6122 15.1796 17.5934C15.1796 17.5747 15.1796 17.5559 15.1796 17.537C15.1796 17.5182 15.1796 17.4994 15.1796 17.4805C15.1796 17.4617 15.1796 17.4428 15.1796 17.4239C15.1796 17.405 15.1796 17.3861 15.1796 17.3672C15.1796 17.3482 15.1796 17.3293 15.1796 17.3103C15.1796 17.2914 15.1796 17.2724 15.1796 17.2534C15.1796 17.2344 15.1796 17.2154 15.1796 17.1963C15.1796 17.1773 15.1796 17.1582 15.1796 17.1392C15.1796 17.1201 15.1796 17.101 15.1796 17.0819C15.1796 17.0628 15.1796 17.0437 15.1796 17.0246C15.1796 17.0054 15.1796 16.9863 15.1796 16.9671C15.1796 16.9479 15.1796 16.9287 15.1796 16.9095C15.1796 16.8903 15.1796 16.8711 15.1796 16.8519C15.1796 16.8327 15.1796 16.8134 15.1796 16.7941C15.1796 16.7749 15.1796 16.7556 15.1796 16.7363C15.1796 16.717 15.1796 16.6977 15.1796 16.6783C15.1796 16.659 15.1796 16.6397 15.1796 16.6203C15.1796 16.6009 15.1796 16.5815 15.1796 16.5621C15.1796 16.5428 15.1796 16.5233 15.1796 16.5039C15.1796 16.4845 15.1796 16.4651 15.1796 16.4456C15.1796 16.4261 15.1796 16.4067 15.1796 16.3872C15.1796 16.3677 15.1796 16.3482 15.1796 16.3287C15.1796 16.3092 15.1796 16.2896 15.1796 16.2701C15.1796 16.2505 15.1796 16.231 15.1796 16.2114C15.1796 16.1918 15.1796 16.1722 15.1796 16.1526C15.1796 16.133 15.1796 16.1134 15.1796 16.0938C15.1796 16.0742 15.1796 16.0545 15.1796 16.0349C15.1796 16.0152 15.1796 15.9955 15.1796 15.9758C15.1796 15.9562 15.1796 15.9364 15.1796 15.9167C15.1796 15.897 15.1796 15.8773 15.1796 15.8575C15.1796 15.8378 15.1796 15.8181 15.1796 15.7983C15.1796 15.7785 15.1796 15.7587 15.1796 15.7389C15.1796 15.7191 15.1796 15.6993 15.1796 15.6795C15.1796 15.6597 15.1796 15.6399 15.1796 15.62C15.1796 15.6002 15.1796 15.5803 15.1796 15.5604C15.1796 15.5406 15.1796 15.5207 15.1796 15.5008C15.1796 15.4809 15.1796 15.461 15.1796 15.4411C15.1796 15.4211 15.1796 15.4012 15.1796 15.3813C15.1796 15.3613 15.1796 15.3413 15.1796 15.3214C15.1796 15.3014 15.1796 15.2814 15.1796 15.2614C15.1796 15.2414 15.1796 15.2214 15.1796 15.2014C15.1796 15.1814 15.1796 15.1614 15.1796 15.1413C15.1796 15.1213 15.1796 15.1012 15.1796 15.0812C15.1796 15.0611 15.1796 15.041 15.1796 15.0209C15.1796 15.0009 15.1796 14.9808 15.1796 14.9607C15.1796 14.9405 15.1796 14.9204 15.1796 14.9003C15.1796 14.8802 15.1796 14.86 15.1796 14.8399C15.1796 14.8197 15.1796 14.7996 15.1796 14.7794C15.1796 14.7592 15.1796 14.739 15.1796 14.7188C15.1796 14.6987 15.1796 14.6785 15.1796 14.6582C15.1796 14.638 15.1796 14.6178 15.1796 14.5976C15.1796 14.5773 15.1796 14.5571 15.1796 14.5368C15.1796 14.5166 15.1796 14.4963 15.1796 14.4761C15.1796 14.4558 15.1796 14.4355 15.1796 14.4152C15.1796 14.3949 15.1796 14.3746 15.1796 14.3543C15.1796 14.334 15.1796 14.3137 15.1796 14.2934C15.1796 14.273 15.1796 14.2527 15.1796 14.2323C15.1796 14.212 15.1796 14.1916 15.1796 14.1713C15.1796 14.1509 15.1796 14.1305 15.1796 14.1102C15.1796 14.0898 15.1796 14.0694 15.1796 14.049C15.1796 14.0286 15.1796 14.0082 15.1796 13.9878C15.1796 13.9674 15.1796 13.9469 15.1796 13.9265C15.1796 13.9061 15.1796 13.8856 15.1796 13.8652C15.1796 13.8447 15.1796 13.8243 15.1796 13.8038C15.1796 13.7834 15.1796 13.7629 15.1796 13.7424C15.1796 13.7219 15.1796 13.7015 15.1796 13.681C15.1796 13.6605 15.1796 13.64 15.1796 13.6195C15.1796 13.599 15.1796 13.5784 15.1796 13.5579C15.1796 13.5374 15.1796 13.5169 15.1796 13.4963C15.1796 13.4758 15.1796 13.4553 15.1796 13.4347C15.1796 13.4142 15.1796 13.3936 15.1796 13.373C15.1796 13.3525 15.1796 13.3319 15.1796 13.3113C15.1796 13.2908 15.1796 13.2702 15.1796 13.2496C15.1796 13.229 15.1796 13.2084 15.1796 13.1878C15.1796 13.1672 15.1796 13.1466 15.1796 13.126C15.1796 13.1054 15.1796 13.0847 15.1796 13.0641C15.1796 13.0435 15.1796 13.0229 15.1796 13.0022C15.1796 12.9816 15.1796 12.961 15.1796 12.9403C15.1796 12.9197 15.1796 12.899 15.1796 12.8784C15.1796 12.8577 15.1796 12.837 15.1796 12.8164C15.1796 12.7957 15.1796 12.775 15.1796 12.7544C15.1796 12.7337 15.1796 12.713 15.1796 12.6923C15.1796 12.6716 15.1796 12.6509 15.1796 12.6302C15.1796 12.6095 15.1796 12.5888 15.1796 12.5681C15.1796 12.5474 15.1796 12.5267 15.1796 12.506C15.1796 12.4853 15.1796 12.4646 15.1796 12.4438C15.1796 12.4231 15.1796 12.4024 15.1796 12.3817C15.1796 12.3609 15.1796 12.3402 15.1796 12.3195C15.1796 12.2987 15.1796 12.278 15.1796 12.2572C15.1796 12.2365 15.1796 12.2158 15.1796 12.195C15.1796 12.1743 15.1796 12.1535 15.1796 12.1327C15.1796 12.112 15.1796 12.0912 15.1796 12.0705C15.1796 12.0497 15.1796 12.0289 15.1796 12.0082C15.1796 11.9874 15.1796 11.9666 15.1796 11.9458C15.1796 11.9251 15.1796 11.9043 15.1796 11.8835C15.1796 11.8627 15.1796 11.8419 15.1796 11.8211C15.1796 11.8004 15.1796 11.7796 15.1796 11.7588C15.1796 11.738 15.1796 11.7172 15.1796 11.6964C15.1796 11.6756 15.1796 11.6548 15.1796 11.634C15.1796 11.6132 15.1796 11.5924 15.1796 11.5716C15.1796 11.5508 15.1796 11.53 15.1796 11.5092C15.1796 11.4884 15.1796 11.4676 15.1796 11.4468C15.1796 11.426 15.1796 11.4052 15.1796 11.3843C15.1796 11.3635 15.1796 11.3427 15.1796 11.3219C15.1796 11.3011 15.1796 11.2803 15.1796 11.2595C15.1796 11.2387 15.1796 11.2178 15.1796 11.197C15.1796 11.1762 15.1796 11.1554 15.1796 11.1346C15.1796 11.1138 15.1796 11.0929 15.1796 11.0721C15.1796 11.0513 15.1796 11.0305 15.1796 11.0097C15.1796 10.9888 15.1796 10.968 15.1796 10.9472C15.1796 10.9264 15.1796 10.9056 15.1796 10.8847C15.1796 10.8639 15.1796 10.8431 15.1796 10.8223C15.1796 10.8015 15.1796 10.7806 15.1796 10.7598C15.1796 10.739 15.1796 10.7182 15.1796 10.6974C15.1796 10.6766 15.1796 10.6557 15.1796 10.6349C15.1796 10.6141 15.1796 10.5933 15.1796 10.5725C15.1796 10.5517 15.1796 10.5309 15.1796 10.51C15.1796 10.4892 15.1796 10.4684 15.1796 10.4476C15.1796 10.4268 15.1796 10.406 15.1796 10.3852C15.1796 10.3644 15.1796 10.3436 15.1796 10.3228C15.1796 10.302 15.1796 10.2812 15.1796 10.2604C15.1796 10.2396 15.1796 10.2188 15.1796 10.198C15.1796 10.1772 15.1796 10.1564 15.1796 10.1356C15.1796 10.1148 15.1796 10.094 15.1796 10.0732C15.1796 10.0525 15.1796 10.0317 15.1796 10.0109C15.1796 9.9901 15.1796 9.96932 15.1796 9.94855C15.1796 9.92777 15.1796 9.90699 15.1796 9.88622C15.1796 9.86545 15.1796 9.84468 15.1796 9.82392C15.1796 9.80315 15.1796 9.78239 15.1796 9.76163C15.1796 9.74087 15.1796 9.72012 15.1796 9.69936C15.1796 9.67861 15.1796 9.65786 15.1796 9.63711C15.1796 9.61637 15.1796 9.59563 15.1796 9.57489C15.1796 9.55415 15.1796 9.53341 15.1796 9.51268C15.1796 9.49195 15.1796 9.47122 15.1796 9.4505C15.1796 9.42978 15.1796 9.40906 15.1796 9.38834C15.1796 9.36763 15.1796 9.34692 15.1796 9.32621C15.1796 9.3055 15.1796 9.2848 15.1796 9.2641C15.1796 9.24341 15.1796 9.22271 15.1796 9.20202C15.1796 9.18134 15.1796 9.16065 15.1796 9.13997C15.1796 9.11929 15.1796 9.09862 15.1796 9.07795C15.1796 9.05728 15.1796 9.03662 15.1796 9.01596C15.1796 8.9953 15.1796 8.97465 15.1796 8.954C15.1796 8.93335 15.1796 8.91271 15.1796 8.89207C15.1796 8.87143 15.1796 8.8508 15.1796 8.83017C15.1796 8.80955 15.1796 8.78893 15.1796 8.76831C15.1796 8.7477 15.1796 8.72709 15.1796 8.70649C15.1796 8.68588 15.1796 8.66529 15.1796 8.6447C15.1796 8.62411 15.1796 8.60352 15.1796 8.58294C15.1796 8.56236 15.1796 8.54179 15.1796 8.52123C15.1796 8.50066 15.1796 8.4801 15.1796 8.45955C15.1796 8.439 15.1796 8.41846 15.1796 8.39792C15.1796 8.37738 15.1796 8.35685 15.1796 8.33632C15.1796 8.3158 15.1796 8.29528 15.1796 8.27477C15.1796 8.25426 15.1796 8.23376 15.1796 8.21326C15.1796 8.19277 15.1796 8.17228 15.1796 8.1518C15.1796 8.13132 15.1796 8.11085 15.1796 8.09038C15.1796 8.06992 15.1796 8.04946 15.1796 8.02901C15.1796 8.00856 15.1796 7.98812 15.1796 7.96768C15.1796 7.94725 15.1796 7.92682 15.1796 7.90641C15.1796 7.88599 15.1796 7.86558 15.1796 7.84518C15.1796 7.82478 15.1796 7.80439 15.1796 7.784C15.1796 7.76362 15.1796 7.74324 15.1796 7.72288C15.1796 7.70251 15.1796 7.68215 15.1796 7.6618C15.1796 7.64145 15.1796 7.62111 15.1796 7.60078C15.1796 7.58045 15.1796 7.56013 15.1796 7.53982C15.1796 7.5195 15.1796 7.4992 15.1796 7.47891C15.1796 7.45861 15.1796 7.43833 15.1796 7.41805C15.1796 7.39778 15.1796 7.37751 15.1796 7.35726C15.1796 7.337 15.1796 7.31675 15.1796 7.29652C15.1796 7.27628 15.1796 7.25605 15.1796 7.23584C15.1796 7.21562 15.1796 7.19542 15.1796 7.17522C15.1796 7.15502 15.1796 7.13484 15.1796 7.11466C15.1796 7.09449 15.1796 7.07432 15.1796 7.05417C15.1796 7.03401 15.1796 7.01387 15.1796 6.99374C15.1796 6.9736 15.1796 6.95348 15.1796 6.93337C15.1796 6.91326 15.1796 6.89316 15.1796 6.87307C15.1796 6.85298 15.1796 6.8329 15.1796 6.81283C15.1796 6.79276 15.1796 6.77271 15.1796 6.75266C15.1796 6.73262 15.1796 6.71259 15.1796 6.69256C15.1796 6.67254 15.1796 6.65253 15.1796 6.63253C15.1796 6.61254 15.1796 6.59255 15.1796 6.57257C15.1796 6.5526 15.1796 6.53264 15.1796 6.51269C15.1796 6.49274 15.1796 6.4728 15.1796 6.45287C15.1796 6.43295 15.1796 6.41303 15.1796 6.39313C15.1796 6.37323 15.1796 6.35334 15.1796 6.33346C15.1796 6.31359 15.1796 6.29372 15.1796 6.27387C15.1796 6.25402 15.1796 6.23418 15.1796 6.21436C15.1796 6.19453 15.1796 6.17472 15.1796 6.15492C15.1796 6.13512 15.1796 6.11533 15.1796 6.09556C15.1796 6.07579 15.1796 6.05603 15.1796 6.03628C15.1796 6.01653 15.1796 5.9968 15.1796 5.97708C15.1796 5.95736 15.1796 5.93765 15.1796 5.91796C15.1796 5.89827 15.1796 5.87859 15.1796 5.85893C15.1796 5.83926 15.1796 5.81961 15.1796 5.79998C15.1796 5.78034 15.1796 5.76072 15.1796 5.74111C15.1796 5.7215 15.1796 5.70191 15.1796 5.68233C15.1796 5.66275 15.1796 5.64318 15.1796 5.62363C15.1796 5.60408 15.1796 5.58455 15.1796 5.56503C15.1796 5.54551 15.1796 5.526 15.1796 5.50651C15.1796 5.48702 15.1796 5.46754 15.1796 5.44808C15.1796 5.42862 15.1796 5.40917 15.1796 5.38974C15.1796 5.37031 15.1796 5.35089 15.1796 5.3315C15.1796 5.3121 15.1796 5.29271 15.1796 5.27334C15.1796 5.25397 15.1796 5.23462 15.1796 5.21528C15.1796 5.19594 15.1796 5.17662 15.1796 5.15732C15.1796 5.13801 15.1796 5.11872 15.1796 5.09945C15.1796 5.08017 15.1796 5.06091 15.1796 5.04167C15.1796 5.02243 15.1796 5.00321 15.1796 4.984C15.1796 4.96479 15.1796 4.9456 15.1796 4.92642C15.1796 4.90725 15.1796 4.88809 15.1796 4.86894C15.1796 4.8498 15.1796 4.83068 15.1796 4.81157C15.1796 4.79246 15.1796 4.77337 15.1796 4.75429C15.1796 4.73522 15.1796 4.71616 15.1796 4.69712C15.1796 4.67808 15.1796 4.65906 15.1796 4.64005C15.1796 4.62105 15.1796 4.60206 15.1796 4.58309C15.1796 4.56412 15.1796 4.54517 15.1796 4.52623C15.1796 4.5073 15.1796 4.48838 15.1796 4.46948C15.1796 4.45058 15.1796 4.4317 15.1796 4.41284C15.1796 4.39397 15.1796 4.37513 15.1796 4.3563C15.1796 4.33748 15.1796 4.31867 15.1796 4.29988C15.1796 4.28109 15.1796 4.26232 15.1796 4.24356C15.1796 4.22481 15.1796 4.20608 15.1796 4.18736C15.1796 4.16865 15.1796 4.14995 15.1796 4.13128C15.1796 4.1126 15.1796 4.09394 15.1796 4.0753C15.1796 4.05666 15.1796 4.03804 15.1796 4.01944C15.1796 4.00084 15.1796 3.98226 15.1796 3.96369C15.1796 3.94513 15.1796 3.92659 15.1796 3.90807C15.1796 3.88954 15.1796 3.87104 15.1796 3.85256C15.1796 3.83407 15.1796 3.81561 15.1796 3.79716C15.1796 3.77872 15.1796 3.7603 15.1796 3.74189C15.1796 3.72349 15.1796 3.70511 15.1796 3.68674C15.1796 3.66838 15.1796 3.65004 15.1796 3.63172C15.1796 3.61339 15.1796 3.59509 15.1796 3.57681C15.1796 3.55853 15.1796 3.54027 15.1796 3.52203C15.1796 3.50379 15.1796 3.48557 15.1796 3.46737C15.1796 3.44917 15.1796 3.431 15.1796 3.41284C15.1796 3.39469 15.1796 3.37655 15.1796 3.35844C15.1796 3.34032 15.1796 3.32223 15.1796 3.30416C15.1796 3.28609 15.1796 3.26804 15.1796 3.25002C15.1796 3.23199 15.1796 3.21398 15.1796 3.196C15.1796 3.17801 15.1796 3.16005 15.1796 3.14211C15.1796 3.12417 15.1796 3.10625 15.1796 3.08836C15.1796 3.07046 15.1796 3.05259 15.1796 3.03474C15.1796 3.01689 15.1796 2.99906 15.1796 2.98125C15.1796 2.96344 15.1796 2.94566 15.1796 2.9279C15.1796 2.91014 15.1796 2.8924 15.1796 2.87468C15.1796 2.85697 15.1796 2.83927 15.1796 2.8216C15.1796 2.80393 15.1796 2.78629 15.1796 2.76866C15.1796 2.75104 15.1796 2.73344 15.1796 2.71586C15.1796 2.69828 15.1796 2.68073 15.1796 2.6632C15.1796 2.64567 15.1796 2.62816 15.1796 2.61068C15.1796 2.59319 15.1796 2.57573 15.1796 2.5583C15.1796 2.54086 15.1796 2.52345 15.1796 2.50606C15.1796 2.48867 15.1796 2.47131 15.1796 2.45397C15.1796 2.43663 15.1796 2.41931 15.1796 2.40202C15.1796 2.38473 15.1796 2.36746 15.1796 2.35022C15.1796 2.33298 15.1796 2.31576 15.1796 2.29857C15.1796 2.28137 15.1796 2.26421 15.1796 2.24706C15.1796 2.22992 15.1796 2.2128 15.1796 2.19571C15.1796 2.17861 15.1796 2.16154 15.1796 2.1445C15.1796 2.12746 15.1796 2.11044 15.1796 2.09344C15.1796 2.07645 15.1796 2.05948 15.1796 2.04254C15.1796 2.0256 15.1796 2.00868 15.1796 1.99179C15.1796 1.9749 15.1796 1.95803 15.1796 1.9412C15.1796 1.92436 15.1796 1.90754 15.1796 1.89075C15.1796 1.87397 15.1796 1.85721 15.1796 1.84047C15.1796 1.82374 15.1796 1.80703 15.1796 1.79034C15.1796 1.77366 15.1796 1.757 15.1796 1.74037C15.1796 1.72375 15.1796 1.70714 15.1796 1.69057C15.1796 1.67399 15.1796 1.65744 15.1796 1.64091C15.1796 1.62439 15.1796 1.60789 15.1796 1.59143C15.1796 1.57496 15.1796 1.55852 15.1796 1.5421C15.1796 1.52568 15.1796 1.5093 15.1796 1.49294C15.1796 1.47658 15.1796 1.46024 15.1796 1.44394C15.1796 1.42763 15.1796 1.41135 15.1796 1.3951C15.1796 1.37885 15.1796 1.36263 15.1796 1.34644C15.1796 1.33024 15.1796 1.31408 15.1796 1.29794C15.1796 1.2818 15.1796 1.26569 15.1796 1.24961C15.1796 1.23352 15.1796 1.21747 15.1796 1.20144C15.1796 1.18542 15.1796 1.16942 15.1796 1.15345C15.1796 1.13748 15.1796 1.12154 15.1796 1.10563C15.1796 1.08972 15.1796 1.07383 15.1796 1.05798C15.1796 1.04213 15.1796 1.0263 15.1796 1.0105C15.1796 0.994709 15.1796 0.978941 15.1796 0.963203C15.1796 0.947466 15.1796 0.931757 15.1796 0.916077C15.1796 0.900398 15.1796 0.884748 15.1796 0.869127C15.1796 0.853508 15.1796 0.837917 15.1796 0.822355C15.1796 0.806795 15.1796 0.791264 15.1796 0.775763C15.1796 0.76026 15.1796 0.744789 15.1796 0.729347C15.1796 0.713905 15.1796 0.698494 15.1796 0.683113C15.1796 0.667732 15.1796 0.65238 15.1796 0.63706C15.1796 0.62174 15.1796 0.606449 15.1796 0.59119C15.1796 0.57593 15.1796 0.560701 15.1796 0.545504C15.1796 0.530304 15.1796 0.515137 15.1796 0.5L13.1796 0.5C13.1796 0.515137 13.1796 0.530304 13.1796 0.545504C13.1796 0.560701 13.1796 0.57593 13.1796 0.59119C13.1796 0.606449 13.1796 0.62174 13.1796 0.63706C13.1796 0.65238 13.1796 0.667732 13.1796 0.683113C13.1796 0.698494 13.1796 0.713905 13.1796 0.729347C13.1796 0.744789 13.1796 0.76026 13.1796 0.775763C13.1796 0.791264 13.1796 0.806795 13.1796 0.822355C13.1796 0.837917 13.1796 0.853508 13.1796 0.869127C13.1796 0.884749 13.1796 0.900398 13.1796 0.916077C13.1796 0.931757 13.1796 0.947466 13.1796 0.963203C13.1796 0.978941 13.1796 0.994709 13.1796 1.0105C13.1796 1.0263 13.1796 1.04213 13.1796 1.05798C13.1796 1.07383 13.1796 1.08972 13.1796 1.10563C13.1796 1.12154 13.1796 1.13748 13.1796 1.15345C13.1796 1.16942 13.1796 1.18542 13.1796 1.20144C13.1796 1.21747 13.1796 1.23352 13.1796 1.24961C13.1796 1.26569 13.1796 1.2818 13.1796 1.29794C13.1796 1.31408 13.1796 1.33024 13.1796 1.34644C13.1796 1.36263 13.1796 1.37885 13.1796 1.3951C13.1796 1.41135 13.1796 1.42763 13.1796 1.44394C13.1796 1.46024 13.1796 1.47658 13.1796 1.49294C13.1796 1.5093 13.1796 1.52568 13.1796 1.5421C13.1796 1.55852 13.1796 1.57496 13.1796 1.59143C13.1796 1.60789 13.1796 1.62439 13.1796 1.64091C13.1796 1.65744 13.1796 1.67399 13.1796 1.69057C13.1796 1.70714 13.1796 1.72375 13.1796 1.74037C13.1796 1.757 13.1796 1.77366 13.1796 1.79034C13.1796 1.80703 13.1796 1.82374 13.1796 1.84047C13.1796 1.85721 13.1796 1.87397 13.1796 1.89075C13.1796 1.90754 13.1796 1.92436 13.1796 1.9412C13.1796 1.95803 13.1796 1.9749 13.1796 1.99179C13.1796 2.00868 13.1796 2.0256 13.1796 2.04254C13.1796 2.05948 13.1796 2.07645 13.1796 2.09344C13.1796 2.11044 13.1796 2.12746 13.1796 2.1445C13.1796 2.16154 13.1796 2.17861 13.1796 2.19571C13.1796 2.2128 13.1796 2.22992 13.1796 2.24706C13.1796 2.26421 13.1796 2.28137 13.1796 2.29857C13.1796 2.31576 13.1796 2.33298 13.1796 2.35022C13.1796 2.36746 13.1796 2.38473 13.1796 2.40202C13.1796 2.41931 13.1796 2.43663 13.1796 2.45397C13.1796 2.47131 13.1796 2.48867 13.1796 2.50606C13.1796 2.52345 13.1796 2.54086 13.1796 2.5583C13.1796 2.57573 13.1796 2.59319 13.1796 2.61068C13.1796 2.62816 13.1796 2.64567 13.1796 2.6632C13.1796 2.68073 13.1796 2.69828 13.1796 2.71586C13.1796 2.73344 13.1796 2.75104 13.1796 2.76866C13.1796 2.78629 13.1796 2.80393 13.1796 2.8216C13.1796 2.83927 13.1796 2.85697 13.1796 2.87468C13.1796 2.8924 13.1796 2.91014 13.1796 2.9279C13.1796 2.94566 13.1796 2.96344 13.1796 2.98125C13.1796 2.99906 13.1796 3.01689 13.1796 3.03474C13.1796 3.05259 13.1796 3.07046 13.1796 3.08836C13.1796 3.10625 13.1796 3.12417 13.1796 3.14211C13.1796 3.16005 13.1796 3.17801 13.1796 3.196C13.1796 3.21398 13.1796 3.23199 13.1796 3.25002C13.1796 3.26804 13.1796 3.28609 13.1796 3.30416C13.1796 3.32223 13.1796 3.34032 13.1796 3.35844C13.1796 3.37655 13.1796 3.39469 13.1796 3.41284C13.1796 3.431 13.1796 3.44917 13.1796 3.46737C13.1796 3.48557 13.1796 3.50379 13.1796 3.52203C13.1796 3.54027 13.1796 3.55853 13.1796 3.57681C13.1796 3.59509 13.1796 3.61339 13.1796 3.63172C13.1796 3.65004 13.1796 3.66838 13.1796 3.68674C13.1796 3.70511 13.1796 3.72349 13.1796 3.74189C13.1796 3.7603 13.1796 3.77872 13.1796 3.79716C13.1796 3.81561 13.1796 3.83407 13.1796 3.85256C13.1796 3.87104 13.1796 3.88954 13.1796 3.90807C13.1796 3.92659 13.1796 3.94513 13.1796 3.96369C13.1796 3.98226 13.1796 4.00084 13.1796 4.01944C13.1796 4.03804 13.1796 4.05666 13.1796 4.0753C13.1796 4.09394 13.1796 4.1126 13.1796 4.13128C13.1796 4.14995 13.1796 4.16865 13.1796 4.18736C13.1796 4.20608 13.1796 4.22481 13.1796 4.24356C13.1796 4.26232 13.1796 4.28109 13.1796 4.29988C13.1796 4.31867 13.1796 4.33748 13.1796 4.3563C13.1796 4.37513 13.1796 4.39397 13.1796 4.41284C13.1796 4.4317 13.1796 4.45058 13.1796 4.46948C13.1796 4.48838 13.1796 4.5073 13.1796 4.52623C13.1796 4.54517 13.1796 4.56412 13.1796 4.58309C13.1796 4.60206 13.1796 4.62105 13.1796 4.64005C13.1796 4.65906 13.1796 4.67808 13.1796 4.69712C13.1796 4.71616 13.1796 4.73522 13.1796 4.75429C13.1796 4.77337 13.1796 4.79246 13.1796 4.81157C13.1796 4.83068 13.1796 4.8498 13.1796 4.86894C13.1796 4.88809 13.1796 4.90725 13.1796 4.92642C13.1796 4.9456 13.1796 4.96479 13.1796 4.984C13.1796 5.00321 13.1796 5.02243 13.1796 5.04167C13.1796 5.06092 13.1796 5.08017 13.1796 5.09945C13.1796 5.11872 13.1796 5.13801 13.1796 5.15732C13.1796 5.17662 13.1796 5.19594 13.1796 5.21528C13.1796 5.23462 13.1796 5.25397 13.1796 5.27334C13.1796 5.29271 13.1796 5.3121 13.1796 5.3315C13.1796 5.35089 13.1796 5.37031 13.1796 5.38974C13.1796 5.40917 13.1796 5.42862 13.1796 5.44808C13.1796 5.46754 13.1796 5.48702 13.1796 5.50651C13.1796 5.526 13.1796 5.54551 13.1796 5.56503C13.1796 5.58455 13.1796 5.60408 13.1796 5.62363C13.1796 5.64318 13.1796 5.66275 13.1796 5.68233C13.1796 5.70191 13.1796 5.7215 13.1796 5.74111C13.1796 5.76072 13.1796 5.78034 13.1796 5.79998C13.1796 5.81961 13.1796 5.83926 13.1796 5.85893C13.1796 5.87859 13.1796 5.89827 13.1796 5.91796C13.1796 5.93765 13.1796 5.95736 13.1796 5.97708C13.1796 5.9968 13.1796 6.01653 13.1796 6.03628C13.1796 6.05603 13.1796 6.07579 13.1796 6.09556C13.1796 6.11533 13.1796 6.13512 13.1796 6.15492C13.1796 6.17472 13.1796 6.19453 13.1796 6.21436C13.1796 6.23418 13.1796 6.25402 13.1796 6.27387C13.1796 6.29372 13.1796 6.31359 13.1796 6.33346C13.1796 6.35334 13.1796 6.37323 13.1796 6.39313C13.1796 6.41303 13.1796 6.43295 13.1796 6.45287C13.1796 6.4728 13.1796 6.49274 13.1796 6.51269C13.1796 6.53264 13.1796 6.5526 13.1796 6.57257C13.1796 6.59255 13.1796 6.61254 13.1796 6.63253C13.1796 6.65253 13.1796 6.67254 13.1796 6.69256C13.1796 6.71259 13.1796 6.73262 13.1796 6.75266C13.1796 6.77271 13.1796 6.79276 13.1796 6.81283C13.1796 6.8329 13.1796 6.85298 13.1796 6.87307C13.1796 6.89316 13.1796 6.91326 13.1796 6.93337C13.1796 6.95348 13.1796 6.9736 13.1796 6.99374C13.1796 7.01387 13.1796 7.03401 13.1796 7.05417C13.1796 7.07432 13.1796 7.09449 13.1796 7.11466C13.1796 7.13484 13.1796 7.15502 13.1796 7.17522C13.1796 7.19542 13.1796 7.21562 13.1796 7.23584C13.1796 7.25605 13.1796 7.27628 13.1796 7.29652C13.1796 7.31675 13.1796 7.337 13.1796 7.35726C13.1796 7.37751 13.1796 7.39778 13.1796 7.41805C13.1796 7.43833 13.1796 7.45861 13.1796 7.47891C13.1796 7.4992 13.1796 7.5195 13.1796 7.53982C13.1796 7.56013 13.1796 7.58045 13.1796 7.60078C13.1796 7.62111 13.1796 7.64145 13.1796 7.6618C13.1796 7.68215 13.1796 7.70251 13.1796 7.72288C13.1796 7.74324 13.1796 7.76362 13.1796 7.784C13.1796 7.80439 13.1796 7.82478 13.1796 7.84518C13.1796 7.86558 13.1796 7.88599 13.1796 7.90641C13.1796 7.92682 13.1796 7.94725 13.1796 7.96768C13.1796 7.98812 13.1796 8.00856 13.1796 8.02901C13.1796 8.04946 13.1796 8.06992 13.1796 8.09038C13.1796 8.11085 13.1796 8.13132 13.1796 8.1518C13.1796 8.17228 13.1796 8.19277 13.1796 8.21326C13.1796 8.23376 13.1796 8.25426 13.1796 8.27477C13.1796 8.29528 13.1796 8.3158 13.1796 8.33632C13.1796 8.35685 13.1796 8.37738 13.1796 8.39792C13.1796 8.41846 13.1796 8.439 13.1796 8.45955C13.1796 8.4801 13.1796 8.50066 13.1796 8.52123C13.1796 8.54179 13.1796 8.56236 13.1796 8.58294C13.1796 8.60352 13.1796 8.62411 13.1796 8.6447C13.1796 8.66529 13.1796 8.68588 13.1796 8.70649C13.1796 8.72709 13.1796 8.7477 13.1796 8.76831C13.1796 8.78893 13.1796 8.80955 13.1796 8.83017C13.1796 8.8508 13.1796 8.87143 13.1796 8.89207C13.1796 8.91271 13.1796 8.93335 13.1796 8.954C13.1796 8.97465 13.1796 8.9953 13.1796 9.01596C13.1796 9.03662 13.1796 9.05728 13.1796 9.07795C13.1796 9.09862 13.1796 9.11929 13.1796 9.13997C13.1796 9.16065 13.1796 9.18134 13.1796 9.20202C13.1796 9.22271 13.1796 9.24341 13.1796 9.2641C13.1796 9.2848 13.1796 9.3055 13.1796 9.32621C13.1796 9.34692 13.1796 9.36763 13.1796 9.38834C13.1796 9.40906 13.1796 9.42978 13.1796 9.4505C13.1796 9.47122 13.1796 9.49195 13.1796 9.51268C13.1796 9.53341 13.1796 9.55415 13.1796 9.57489C13.1796 9.59563 13.1796 9.61637 13.1796 9.63711C13.1796 9.65786 13.1796 9.67861 13.1796 9.69936C13.1796 9.72012 13.1796 9.74087 13.1796 9.76163C13.1796 9.78239 13.1796 9.80315 13.1796 9.82392C13.1796 9.84468 13.1796 9.86545 13.1796 9.88622C13.1796 9.90699 13.1796 9.92777 13.1796 9.94855C13.1796 9.96932 13.1796 9.9901 13.1796 10.0109C13.1796 10.0317 13.1796 10.0525 13.1796 10.0732C13.1796 10.094 13.1796 10.1148 13.1796 10.1356C13.1796 10.1564 13.1796 10.1772 13.1796 10.198C13.1796 10.2188 13.1796 10.2396 13.1796 10.2604C13.1796 10.2812 13.1796 10.302 13.1796 10.3228C13.1796 10.3436 13.1796 10.3644 13.1796 10.3852C13.1796 10.406 13.1796 10.4268 13.1796 10.4476C13.1796 10.4684 13.1796 10.4892 13.1796 10.51C13.1796 10.5309 13.1796 10.5517 13.1796 10.5725C13.1796 10.5933 13.1796 10.6141 13.1796 10.6349C13.1796 10.6557 13.1796 10.6766 13.1796 10.6974C13.1796 10.7182 13.1796 10.739 13.1796 10.7598C13.1796 10.7806 13.1796 10.8015 13.1796 10.8223C13.1796 10.8431 13.1796 10.8639 13.1796 10.8847C13.1796 10.9056 13.1796 10.9264 13.1796 10.9472C13.1796 10.968 13.1796 10.9888 13.1796 11.0097C13.1796 11.0305 13.1796 11.0513 13.1796 11.0721C13.1796 11.0929 13.1796 11.1138 13.1796 11.1346C13.1796 11.1554 13.1796 11.1762 13.1796 11.197C13.1796 11.2178 13.1796 11.2387 13.1796 11.2595C13.1796 11.2803 13.1796 11.3011 13.1796 11.3219C13.1796 11.3427 13.1796 11.3635 13.1796 11.3843C13.1796 11.4052 13.1796 11.426 13.1796 11.4468C13.1796 11.4676 13.1796 11.4884 13.1796 11.5092C13.1796 11.53 13.1796 11.5508 13.1796 11.5716C13.1796 11.5924 13.1796 11.6132 13.1796 11.634C13.1796 11.6548 13.1796 11.6756 13.1796 11.6964C13.1796 11.7172 13.1796 11.738 13.1796 11.7588C13.1796 11.7796 13.1796 11.8004 13.1796 11.8211C13.1796 11.8419 13.1796 11.8627 13.1796 11.8835C13.1796 11.9043 13.1796 11.9251 13.1796 11.9458C13.1796 11.9666 13.1796 11.9874 13.1796 12.0082C13.1796 12.0289 13.1796 12.0497 13.1796 12.0705C13.1796 12.0912 13.1796 12.112 13.1796 12.1327C13.1796 12.1535 13.1796 12.1743 13.1796 12.195C13.1796 12.2158 13.1796 12.2365 13.1796 12.2572C13.1796 12.278 13.1796 12.2987 13.1796 12.3195C13.1796 12.3402 13.1796 12.3609 13.1796 12.3817C13.1796 12.4024 13.1796 12.4231 13.1796 12.4438C13.1796 12.4646 13.1796 12.4853 13.1796 12.506C13.1796 12.5267 13.1796 12.5474 13.1796 12.5681C13.1796 12.5888 13.1796 12.6095 13.1796 12.6302C13.1796 12.6509 13.1796 12.6716 13.1796 12.6923C13.1796 12.713 13.1796 12.7337 13.1796 12.7544C13.1796 12.775 13.1796 12.7957 13.1796 12.8164C13.1796 12.837 13.1796 12.8577 13.1796 12.8784C13.1796 12.899 13.1796 12.9197 13.1796 12.9403C13.1796 12.961 13.1796 12.9816 13.1796 13.0022C13.1796 13.0229 13.1796 13.0435 13.1796 13.0641C13.1796 13.0847 13.1796 13.1054 13.1796 13.126C13.1796 13.1466 13.1796 13.1672 13.1796 13.1878C13.1796 13.2084 13.1796 13.229 13.1796 13.2496C13.1796 13.2702 13.1796 13.2908 13.1796 13.3113C13.1796 13.3319 13.1796 13.3525 13.1796 13.373C13.1796 13.3936 13.1796 13.4142 13.1796 13.4347C13.1796 13.4553 13.1796 13.4758 13.1796 13.4963C13.1796 13.5169 13.1796 13.5374 13.1796 13.5579C13.1796 13.5784 13.1796 13.599 13.1796 13.6195C13.1796 13.64 13.1796 13.6605 13.1796 13.681C13.1796 13.7015 13.1796 13.7219 13.1796 13.7424C13.1796 13.7629 13.1796 13.7834 13.1796 13.8038C13.1796 13.8243 13.1796 13.8447 13.1796 13.8652C13.1796 13.8856 13.1796 13.9061 13.1796 13.9265C13.1796 13.9469 13.1796 13.9674 13.1796 13.9878C13.1796 14.0082 13.1796 14.0286 13.1796 14.049C13.1796 14.0694 13.1796 14.0898 13.1796 14.1102C13.1796 14.1305 13.1796 14.1509 13.1796 14.1713C13.1796 14.1916 13.1796 14.212 13.1796 14.2323C13.1796 14.2527 13.1796 14.273 13.1796 14.2934C13.1796 14.3137 13.1796 14.334 13.1796 14.3543C13.1796 14.3746 13.1796 14.3949 13.1796 14.4152C13.1796 14.4355 13.1796 14.4558 13.1796 14.4761C13.1796 14.4963 13.1796 14.5166 13.1796 14.5368C13.1796 14.5571 13.1796 14.5773 13.1796 14.5976C13.1796 14.6178 13.1796 14.638 13.1796 14.6582C13.1796 14.6785 13.1796 14.6987 13.1796 14.7188C13.1796 14.739 13.1796 14.7592 13.1796 14.7794C13.1796 14.7996 13.1796 14.8197 13.1796 14.8399C13.1796 14.86 13.1796 14.8802 13.1796 14.9003C13.1796 14.9204 13.1796 14.9405 13.1796 14.9607C13.1796 14.9808 13.1796 15.0009 13.1796 15.0209C13.1796 15.041 13.1796 15.0611 13.1796 15.0812C13.1796 15.1012 13.1796 15.1213 13.1796 15.1413C13.1796 15.1614 13.1796 15.1814 13.1796 15.2014C13.1796 15.2214 13.1796 15.2414 13.1796 15.2614C13.1796 15.2814 13.1796 15.3014 13.1796 15.3214C13.1796 15.3413 13.1796 15.3613 13.1796 15.3813C13.1796 15.4012 13.1796 15.4211 13.1796 15.4411C13.1796 15.461 13.1796 15.4809 13.1796 15.5008C13.1796 15.5207 13.1796 15.5406 13.1796 15.5604C13.1796 15.5803 13.1796 15.6002 13.1796 15.62C13.1796 15.6399 13.1796 15.6597 13.1796 15.6795C13.1796 15.6993 13.1796 15.7191 13.1796 15.7389C13.1796 15.7587 13.1796 15.7785 13.1796 15.7983C13.1796 15.8181 13.1796 15.8378 13.1796 15.8575C13.1796 15.8773 13.1796 15.897 13.1796 15.9167C13.1796 15.9364 13.1796 15.9562 13.1796 15.9758C13.1796 15.9955 13.1796 16.0152 13.1796 16.0349C13.1796 16.0545 13.1796 16.0742 13.1796 16.0938C13.1796 16.1134 13.1796 16.133 13.1796 16.1526C13.1796 16.1722 13.1796 16.1918 13.1796 16.2114C13.1796 16.231 13.1796 16.2505 13.1796 16.2701C13.1796 16.2896 13.1796 16.3092 13.1796 16.3287C13.1796 16.3482 13.1796 16.3677 13.1796 16.3872C13.1796 16.4067 13.1796 16.4261 13.1796 16.4456C13.1796 16.4651 13.1796 16.4845 13.1796 16.5039C13.1796 16.5233 13.1796 16.5428 13.1796 16.5621C13.1796 16.5815 13.1796 16.6009 13.1796 16.6203C13.1796 16.6397 13.1796 16.659 13.1796 16.6783C13.1796 16.6977 13.1796 16.717 13.1796 16.7363C13.1796 16.7556 13.1796 16.7749 13.1796 16.7941C13.1796 16.8134 13.1796 16.8327 13.1796 16.8519C13.1796 16.8711 13.1796 16.8903 13.1796 16.9095C13.1796 16.9287 13.1796 16.9479 13.1796 16.9671C13.1796 16.9863 13.1796 17.0054 13.1796 17.0246C13.1796 17.0437 13.1796 17.0628 13.1796 17.0819C13.1796 17.101 13.1796 17.1201 13.1796 17.1392C13.1796 17.1582 13.1796 17.1773 13.1796 17.1963C13.1796 17.2154 13.1796 17.2344 13.1796 17.2534C13.1796 17.2724 13.1796 17.2914 13.1796 17.3103C13.1796 17.3293 13.1796 17.3482 13.1796 17.3672C13.1796 17.3861 13.1796 17.405 13.1796 17.4239C13.1796 17.4428 13.1796 17.4617 13.1796 17.4805C13.1796 17.4994 13.1796 17.5182 13.1796 17.537C13.1796 17.5559 13.1796 17.5747 13.1796 17.5934C13.1796 17.6122 13.1796 17.631 13.1796 17.6497C13.1796 17.6685 13.1796 17.6872 13.1796 17.7059C13.1796 17.7246 13.1796 17.7433 13.1796 17.762C13.1796 17.7807 13.1796 17.7993 13.1796 17.8179C13.1796 17.8366 13.1796 17.8552 13.1796 17.8738C13.1796 17.8924 13.1796 17.9109 13.1796 17.9295C13.1796 17.9481 13.1796 17.9666 13.1796 17.9851C13.1796 18.0036 13.1796 18.0221 13.1796 18.0406C13.1796 18.0591 13.1796 18.0775 13.1796 18.096C13.1796 18.1144 13.1796 18.1328 13.1796 18.1512C13.1796 18.1696 13.1796 18.188 13.1796 18.2063C13.1796 18.2247 13.1796 18.243 13.1796 18.2614C13.1796 18.2797 13.1796 18.298 13.1796 18.3162C13.1796 18.3345 13.1796 18.3528 13.1796 18.371C13.1796 18.3892 13.1796 18.4074 13.1796 18.4256C13.1796 18.4438 13.1796 18.462 13.1796 18.4801C13.1796 18.4983 13.1796 18.5164 13.1796 18.5345C13.1796 18.5526 13.1796 18.5707 13.1796 18.5888C13.1796 18.6068 13.1796 18.6249 13.1796 18.6429C13.1796 18.6609 13.1796 18.6789 13.1796 18.6969C13.1796 18.7149 13.1796 18.7328 13.1796 18.7508C13.1796 18.7687 13.1796 18.7866 13.1796 18.8045C13.1796 18.8224 13.1796 18.8402 13.1796 18.8581C13.1796 18.8759 13.1796 18.8937 13.1796 18.9115C13.1796 18.9293 13.1796 18.9471 13.1796 18.9649C13.1796 18.9826 13.1796 19.0004 13.1796 19.0181C13.1796 19.0358 13.1796 19.0535 13.1796 19.0711C13.1796 19.0888 13.1796 19.1064 13.1796 19.124C13.1796 19.1417 13.1796 19.1592 13.1796 19.1768C13.1796 19.1944 13.1796 19.2119 13.1796 19.2295C13.1796 19.247 13.1796 19.2645 13.1796 19.2819C13.1796 19.2994 13.1796 19.3169 13.1796 19.3343C13.1796 19.3517 13.1796 19.3691 13.1796 19.3865C13.1796 19.4039 13.1796 19.4212 13.1796 19.4386C13.1796 19.4559 13.1796 19.4732 13.1796 19.4905C13.1796 19.5078 13.1796 19.525 13.1796 19.5423C13.1796 19.5595 13.1796 19.5767 13.1796 19.5939C13.1796 19.6111 13.1796 19.6282 13.1796 19.6454C13.1796 19.6625 13.1796 19.6796 13.1796 19.6967C13.1796 19.7138 13.1796 19.7309 13.1796 19.7479C13.1796 19.7649 13.1796 19.7819 13.1796 19.7989C13.1796 19.8159 13.1796 19.8329 13.1796 19.8498C13.1796 19.8667 13.1796 19.8836 13.1796 19.9005C13.1796 19.9174 13.1796 19.9343 13.1796 19.9511C13.1796 19.9679 13.1796 19.9847 13.1796 20.0015C13.1796 20.0183 13.1796 20.035 13.1796 20.0518C13.1796 20.0685 13.1796 20.0852 13.1796 20.1019C13.1796 20.1185 13.1796 20.1352 13.1796 20.1518C13.1796 20.1684 13.1796 20.185 13.1796 20.2016C13.1796 20.2181 13.1796 20.2347 13.1796 20.2512C13.1796 20.2677 13.1796 20.2842 13.1796 20.3007C13.1796 20.3171 13.1796 20.3335 13.1796 20.35C13.1796 20.3664 13.1796 20.3827 13.1796 20.3991C13.1796 20.4154 13.1796 20.4318 13.1796 20.4481C13.1796 20.4644 13.1796 20.4806 13.1796 20.4969C13.1796 20.5131 13.1796 20.5293 13.1796 20.5455C13.1796 20.5617 13.1796 20.5778 13.1796 20.594C13.1796 20.6101 13.1796 20.6262 13.1796 20.6423C13.1796 20.6583 13.1796 20.6744 13.1796 20.6904C13.1796 20.7064 13.1796 20.7224 13.1796 20.7384C13.1796 20.7543 13.1796 20.7703 13.1796 20.7862C13.1796 20.8021 13.1796 20.8179 13.1796 20.8338C13.1796 20.8496 13.1796 20.8654 13.1796 20.8812C13.1796 20.897 13.1796 20.9128 13.1796 20.9285C13.1796 20.9442 13.1796 20.9599 13.1796 20.9756C13.1796 20.9913 13.1796 21.0069 13.1796 21.0225C13.1796 21.0381 13.1796 21.0537 13.1796 21.0692C13.1796 21.0848 13.1796 21.1003 13.1796 21.1158C13.1796 21.1313 13.1796 21.1468 13.1796 21.1622C13.1796 21.1776 13.1796 21.193 13.1796 21.2084C13.1796 21.2238 13.1796 21.2391 13.1796 21.2544C13.1796 21.2697 13.1796 21.285 13.1796 21.3003C13.1796 21.3155 13.1796 21.3307 13.1796 21.3459C13.1796 21.3611 13.1796 21.3762 13.1796 21.3914C13.1796 21.4065 13.1796 21.4216 13.1796 21.4367C13.1796 21.4517 13.1796 21.4668 13.1796 21.4818C13.1796 21.4968 13.1796 21.5117 13.1796 21.5267C13.1796 21.5416 13.1796 21.5565 13.1796 21.5714C13.1796 21.5863 13.1796 21.6011 13.1796 21.6159C13.1796 21.6307 13.1796 21.6455 13.1796 21.6603C13.1796 21.675 13.1796 21.6897 13.1796 21.7044C13.1796 21.7191 13.1796 21.7337 13.1796 21.7484C13.1796 21.763 13.1796 21.7776 13.1796 21.7921C13.1796 21.8067 13.1796 21.8212 13.1796 21.8357C13.1796 21.8502 13.1796 21.8646 13.1796 21.8791C13.1796 21.8935 13.1796 21.9079 13.1796 21.9222C13.1796 21.9366 13.1796 21.9509 13.1796 21.9652C13.1796 21.9795 13.1796 21.9938 13.1796 22.008C13.1796 22.0222 13.1796 22.0364 13.1796 22.0506C13.1796 22.0647 13.1796 22.0789 13.1796 22.093C13.1796 22.1071 13.1796 22.1211 13.1796 22.1351C13.1796 22.1492 13.1796 22.1632 13.1796 22.1771C13.1796 22.1911 13.1796 22.205 13.1796 22.2189C13.1796 22.2328 13.1796 22.2466 13.1796 22.2605C13.1796 22.2743 13.1796 22.2881 13.1796 22.3018C13.1796 22.3156 13.1796 22.3293 13.1796 22.343C13.1796 22.3567 13.1796 22.3703 13.1796 22.3839C13.1796 22.3975 13.1796 22.4111 13.1796 22.4247C13.1796 22.4382 13.1796 22.4517 13.1796 22.4652C13.1796 22.4787 13.1796 22.4921 13.1796 22.5055C13.1796 22.5189 13.1796 22.5323 13.1796 22.5456C13.1796 22.5589 13.1796 22.5722 13.1796 22.5855C13.1796 22.5988 13.1796 22.612 13.1796 22.6252C13.1796 22.6384 13.1796 22.6515 13.1796 22.6646C13.1796 22.6778 13.1796 22.6908 13.1796 22.7039C13.1796 22.7169 13.1796 22.73 13.1796 22.7429C13.1796 22.7559 13.1796 22.7688 13.1796 22.7817C13.1796 22.7946 13.1796 22.8075 13.1796 22.8203C13.1796 22.8332 13.1796 22.846 13.1796 22.8587C13.1796 22.8715 13.1796 22.8842 13.1796 22.8969C13.1796 22.9095 13.1796 22.9222 13.1796 22.9348C13.1796 22.9474 13.1796 22.96 13.1796 22.9725C13.1796 22.985 13.1796 22.9975 13.1796 23.01C13.1796 23.0225 13.1796 23.0349 13.1796 23.0473C13.1796 23.0596 13.1796 23.072 13.1796 23.0843C13.1796 23.0966 13.1796 23.1089 13.1796 23.1211C13.1796 23.1333 13.1796 23.1455 13.1796 23.1577C13.1796 23.1698 13.1796 23.1819 13.1796 23.194C13.1796 23.2061 13.1796 23.2181 13.1796 23.2301C13.1796 23.2421 13.1796 23.2541 13.1796 23.266C13.1796 23.278 13.1796 23.2898 13.1796 23.3017C13.1796 23.3135 13.1796 23.3254 13.1796 23.3371C13.1796 23.3489 13.1796 23.3606 13.1796 23.3723C13.1796 23.384 13.1796 23.3957 13.1796 23.4073C13.1796 23.4189 13.1796 23.4305 13.1796 23.442C13.1796 23.4535 13.1796 23.465 13.1796 23.4765C13.1796 23.4879 13.1796 23.4993 13.1796 23.5107C13.1796 23.5221 13.1796 23.5334 13.1796 23.5447C13.1796 23.556 13.1796 23.5673 13.1796 23.5785C13.1796 23.5897 13.1796 23.6009 13.1796 23.612C13.1796 23.6232 13.1796 23.6342 13.1796 23.6453C13.1796 23.6564 13.1796 23.6674 13.1796 23.6783C13.1796 23.6893 13.1796 23.7002 13.1796 23.7111C13.1796 23.722 13.1796 23.7329 13.1796 23.7437C13.1796 23.7545 13.1796 23.7653 13.1796 23.776C13.1796 23.7867 13.1796 23.7974 13.1796 23.8081C13.1796 23.8187 13.1796 23.8293 13.1796 23.8399C13.1796 23.8504 13.1796 23.8609 13.1796 23.8714C13.1796 23.8819 13.1796 23.8923 13.1796 23.9027C13.1796 23.9131 13.1796 23.9235 13.1796 23.9338C13.1796 23.9441 13.1796 23.9544 13.1796 23.9646C13.1796 23.9748 13.1796 23.985 13.1796 23.9952C13.1796 24.0053 13.1796 24.0154 13.1796 24.0255C13.1796 24.0355 13.1796 24.0455 13.1796 24.0555C13.1796 24.0655 13.1796 24.0754 13.1796 24.0853C13.1796 24.0952 13.1796 24.105 13.1796 24.1148C13.1796 24.1246 13.1796 24.1344 13.1796 24.1441C13.1796 24.1538 13.1796 24.1635 13.1796 24.1731C13.1796 24.1827 13.1796 24.1923 13.1796 24.2019C13.1796 24.2114 13.1796 24.2209 13.1796 24.2304C13.1796 24.2398 13.1796 24.2492 13.1796 24.2586C13.1796 24.268 13.1796 24.2773 13.1796 24.2866C13.1796 24.2958 13.1796 24.3051 13.1796 24.3143C13.1796 24.3235 13.1796 24.3326 13.1796 24.3417C13.1796 24.3508 13.1796 24.3599 13.1796 24.3689C13.1796 24.3779 13.1796 24.3869 13.1796 24.3958C13.1796 24.4047 13.1796 24.4136 13.1796 24.4224C13.1796 24.4312 13.1796 24.44 13.1796 24.4488C13.1796 24.4575 13.1796 24.4662 13.1796 24.4749C13.1796 24.4835 13.1796 24.4921 13.1796 24.5007C13.1796 24.5093 13.1796 24.5178 13.1796 24.5263C13.1796 24.5347 13.1796 24.5432 13.1796 24.5515C13.1796 24.5599 13.1796 24.5683 13.1796 24.5765C13.1796 24.5848 13.1796 24.5931 13.1796 24.6013C13.1796 24.6095 13.1796 24.6176 13.1796 24.6257C13.1796 24.6338 13.1796 24.6419 13.1796 24.6499C13.1796 24.6579 13.1796 24.6659 13.1796 24.6738C13.1796 24.6817 13.1796 24.6896 13.1796 24.6974C13.1796 24.7053 13.1796 24.713 13.1796 24.7208C13.1796 24.7285 13.1796 24.7362 13.1796 24.7438C13.1796 24.7515 13.1796 24.7591 13.1796 24.7666C13.1796 24.7741 13.1796 24.7816 13.1796 24.7891C13.1796 24.7965 13.1796 24.8039 13.1796 24.8113C13.1796 24.8187 13.1796 24.826 13.1796 24.8332C13.1796 24.8405 13.1796 24.8477 13.1796 24.8549C13.1796 24.862 13.1796 24.8691 13.1796 24.8762C13.1796 24.8833 13.1796 24.8903 13.1796 24.8973C13.1796 24.9042 13.1796 24.9112 13.1796 24.918C13.1796 24.9249 13.1796 24.9317 13.1796 24.9385C13.1796 24.9453 13.1796 24.952 13.1796 24.9587C13.1796 24.9654 13.1796 24.972 13.1796 24.9786C13.1796 24.9852 13.1796 24.9917 13.1796 24.9982C13.1796 25.0047 13.1796 25.0111 13.1796 25.0175C13.1796 25.0239 13.1796 25.0302 13.1796 25.0365C13.1796 25.0428 13.1796 25.0491 13.1796 25.0552C13.1796 25.0614 13.1796 25.0676 13.1796 25.0737C13.1796 25.0798 13.1796 25.0858 13.1796 25.0918C13.1796 25.0978 13.1796 25.1037 13.1796 25.1096C13.1796 25.1155 13.1796 25.1213 13.1796 25.1271C13.1796 25.1329 13.1796 25.1387 13.1796 25.1444C13.1796 25.15 13.1796 25.1557 13.1796 25.1613C13.1796 25.1669 13.1796 25.1724 13.1796 25.1779C13.1796 25.1834 13.1796 25.1888 13.1796 25.1942C13.1796 25.1996 13.1796 25.2049 13.1796 25.2102C13.1796 25.2155 13.1796 25.2207 13.1796 25.2259C13.1796 25.2311 13.1796 25.2362 13.1796 25.2413C13.1796 25.2464 13.1796 25.2514 13.1796 25.2564C13.1796 25.2613 13.1796 25.2663 13.1796 25.2711C13.1796 25.276 13.1796 25.2808 13.1796 25.2856C13.1796 25.2904 13.1796 25.2951 13.1796 25.2997C13.1796 25.3044 13.1796 25.309 13.1796 25.3136C13.1796 25.3181 13.1796 25.3226 13.1796 25.3271C13.1796 25.3316 13.1796 25.336 13.1796 25.3403C13.1796 25.3447 13.1796 25.349 13.1796 25.3532C13.1796 25.3575 13.1796 25.3616 13.1796 25.3658C13.1796 25.3699 13.1796 25.374 13.1796 25.378C13.1796 25.3821 13.1796 25.3861 13.1796 25.39C13.1796 25.3939 13.1796 25.3978 13.1796 25.4016C13.1796 25.4054 13.1796 25.4092 13.1796 25.4129C13.1796 25.4166 13.1796 25.4203 13.1796 25.4239C13.1796 25.4275 13.1796 25.431 13.1796 25.4345C13.1796 25.438 13.1796 25.4415 13.1796 25.4449C13.1796 25.4483 13.1796 25.4516 13.1796 25.4549C13.1796 25.4582 13.1796 25.4614 13.1796 25.4646C13.1796 25.4677 13.1796 25.4708 13.1796 25.4739C13.1796 25.477 13.1796 25.48 13.1796 25.4829C13.1796 25.4859 13.1796 25.4888 13.1796 25.4916C13.1796 25.4945 13.1796 25.4973 13.1796 25.5L15.1796 25.5Z" fill="white"/>
<path d="M1.68176 13.999C1.12948 13.999 0.681763 13.5513 0.681763 12.999C0.681763 12.4467 1.12948 11.999 1.68176 11.999L1.68176 13.999ZM26.6818 13.999C26.679 13.999 26.6762 13.999 26.6734 13.999C26.6705 13.999 26.6677 13.999 26.6647 13.999C26.6617 13.999 26.6587 13.999 26.6557 13.999C26.6526 13.999 26.6495 13.999 26.6463 13.999C26.6431 13.999 26.6399 13.999 26.6366 13.999C26.6334 13.999 26.63 13.999 26.6266 13.999C26.6232 13.999 26.6198 13.999 26.6163 13.999C26.6128 13.999 26.6092 13.999 26.6056 13.999C26.602 13.999 26.5984 13.999 26.5947 13.999C26.5909 13.999 26.5872 13.999 26.5834 13.999C26.5795 13.999 26.5757 13.999 26.5717 13.999C26.5678 13.999 26.5638 13.999 26.5598 13.999C26.5558 13.999 26.5517 13.999 26.5475 13.999C26.5434 13.999 26.5392 13.999 26.535 13.999C26.5307 13.999 26.5264 13.999 26.5221 13.999C26.5177 13.999 26.5133 13.999 26.5089 13.999C26.5044 13.999 26.4999 13.999 26.4953 13.999C26.4908 13.999 26.4862 13.999 26.4815 13.999C26.4768 13.999 26.4721 13.999 26.4674 13.999C26.4626 13.999 26.4578 13.999 26.4529 13.999C26.448 13.999 26.4431 13.999 26.4381 13.999C26.4332 13.999 26.4281 13.999 26.423 13.999C26.418 13.999 26.4128 13.999 26.4077 13.999C26.4025 13.999 26.3972 13.999 26.392 13.999C26.3867 13.999 26.3813 13.999 26.376 13.999C26.3706 13.999 26.3651 13.999 26.3596 13.999C26.3542 13.999 26.3486 13.999 26.343 13.999C26.3374 13.999 26.3318 13.999 26.3261 13.999C26.3204 13.999 26.3147 13.999 26.3089 13.999C26.3031 13.999 26.2973 13.999 26.2914 13.999C26.2855 13.999 26.2795 13.999 26.2736 13.999C26.2676 13.999 26.2615 13.999 26.2554 13.999C26.2493 13.999 26.2432 13.999 26.237 13.999C26.2308 13.999 26.2246 13.999 26.2183 13.999C26.212 13.999 26.2057 13.999 26.1993 13.999C26.1929 13.999 26.1865 13.999 26.18 13.999C26.1735 13.999 26.167 13.999 26.1604 13.999C26.1538 13.999 26.1472 13.999 26.1405 13.999C26.1338 13.999 26.1271 13.999 26.1203 13.999C26.1135 13.999 26.1067 13.999 26.0998 13.999C26.0929 13.999 26.086 13.999 26.079 13.999C26.0721 13.999 26.065 13.999 26.058 13.999C26.0509 13.999 26.0438 13.999 26.0366 13.999C26.0295 13.999 26.0222 13.999 26.015 13.999C26.0077 13.999 26.0004 13.999 25.9931 13.999C25.9857 13.999 25.9783 13.999 25.9709 13.999C25.9634 13.999 25.9559 13.999 25.9484 13.999C25.9408 13.999 25.9332 13.999 25.9256 13.999C25.9179 13.999 25.9103 13.999 25.9025 13.999C25.8948 13.999 25.887 13.999 25.8792 13.999C25.8714 13.999 25.8635 13.999 25.8556 13.999C25.8477 13.999 25.8397 13.999 25.8317 13.999C25.8237 13.999 25.8156 13.999 25.8075 13.999C25.7994 13.999 25.7912 13.999 25.783 13.999C25.7748 13.999 25.7666 13.999 25.7583 13.999C25.75 13.999 25.7417 13.999 25.7333 13.999C25.7249 13.999 25.7165 13.999 25.708 13.999C25.6995 13.999 25.691 13.999 25.6825 13.999C25.6739 13.999 25.6653 13.999 25.6566 13.999C25.648 13.999 25.6393 13.999 25.6305 13.999C25.6218 13.999 25.613 13.999 25.6042 13.999C25.5953 13.999 25.5865 13.999 25.5775 13.999C25.5686 13.999 25.5596 13.999 25.5506 13.999C25.5416 13.999 25.5326 13.999 25.5235 13.999C25.5144 13.999 25.5052 13.999 25.496 13.999C25.4868 13.999 25.4776 13.999 25.4683 13.999C25.459 13.999 25.4497 13.999 25.4404 13.999C25.431 13.999 25.4216 13.999 25.4121 13.999C25.4027 13.999 25.3932 13.999 25.3836 13.999C25.3741 13.999 25.3645 13.999 25.3549 13.999C25.3452 13.999 25.3356 13.999 25.3259 13.999C25.3161 13.999 25.3064 13.999 25.2966 13.999C25.2868 13.999 25.2769 13.999 25.2671 13.999C25.2572 13.999 25.2472 13.999 25.2373 13.999C25.2273 13.999 25.2173 13.999 25.2072 13.999C25.1972 13.999 25.1871 13.999 25.1769 13.999C25.1668 13.999 25.1566 13.999 25.1464 13.999C25.1361 13.999 25.1259 13.999 25.1156 13.999C25.1052 13.999 25.0949 13.999 25.0845 13.999C25.0741 13.999 25.0637 13.999 25.0532 13.999C25.0427 13.999 25.0322 13.999 25.0216 13.999C25.0111 13.999 25.0005 13.999 24.9898 13.999C24.9792 13.999 24.9685 13.999 24.9578 13.999C24.947 13.999 24.9363 13.999 24.9255 13.999C24.9146 13.999 24.9038 13.999 24.8929 13.999C24.882 13.999 24.8711 13.999 24.8601 13.999C24.8491 13.999 24.8381 13.999 24.8271 13.999C24.816 13.999 24.8049 13.999 24.7938 13.999C24.7826 13.999 24.7715 13.999 24.7603 13.999C24.749 13.999 24.7378 13.999 24.7265 13.999C24.7152 13.999 24.7039 13.999 24.6925 13.999C24.6811 13.999 24.6697 13.999 24.6582 13.999C24.6468 13.999 24.6353 13.999 24.6238 13.999C24.6122 13.999 24.6006 13.999 24.589 13.999C24.5774 13.999 24.5658 13.999 24.5541 13.999C24.5424 13.999 24.5307 13.999 24.5189 13.999C24.5071 13.999 24.4953 13.999 24.4835 13.999C24.4716 13.999 24.4597 13.999 24.4478 13.999C24.4359 13.999 24.4239 13.999 24.4119 13.999C24.3999 13.999 24.3879 13.999 24.3758 13.999C24.3637 13.999 24.3516 13.999 24.3394 13.999C24.3273 13.999 24.3151 13.999 24.3029 13.999C24.2906 13.999 24.2784 13.999 24.2661 13.999C24.2537 13.999 24.2414 13.999 24.229 13.999C24.2166 13.999 24.2042 13.999 24.1918 13.999C24.1793 13.999 24.1668 13.999 24.1543 13.999C24.1417 13.999 24.1292 13.999 24.1166 13.999C24.104 13.999 24.0913 13.999 24.0786 13.999C24.0659 13.999 24.0532 13.999 24.0405 13.999C24.0277 13.999 24.0149 13.999 24.0021 13.999C23.9893 13.999 23.9764 13.999 23.9635 13.999C23.9506 13.999 23.9377 13.999 23.9247 13.999C23.9117 13.999 23.8987 13.999 23.8857 13.999C23.8726 13.999 23.8595 13.999 23.8464 13.999C23.8333 13.999 23.8201 13.999 23.8069 13.999C23.7938 13.999 23.7805 13.999 23.7673 13.999C23.754 13.999 23.7407 13.999 23.7274 13.999C23.714 13.999 23.7007 13.999 23.6873 13.999C23.6739 13.999 23.6604 13.999 23.647 13.999C23.6335 13.999 23.62 13.999 23.6064 13.999C23.5929 13.999 23.5793 13.999 23.5657 13.999C23.5521 13.999 23.5384 13.999 23.5247 13.999C23.5111 13.999 23.4973 13.999 23.4836 13.999C23.4698 13.999 23.456 13.999 23.4422 13.999C23.4284 13.999 23.4145 13.999 23.4007 13.999C23.3868 13.999 23.3728 13.999 23.3589 13.999C23.3449 13.999 23.3309 13.999 23.3169 13.999C23.3029 13.999 23.2888 13.999 23.2747 13.999C23.2606 13.999 23.2465 13.999 23.2324 13.999C23.2182 13.999 23.204 13.999 23.1898 13.999C23.1755 13.999 23.1613 13.999 23.147 13.999C23.1327 13.999 23.1184 13.999 23.104 13.999C23.0897 13.999 23.0753 13.999 23.0608 13.999C23.0464 13.999 23.032 13.999 23.0175 13.999C23.003 13.999 22.9884 13.999 22.9739 13.999C22.9593 13.999 22.9448 13.999 22.9301 13.999C22.9155 13.999 22.9009 13.999 22.8862 13.999C22.8715 13.999 22.8568 13.999 22.842 13.999C22.8273 13.999 22.8125 13.999 22.7977 13.999C22.7829 13.999 22.768 13.999 22.7532 13.999C22.7383 13.999 22.7234 13.999 22.7084 13.999C22.6935 13.999 22.6785 13.999 22.6635 13.999C22.6485 13.999 22.6335 13.999 22.6184 13.999C22.6034 13.999 22.5883 13.999 22.5731 13.999C22.558 13.999 22.5429 13.999 22.5277 13.999C22.5125 13.999 22.4973 13.999 22.482 13.999C22.4668 13.999 22.4515 13.999 22.4362 13.999C22.4209 13.999 22.4055 13.999 22.3902 13.999C22.3748 13.999 22.3594 13.999 22.344 13.999C22.3285 13.999 22.3131 13.999 22.2976 13.999C22.2821 13.999 22.2666 13.999 22.251 13.999C22.2355 13.999 22.2199 13.999 22.2043 13.999C22.1887 13.999 22.173 13.999 22.1573 13.999C22.1417 13.999 22.126 13.999 22.1103 13.999C22.0945 13.999 22.0788 13.999 22.063 13.999C22.0472 13.999 22.0314 13.999 22.0155 13.999C21.9997 13.999 21.9838 13.999 21.9679 13.999C21.952 13.999 21.9361 13.999 21.9201 13.999C21.9042 13.999 21.8882 13.999 21.8722 13.999C21.8562 13.999 21.8401 13.999 21.824 13.999C21.808 13.999 21.7919 13.999 21.7757 13.999C21.7596 13.999 21.7434 13.999 21.7273 13.999C21.7111 13.999 21.6949 13.999 21.6786 13.999C21.6624 13.999 21.6461 13.999 21.6298 13.999C21.6135 13.999 21.5972 13.999 21.5809 13.999C21.5645 13.999 21.5481 13.999 21.5317 13.999C21.5153 13.999 21.4989 13.999 21.4824 13.999C21.466 13.999 21.4495 13.999 21.433 13.999C21.4164 13.999 21.3999 13.999 21.3833 13.999C21.3668 13.999 21.3502 13.999 21.3336 13.999C21.3169 13.999 21.3003 13.999 21.2836 13.999C21.2669 13.999 21.2502 13.999 21.2335 13.999C21.2168 13.999 21.2 13.999 21.1833 13.999C21.1665 13.999 21.1497 13.999 21.1328 13.999C21.116 13.999 21.0992 13.999 21.0823 13.999C21.0654 13.999 21.0485 13.999 21.0316 13.999C21.0146 13.999 20.9977 13.999 20.9807 13.999C20.9637 13.999 20.9467 13.999 20.9297 13.999C20.9126 13.999 20.8956 13.999 20.8785 13.999C20.8614 13.999 20.8443 13.999 20.8271 13.999C20.81 13.999 20.7928 13.999 20.7757 13.999C20.7585 13.999 20.7413 13.999 20.724 13.999C20.7068 13.999 20.6895 13.999 20.6723 13.999C20.655 13.999 20.6377 13.999 20.6203 13.999C20.603 13.999 20.5857 13.999 20.5683 13.999C20.5509 13.999 20.5335 13.999 20.5161 13.999C20.4986 13.999 20.4812 13.999 20.4637 13.999C20.4462 13.999 20.4287 13.999 20.4112 13.999C20.3937 13.999 20.3761 13.999 20.3586 13.999C20.341 13.999 20.3234 13.999 20.3058 13.999C20.2882 13.999 20.2705 13.999 20.2529 13.999C20.2352 13.999 20.2175 13.999 20.1998 13.999C20.1821 13.999 20.1644 13.999 20.1466 13.999C20.1289 13.999 20.1111 13.999 20.0933 13.999C20.0755 13.999 20.0577 13.999 20.0398 13.999C20.022 13.999 20.0041 13.999 19.9862 13.999C19.9684 13.999 19.9505 13.999 19.9325 13.999C19.9146 13.999 19.8966 13.999 19.8787 13.999C19.8607 13.999 19.8427 13.999 19.8247 13.999C19.8066 13.999 19.7886 13.999 19.7705 13.999C19.7525 13.999 19.7344 13.999 19.7163 13.999C19.6982 13.999 19.6801 13.999 19.6619 13.999C19.6438 13.999 19.6256 13.999 19.6074 13.999C19.5892 13.999 19.571 13.999 19.5528 13.999C19.5345 13.999 19.5163 13.999 19.498 13.999C19.4797 13.999 19.4614 13.999 19.4431 13.999C19.4248 13.999 19.4065 13.999 19.3881 13.999C19.3698 13.999 19.3514 13.999 19.333 13.999C19.3146 13.999 19.2962 13.999 19.2777 13.999C19.2593 13.999 19.2408 13.999 19.2224 13.999C19.2039 13.999 19.1854 13.999 19.1669 13.999C19.1484 13.999 19.1298 13.999 19.1113 13.999C19.0927 13.999 19.0741 13.999 19.0555 13.999C19.0369 13.999 19.0183 13.999 18.9997 13.999C18.9811 13.999 18.9624 13.999 18.9437 13.999C18.9251 13.999 18.9064 13.999 18.8877 13.999C18.869 13.999 18.8502 13.999 18.8315 13.999C18.8128 13.999 18.794 13.999 18.7752 13.999C18.7564 13.999 18.7376 13.999 18.7188 13.999C18.7 13.999 18.6811 13.999 18.6623 13.999C18.6434 13.999 18.6246 13.999 18.6057 13.999C18.5868 13.999 18.5679 13.999 18.5489 13.999C18.53 13.999 18.5111 13.999 18.4921 13.999C18.4731 13.999 18.4541 13.999 18.4351 13.999C18.4161 13.999 18.3971 13.999 18.3781 13.999C18.3591 13.999 18.34 13.999 18.3209 13.999C18.3019 13.999 18.2828 13.999 18.2637 13.999C18.2446 13.999 18.2255 13.999 18.2063 13.999C18.1872 13.999 18.168 13.999 18.1489 13.999C18.1297 13.999 18.1105 13.999 18.0913 13.999C18.0721 13.999 18.0529 13.999 18.0336 13.999C18.0144 13.999 17.9952 13.999 17.9759 13.999C17.9566 13.999 17.9373 13.999 17.918 13.999C17.8987 13.999 17.8794 13.999 17.8601 13.999C17.8408 13.999 17.8214 13.999 17.802 13.999C17.7827 13.999 17.7633 13.999 17.7439 13.999C17.7245 13.999 17.7051 13.999 17.6857 13.999C17.6663 13.999 17.6468 13.999 17.6274 13.999C17.6079 13.999 17.5884 13.999 17.5689 13.999C17.5495 13.999 17.53 13.999 17.5104 13.999C17.4909 13.999 17.4714 13.999 17.4519 13.999C17.4323 13.999 17.4127 13.999 17.3932 13.999C17.3736 13.999 17.354 13.999 17.3344 13.999C17.3148 13.999 17.2952 13.999 17.2756 13.999C17.2559 13.999 17.2363 13.999 17.2166 13.999C17.197 13.999 17.1773 13.999 17.1576 13.999C17.1379 13.999 17.1182 13.999 17.0985 13.999C17.0788 13.999 17.0591 13.999 17.0393 13.999C17.0196 13.999 16.9998 13.999 16.98 13.999C16.9603 13.999 16.9405 13.999 16.9207 13.999C16.9009 13.999 16.8811 13.999 16.8613 13.999C16.8415 13.999 16.8216 13.999 16.8018 13.999C16.7819 13.999 16.7621 13.999 16.7422 13.999C16.7223 13.999 16.7024 13.999 16.6825 13.999C16.6626 13.999 16.6427 13.999 16.6228 13.999C16.6029 13.999 16.583 13.999 16.563 13.999C16.5431 13.999 16.5231 13.999 16.5031 13.999C16.4832 13.999 16.4632 13.999 16.4432 13.999C16.4232 13.999 16.4032 13.999 16.3832 13.999C16.3632 13.999 16.3431 13.999 16.3231 13.999C16.303 13.999 16.283 13.999 16.2629 13.999C16.2429 13.999 16.2228 13.999 16.2027 13.999C16.1826 13.999 16.1625 13.999 16.1424 13.999C16.1223 13.999 16.1022 13.999 16.0821 13.999C16.0619 13.999 16.0418 13.999 16.0216 13.999C16.0015 13.999 15.9813 13.999 15.9612 13.999C15.941 13.999 15.9208 13.999 15.9006 13.999C15.8804 13.999 15.8602 13.999 15.84 13.999C15.8198 13.999 15.7996 13.999 15.7793 13.999C15.7591 13.999 15.7389 13.999 15.7186 13.999C15.6984 13.999 15.6781 13.999 15.6578 13.999C15.6375 13.999 15.6173 13.999 15.597 13.999C15.5767 13.999 15.5564 13.999 15.5361 13.999C15.5158 13.999 15.4954 13.999 15.4751 13.999C15.4548 13.999 15.4345 13.999 15.4141 13.999C15.3938 13.999 15.3734 13.999 15.353 13.999C15.3327 13.999 15.3123 13.999 15.2919 13.999C15.2715 13.999 15.2512 13.999 15.2308 13.999C15.2104 13.999 15.19 13.999 15.1695 13.999C15.1491 13.999 15.1287 13.999 15.1083 13.999C15.0878 13.999 15.0674 13.999 15.047 13.999C15.0265 13.999 15.0061 13.999 14.9856 13.999C14.9651 13.999 14.9447 13.999 14.9242 13.999C14.9037 13.999 14.8832 13.999 14.8627 13.999C14.8422 13.999 14.8217 13.999 14.8012 13.999C14.7807 13.999 14.7602 13.999 14.7397 13.999C14.7192 13.999 14.6986 13.999 14.6781 13.999C14.6576 13.999 14.637 13.999 14.6165 13.999C14.5959 13.999 14.5754 13.999 14.5548 13.999C14.5342 13.999 14.5137 13.999 14.4931 13.999C14.4725 13.999 14.4519 13.999 14.4313 13.999C14.4108 13.999 14.3902 13.999 14.3696 13.999C14.349 13.999 14.3284 13.999 14.3077 13.999C14.2871 13.999 14.2665 13.999 14.2459 13.999C14.2253 13.999 14.2046 13.999 14.184 13.999C14.1634 13.999 14.1427 13.999 14.1221 13.999C14.1014 13.999 14.0808 13.999 14.0601 13.999C14.0395 13.999 14.0188 13.999 13.9981 13.999C13.9775 13.999 13.9568 13.999 13.9361 13.999C13.9154 13.999 13.8948 13.999 13.8741 13.999C13.8534 13.999 13.8327 13.999 13.812 13.999C13.7913 13.999 13.7706 13.999 13.7499 13.999C13.7292 13.999 13.7085 13.999 13.6878 13.999C13.6671 13.999 13.6463 13.999 13.6256 13.999C13.6049 13.999 13.5842 13.999 13.5634 13.999C13.5427 13.999 13.522 13.999 13.5012 13.999C13.4805 13.999 13.4598 13.999 13.439 13.999C13.4183 13.999 13.3975 13.999 13.3768 13.999C13.356 13.999 13.3353 13.999 13.3145 13.999C13.2937 13.999 13.273 13.999 13.2522 13.999C13.2315 13.999 13.2107 13.999 13.1899 13.999C13.1691 13.999 13.1484 13.999 13.1276 13.999C13.1068 13.999 13.086 13.999 13.0653 13.999C13.0445 13.999 13.0237 13.999 13.0029 13.999C12.9821 13.999 12.9613 13.999 12.9405 13.999C12.9198 13.999 12.899 13.999 12.8782 13.999C12.8574 13.999 12.8366 13.999 12.8158 13.999C12.795 13.999 12.7742 13.999 12.7534 13.999C12.7326 13.999 12.7118 13.999 12.691 13.999C12.6702 13.999 12.6493 13.999 12.6285 13.999C12.6077 13.999 12.5869 13.999 12.5661 13.999C12.5453 13.999 12.5245 13.999 12.5037 13.999C12.4829 13.999 12.462 13.999 12.4412 13.999C12.4204 13.999 12.3996 13.999 12.3788 13.999C12.358 13.999 12.3372 13.999 12.3163 13.999C12.2955 13.999 12.2747 13.999 12.2539 13.999C12.2331 13.999 12.2122 13.999 12.1914 13.999C12.1706 13.999 12.1498 13.999 12.129 13.999C12.1081 13.999 12.0873 13.999 12.0665 13.999C12.0457 13.999 12.0249 13.999 12.004 13.999C11.9832 13.999 11.9624 13.999 11.9416 13.999C11.9208 13.999 11.9 13.999 11.8791 13.999C11.8583 13.999 11.8375 13.999 11.8167 13.999C11.7959 13.999 11.7751 13.999 11.7542 13.999C11.7334 13.999 11.7126 13.999 11.6918 13.999C11.671 13.999 11.6502 13.999 11.6294 13.999C11.6086 13.999 11.5878 13.999 11.567 13.999C11.5462 13.999 11.5253 13.999 11.5045 13.999C11.4837 13.999 11.4629 13.999 11.4421 13.999C11.4213 13.999 11.4005 13.999 11.3797 13.999C11.359 13.999 11.3382 13.999 11.3174 13.999C11.2966 13.999 11.2758 13.999 11.255 13.999C11.2342 13.999 11.2134 13.999 11.1926 13.999C11.1719 13.999 11.1511 13.999 11.1303 13.999C11.1095 13.999 11.0888 13.999 11.068 13.999C11.0472 13.999 11.0264 13.999 11.0057 13.999C10.9849 13.999 10.9642 13.999 10.9434 13.999C10.9226 13.999 10.9019 13.999 10.8811 13.999C10.8604 13.999 10.8396 13.999 10.8189 13.999C10.7981 13.999 10.7774 13.999 10.7567 13.999C10.7359 13.999 10.7152 13.999 10.6944 13.999C10.6737 13.999 10.653 13.999 10.6323 13.999C10.6115 13.999 10.5908 13.999 10.5701 13.999C10.5494 13.999 10.5287 13.999 10.508 13.999C10.4873 13.999 10.4666 13.999 10.4459 13.999C10.4252 13.999 10.4045 13.999 10.3838 13.999C10.3631 13.999 10.3424 13.999 10.3217 13.999C10.3011 13.999 10.2804 13.999 10.2597 13.999C10.239 13.999 10.2184 13.999 10.1977 13.999C10.1771 13.999 10.1564 13.999 10.1358 13.999C10.1151 13.999 10.0945 13.999 10.0738 13.999C10.0532 13.999 10.0326 13.999 10.0119 13.999C9.99131 13.999 9.97069 13.999 9.95008 13.999C9.92946 13.999 9.90885 13.999 9.88825 13.999C9.86765 13.999 9.84705 13.999 9.82646 13.999C9.80587 13.999 9.78528 13.999 9.76471 13.999C9.74413 13.999 9.72356 13.999 9.70299 13.999C9.68243 13.999 9.66187 13.999 9.64132 13.999C9.62076 13.999 9.60022 13.999 9.57968 13.999C9.55914 13.999 9.53861 13.999 9.51809 13.999C9.49756 13.999 9.47705 13.999 9.45654 13.999C9.43603 13.999 9.41552 13.999 9.39503 13.999C9.37453 13.999 9.35404 13.999 9.33356 13.999C9.31308 13.999 9.29261 13.999 9.27214 13.999C9.25168 13.999 9.23122 13.999 9.21077 13.999C9.19032 13.999 9.16988 13.999 9.14945 13.999C9.12901 13.999 9.10859 13.999 9.08817 13.999C9.06775 13.999 9.04734 13.999 9.02694 13.999C9.00654 13.999 8.98615 13.999 8.96577 13.999C8.94538 13.999 8.92501 13.999 8.90464 13.999C8.88427 13.999 8.86391 13.999 8.84357 13.999C8.82322 13.999 8.80288 13.999 8.78255 13.999C8.76221 13.999 8.74189 13.999 8.72158 13.999C8.70127 13.999 8.68096 13.999 8.66067 13.999C8.64038 13.999 8.62009 13.999 8.59982 13.999C8.57954 13.999 8.55927 13.999 8.53902 13.999C8.51876 13.999 8.49852 13.999 8.47828 13.999C8.45804 13.999 8.43782 13.999 8.4176 13.999C8.39738 13.999 8.37718 13.999 8.35698 13.999C8.33679 13.999 8.3166 13.999 8.29642 13.999C8.27625 13.999 8.25608 13.999 8.23593 13.999C8.21577 13.999 8.19563 13.999 8.1755 13.999C8.15537 13.999 8.13524 13.999 8.11513 13.999C8.09502 13.999 8.07492 13.999 8.05483 13.999C8.03474 13.999 8.01466 13.999 7.99459 13.999C7.97453 13.999 7.95447 13.999 7.93443 13.999C7.91438 13.999 7.89435 13.999 7.87433 13.999C7.85431 13.999 7.8343 13.999 7.8143 13.999C7.7943 13.999 7.77431 13.999 7.75434 13.999C7.73436 13.999 7.7144 13.999 7.69445 13.999C7.6745 13.999 7.65456 13.999 7.63464 13.999C7.61471 13.999 7.5948 13.999 7.57489 13.999C7.55499 13.999 7.5351 13.999 7.51523 13.999C7.49535 13.999 7.47548 13.999 7.45563 13.999C7.43578 13.999 7.41595 13.999 7.39612 13.999C7.37629 13.999 7.35648 13.999 7.33668 13.999C7.31688 13.999 7.29709 13.999 7.27732 13.999C7.25755 13.999 7.23779 13.999 7.21804 13.999C7.1983 13.999 7.17856 13.999 7.15884 13.999C7.13912 13.999 7.11942 13.999 7.09973 13.999C7.08003 13.999 7.06035 13.999 7.04069 13.999C7.02103 13.999 7.00138 13.999 6.98174 13.999C6.9621 13.999 6.94248 13.999 6.92287 13.999C6.90327 13.999 6.88367 13.999 6.86409 13.999C6.84451 13.999 6.82495 13.999 6.8054 13.999C6.78585 13.999 6.76631 13.999 6.74679 13.999C6.72727 13.999 6.70776 13.999 6.68827 13.999C6.66878 13.999 6.6493 13.999 6.62984 13.999C6.61038 13.999 6.59093 13.999 6.5715 13.999C6.55207 13.999 6.53266 13.999 6.51326 13.999C6.49386 13.999 6.47447 13.999 6.4551 13.999C6.43574 13.999 6.41638 13.999 6.39704 13.999C6.37771 13.999 6.35839 13.999 6.33908 13.999C6.31977 13.999 6.30048 13.999 6.28121 13.999C6.26193 13.999 6.24268 13.999 6.22344 13.999C6.20419 13.999 6.18497 13.999 6.16576 13.999C6.14655 13.999 6.12736 13.999 6.10818 13.999C6.08901 13.999 6.06985 13.999 6.05071 13.999C6.03156 13.999 6.01244 13.999 5.99333 13.999C5.97422 13.999 5.95513 13.999 5.93606 13.999C5.91698 13.999 5.89792 13.999 5.87888 13.999C5.85984 13.999 5.84082 13.999 5.82182 13.999C5.80281 13.999 5.78382 13.999 5.76485 13.999C5.74588 13.999 5.72693 13.999 5.70799 13.999C5.68906 13.999 5.67014 13.999 5.65124 13.999C5.63235 13.999 5.61346 13.999 5.5946 13.999C5.57574 13.999 5.55689 13.999 5.53807 13.999C5.51924 13.999 5.50043 13.999 5.48164 13.999C5.46285 13.999 5.44408 13.999 5.42533 13.999C5.40658 13.999 5.38784 13.999 5.36913 13.999C5.35041 13.999 5.33171 13.999 5.31304 13.999C5.29436 13.999 5.2757 13.999 5.25706 13.999C5.23842 13.999 5.2198 13.999 5.2012 13.999C5.1826 13.999 5.16402 13.999 5.14546 13.999C5.12689 13.999 5.10835 13.999 5.08983 13.999C5.07131 13.999 5.0528 13.999 5.03432 13.999C5.01584 13.999 4.99737 13.999 4.97893 13.999C4.96049 13.999 4.94206 13.999 4.92366 13.999C4.90525 13.999 4.88687 13.999 4.86851 13.999C4.85014 13.999 4.8318 13.999 4.81348 13.999C4.79516 13.999 4.77685 13.999 4.75857 13.999C4.74029 13.999 4.72203 13.999 4.70379 13.999C4.68555 13.999 4.66733 13.999 4.64914 13.999C4.63094 13.999 4.61276 13.999 4.5946 13.999C4.57645 13.999 4.55831 13.999 4.5402 13.999C4.52209 13.999 4.50399 13.999 4.48592 13.999C4.46785 13.999 4.4498 13.999 4.43178 13.999C4.41375 13.999 4.39574 13.999 4.37776 13.999C4.35978 13.999 4.34181 13.999 4.32387 13.999C4.30593 13.999 4.28802 13.999 4.27012 13.999C4.25222 13.999 4.23435 13.999 4.2165 13.999C4.19865 13.999 4.18082 13.999 4.16301 13.999C4.1452 13.999 4.12742 13.999 4.10966 13.999C4.0919 13.999 4.07416 13.999 4.05644 13.999C4.03873 13.999 4.02103 13.999 4.00336 13.999C3.98569 13.999 3.96805 13.999 3.95042 13.999C3.9328 13.999 3.9152 13.999 3.89762 13.999C3.88004 13.999 3.86249 13.999 3.84496 13.999C3.82743 13.999 3.80992 13.999 3.79244 13.999C3.77496 13.999 3.7575 13.999 3.74006 13.999C3.72262 13.999 3.70521 13.999 3.68782 13.999C3.67043 13.999 3.65307 13.999 3.63573 13.999C3.61839 13.999 3.60108 13.999 3.58378 13.999C3.56649 13.999 3.54923 13.999 3.53198 13.999C3.51474 13.999 3.49752 13.999 3.48033 13.999C3.46314 13.999 3.44597 13.999 3.42883 13.999C3.41168 13.999 3.39456 13.999 3.37747 13.999C3.36037 13.999 3.34331 13.999 3.32626 13.999C3.30922 13.999 3.2922 13.999 3.27521 13.999C3.25821 13.999 3.24125 13.999 3.2243 13.999C3.20736 13.999 3.19044 13.999 3.17355 13.999C3.15666 13.999 3.1398 13.999 3.12296 13.999C3.10612 13.999 3.08931 13.999 3.07252 13.999C3.05573 13.999 3.03897 13.999 3.02223 13.999C3.0055 13.999 2.98879 13.999 2.97211 13.999C2.95542 13.999 2.93877 13.999 2.92214 13.999C2.90551 13.999 2.8889 13.999 2.87233 13.999C2.85575 13.999 2.8392 13.999 2.82268 13.999C2.80615 13.999 2.78966 13.999 2.77319 13.999C2.75672 13.999 2.74028 13.999 2.72386 13.999C2.70745 13.999 2.69106 13.999 2.6747 13.999C2.65834 13.999 2.64201 13.999 2.6257 13.999C2.6094 13.999 2.59312 13.999 2.57687 13.999C2.56062 13.999 2.54439 13.999 2.5282 13.999C2.512 13.999 2.49584 13.999 2.4797 13.999C2.46356 13.999 2.44745 13.999 2.43137 13.999C2.41529 13.999 2.39923 13.999 2.38321 13.999C2.36718 13.999 2.35118 13.999 2.33521 13.999C2.31924 13.999 2.3033 13.999 2.28739 13.999C2.27148 13.999 2.2556 13.999 2.23974 13.999C2.22389 13.999 2.20806 13.999 2.19227 13.999C2.17647 13.999 2.1607 13.999 2.14497 13.999C2.12923 13.999 2.11352 13.999 2.09784 13.999C2.08216 13.999 2.06651 13.999 2.05089 13.999C2.03527 13.999 2.01968 13.999 2.00412 13.999C1.98856 13.999 1.97303 13.999 1.95753 13.999C1.94202 13.999 1.92655 13.999 1.91111 13.999C1.89567 13.999 1.88026 13.999 1.86488 13.999C1.84949 13.999 1.83414 13.999 1.81882 13.999C1.8035 13.999 1.78821 13.999 1.77295 13.999C1.75769 13.999 1.74246 13.999 1.72727 13.999C1.71207 13.999 1.6969 13.999 1.68176 13.999L1.68176 11.999C1.6969 11.999 1.71207 11.999 1.72727 11.999C1.74246 11.999 1.75769 11.999 1.77295 11.999C1.78821 11.999 1.8035 11.999 1.81882 11.999C1.83414 11.999 1.84949 11.999 1.86488 11.999C1.88026 11.999 1.89567 11.999 1.91111 11.999C1.92655 11.999 1.94202 11.999 1.95753 11.999C1.97303 11.999 1.98856 11.999 2.00412 11.999C2.01968 11.999 2.03527 11.999 2.05089 11.999C2.06651 11.999 2.08216 11.999 2.09784 11.999C2.11352 11.999 2.12923 11.999 2.14497 11.999C2.1607 11.999 2.17647 11.999 2.19227 11.999C2.20806 11.999 2.22389 11.999 2.23974 11.999C2.2556 11.999 2.27148 11.999 2.28739 11.999C2.3033 11.999 2.31924 11.999 2.33521 11.999C2.35118 11.999 2.36718 11.999 2.38321 11.999C2.39923 11.999 2.41529 11.999 2.43137 11.999C2.44745 11.999 2.46356 11.999 2.4797 11.999C2.49584 11.999 2.512 11.999 2.5282 11.999C2.54439 11.999 2.56062 11.999 2.57687 11.999C2.59312 11.999 2.6094 11.999 2.6257 11.999C2.64201 11.999 2.65834 11.999 2.6747 11.999C2.69106 11.999 2.70745 11.999 2.72386 11.999C2.74028 11.999 2.75672 11.999 2.77319 11.999C2.78966 11.999 2.80615 11.999 2.82268 11.999C2.8392 11.999 2.85575 11.999 2.87233 11.999C2.8889 11.999 2.90551 11.999 2.92214 11.999C2.93877 11.999 2.95542 11.999 2.97211 11.999C2.98879 11.999 3.0055 11.999 3.02223 11.999C3.03897 11.999 3.05573 11.999 3.07252 11.999C3.08931 11.999 3.10612 11.999 3.12296 11.999C3.1398 11.999 3.15666 11.999 3.17355 11.999C3.19044 11.999 3.20736 11.999 3.2243 11.999C3.24125 11.999 3.25821 11.999 3.27521 11.999C3.2922 11.999 3.30922 11.999 3.32626 11.999C3.34331 11.999 3.36037 11.999 3.37747 11.999C3.39456 11.999 3.41168 11.999 3.42883 11.999C3.44597 11.999 3.46314 11.999 3.48033 11.999C3.49752 11.999 3.51474 11.999 3.53198 11.999C3.54923 11.999 3.56649 11.999 3.58378 11.999C3.60108 11.999 3.61839 11.999 3.63573 11.999C3.65307 11.999 3.67043 11.999 3.68782 11.999C3.70521 11.999 3.72262 11.999 3.74006 11.999C3.7575 11.999 3.77496 11.999 3.79244 11.999C3.80992 11.999 3.82743 11.999 3.84496 11.999C3.86249 11.999 3.88004 11.999 3.89762 11.999C3.9152 11.999 3.9328 11.999 3.95042 11.999C3.96805 11.999 3.98569 11.999 4.00336 11.999C4.02103 11.999 4.03873 11.999 4.05644 11.999C4.07416 11.999 4.0919 11.999 4.10966 11.999C4.12742 11.999 4.1452 11.999 4.16301 11.999C4.18082 11.999 4.19865 11.999 4.2165 11.999C4.23435 11.999 4.25222 11.999 4.27012 11.999C4.28802 11.999 4.30593 11.999 4.32387 11.999C4.34181 11.999 4.35978 11.999 4.37776 11.999C4.39574 11.999 4.41375 11.999 4.43178 11.999C4.4498 11.999 4.46785 11.999 4.48592 11.999C4.50399 11.999 4.52209 11.999 4.5402 11.999C4.55831 11.999 4.57645 11.999 4.5946 11.999C4.61276 11.999 4.63094 11.999 4.64914 11.999C4.66733 11.999 4.68555 11.999 4.70379 11.999C4.72203 11.999 4.74029 11.999 4.75857 11.999C4.77685 11.999 4.79516 11.999 4.81348 11.999C4.8318 11.999 4.85014 11.999 4.86851 11.999C4.88687 11.999 4.90525 11.999 4.92366 11.999C4.94206 11.999 4.96049 11.999 4.97893 11.999C4.99737 11.999 5.01584 11.999 5.03432 11.999C5.0528 11.999 5.07131 11.999 5.08983 11.999C5.10835 11.999 5.12689 11.999 5.14546 11.999C5.16402 11.999 5.1826 11.999 5.2012 11.999C5.2198 11.999 5.23842 11.999 5.25706 11.999C5.2757 11.999 5.29436 11.999 5.31304 11.999C5.33171 11.999 5.35041 11.999 5.36913 11.999C5.38784 11.999 5.40658 11.999 5.42533 11.999C5.44408 11.999 5.46285 11.999 5.48164 11.999C5.50043 11.999 5.51924 11.999 5.53807 11.999C5.55689 11.999 5.57574 11.999 5.5946 11.999C5.61346 11.999 5.63235 11.999 5.65124 11.999C5.67014 11.999 5.68906 11.999 5.70799 11.999C5.72693 11.999 5.74588 11.999 5.76485 11.999C5.78382 11.999 5.80281 11.999 5.82182 11.999C5.84082 11.999 5.85984 11.999 5.87888 11.999C5.89792 11.999 5.91698 11.999 5.93606 11.999C5.95513 11.999 5.97422 11.999 5.99333 11.999C6.01244 11.999 6.03156 11.999 6.05071 11.999C6.06985 11.999 6.08901 11.999 6.10818 11.999C6.12736 11.999 6.14655 11.999 6.16576 11.999C6.18497 11.999 6.20419 11.999 6.22344 11.999C6.24268 11.999 6.26193 11.999 6.28121 11.999C6.30048 11.999 6.31977 11.999 6.33908 11.999C6.35839 11.999 6.37771 11.999 6.39704 11.999C6.41638 11.999 6.43574 11.999 6.4551 11.999C6.47447 11.999 6.49386 11.999 6.51326 11.999C6.53266 11.999 6.55207 11.999 6.5715 11.999C6.59093 11.999 6.61038 11.999 6.62984 11.999C6.6493 11.999 6.66878 11.999 6.68827 11.999C6.70776 11.999 6.72727 11.999 6.74679 11.999C6.76631 11.999 6.78585 11.999 6.8054 11.999C6.82495 11.999 6.84451 11.999 6.86409 11.999C6.88367 11.999 6.90326 11.999 6.92287 11.999C6.94248 11.999 6.9621 11.999 6.98174 11.999C7.00138 11.999 7.02103 11.999 7.04069 11.999C7.06035 11.999 7.08003 11.999 7.09973 11.999C7.11942 11.999 7.13912 11.999 7.15884 11.999C7.17856 11.999 7.1983 11.999 7.21804 11.999C7.23779 11.999 7.25755 11.999 7.27732 11.999C7.29709 11.999 7.31688 11.999 7.33668 11.999C7.35648 11.999 7.37629 11.999 7.39612 11.999C7.41595 11.999 7.43578 11.999 7.45563 11.999C7.47548 11.999 7.49535 11.999 7.51523 11.999C7.5351 11.999 7.55499 11.999 7.57489 11.999C7.5948 11.999 7.61471 11.999 7.63464 11.999C7.65456 11.999 7.6745 11.999 7.69445 11.999C7.7144 11.999 7.73436 11.999 7.75434 11.999C7.77431 11.999 7.7943 11.999 7.8143 11.999C7.8343 11.999 7.85431 11.999 7.87433 11.999C7.89435 11.999 7.91438 11.999 7.93443 11.999C7.95447 11.999 7.97453 11.999 7.99459 11.999C8.01466 11.999 8.03474 11.999 8.05483 11.999C8.07492 11.999 8.09502 11.999 8.11513 11.999C8.13524 11.999 8.15536 11.999 8.1755 11.999C8.19563 11.999 8.21577 11.999 8.23593 11.999C8.25608 11.999 8.27625 11.999 8.29642 11.999C8.3166 11.999 8.33679 11.999 8.35698 11.999C8.37718 11.999 8.39738 11.999 8.4176 11.999C8.43782 11.999 8.45804 11.999 8.47828 11.999C8.49852 11.999 8.51876 11.999 8.53902 11.999C8.55927 11.999 8.57954 11.999 8.59982 11.999C8.62009 11.999 8.64038 11.999 8.66067 11.999C8.68096 11.999 8.70127 11.999 8.72158 11.999C8.74189 11.999 8.76221 11.999 8.78255 11.999C8.80288 11.999 8.82322 11.999 8.84356 11.999C8.86391 11.999 8.88427 11.999 8.90464 11.999C8.92501 11.999 8.94538 11.999 8.96576 11.999C8.98615 11.999 9.00654 11.999 9.02694 11.999C9.04734 11.999 9.06775 11.999 9.08817 11.999C9.10859 11.999 9.12901 11.999 9.14945 11.999C9.16988 11.999 9.19032 11.999 9.21077 11.999C9.23122 11.999 9.25168 11.999 9.27214 11.999C9.29261 11.999 9.31308 11.999 9.33356 11.999C9.35404 11.999 9.37453 11.999 9.39503 11.999C9.41552 11.999 9.43603 11.999 9.45654 11.999C9.47705 11.999 9.49756 11.999 9.51809 11.999C9.53861 11.999 9.55914 11.999 9.57968 11.999C9.60022 11.999 9.62076 11.999 9.64132 11.999C9.66187 11.999 9.68243 11.999 9.70299 11.999C9.72356 11.999 9.74413 11.999 9.76471 11.999C9.78528 11.999 9.80587 11.999 9.82646 11.999C9.84705 11.999 9.86765 11.999 9.88825 11.999C9.90885 11.999 9.92946 11.999 9.95008 11.999C9.97069 11.999 9.99131 11.999 10.0119 11.999C10.0326 11.999 10.0532 11.999 10.0738 11.999C10.0945 11.999 10.1151 11.999 10.1358 11.999C10.1564 11.999 10.1771 11.999 10.1977 11.999C10.2184 11.999 10.239 11.999 10.2597 11.999C10.2804 11.999 10.3011 11.999 10.3217 11.999C10.3424 11.999 10.3631 11.999 10.3838 11.999C10.4045 11.999 10.4252 11.999 10.4459 11.999C10.4666 11.999 10.4873 11.999 10.508 11.999C10.5287 11.999 10.5494 11.999 10.5701 11.999C10.5908 11.999 10.6115 11.999 10.6323 11.999C10.653 11.999 10.6737 11.999 10.6944 11.999C10.7152 11.999 10.7359 11.999 10.7566 11.999C10.7774 11.999 10.7981 11.999 10.8189 11.999C10.8396 11.999 10.8604 11.999 10.8811 11.999C10.9019 11.999 10.9226 11.999 10.9434 11.999C10.9642 11.999 10.9849 11.999 11.0057 11.999C11.0264 11.999 11.0472 11.999 11.068 11.999C11.0888 11.999 11.1095 11.999 11.1303 11.999C11.1511 11.999 11.1719 11.999 11.1926 11.999C11.2134 11.999 11.2342 11.999 11.255 11.999C11.2758 11.999 11.2966 11.999 11.3174 11.999C11.3382 11.999 11.359 11.999 11.3797 11.999C11.4005 11.999 11.4213 11.999 11.4421 11.999C11.4629 11.999 11.4837 11.999 11.5045 11.999C11.5253 11.999 11.5462 11.999 11.567 11.999C11.5878 11.999 11.6086 11.999 11.6294 11.999C11.6502 11.999 11.671 11.999 11.6918 11.999C11.7126 11.999 11.7334 11.999 11.7542 11.999C11.7751 11.999 11.7959 11.999 11.8167 11.999C11.8375 11.999 11.8583 11.999 11.8791 11.999C11.9 11.999 11.9208 11.999 11.9416 11.999C11.9624 11.999 11.9832 11.999 12.004 11.999C12.0249 11.999 12.0457 11.999 12.0665 11.999C12.0873 11.999 12.1081 11.999 12.129 11.999C12.1498 11.999 12.1706 11.999 12.1914 11.999C12.2122 11.999 12.2331 11.999 12.2539 11.999C12.2747 11.999 12.2955 11.999 12.3163 11.999C12.3372 11.999 12.358 11.999 12.3788 11.999C12.3996 11.999 12.4204 11.999 12.4412 11.999C12.462 11.999 12.4829 11.999 12.5037 11.999C12.5245 11.999 12.5453 11.999 12.5661 11.999C12.5869 11.999 12.6077 11.999 12.6285 11.999C12.6493 11.999 12.6702 11.999 12.691 11.999C12.7118 11.999 12.7326 11.999 12.7534 11.999C12.7742 11.999 12.795 11.999 12.8158 11.999C12.8366 11.999 12.8574 11.999 12.8782 11.999C12.899 11.999 12.9198 11.999 12.9405 11.999C12.9613 11.999 12.9821 11.999 13.0029 11.999C13.0237 11.999 13.0445 11.999 13.0653 11.999C13.086 11.999 13.1068 11.999 13.1276 11.999C13.1484 11.999 13.1691 11.999 13.1899 11.999C13.2107 11.999 13.2315 11.999 13.2522 11.999C13.273 11.999 13.2937 11.999 13.3145 11.999C13.3353 11.999 13.356 11.999 13.3768 11.999C13.3975 11.999 13.4183 11.999 13.439 11.999C13.4598 11.999 13.4805 11.999 13.5012 11.999C13.522 11.999 13.5427 11.999 13.5634 11.999C13.5842 11.999 13.6049 11.999 13.6256 11.999C13.6463 11.999 13.6671 11.999 13.6878 11.999C13.7085 11.999 13.7292 11.999 13.7499 11.999C13.7706 11.999 13.7913 11.999 13.812 11.999C13.8327 11.999 13.8534 11.999 13.8741 11.999C13.8948 11.999 13.9154 11.999 13.9361 11.999C13.9568 11.999 13.9775 11.999 13.9981 11.999C14.0188 11.999 14.0395 11.999 14.0601 11.999C14.0808 11.999 14.1014 11.999 14.1221 11.999C14.1427 11.999 14.1634 11.999 14.184 11.999C14.2046 11.999 14.2253 11.999 14.2459 11.999C14.2665 11.999 14.2871 11.999 14.3077 11.999C14.3284 11.999 14.349 11.999 14.3696 11.999C14.3902 11.999 14.4108 11.999 14.4313 11.999C14.4519 11.999 14.4725 11.999 14.4931 11.999C14.5137 11.999 14.5342 11.999 14.5548 11.999C14.5754 11.999 14.5959 11.999 14.6165 11.999C14.637 11.999 14.6576 11.999 14.6781 11.999C14.6986 11.999 14.7192 11.999 14.7397 11.999C14.7602 11.999 14.7807 11.999 14.8012 11.999C14.8217 11.999 14.8422 11.999 14.8627 11.999C14.8832 11.999 14.9037 11.999 14.9242 11.999C14.9447 11.999 14.9651 11.999 14.9856 11.999C15.0061 11.999 15.0265 11.999 15.047 11.999C15.0674 11.999 15.0878 11.999 15.1083 11.999C15.1287 11.999 15.1491 11.999 15.1695 11.999C15.19 11.999 15.2104 11.999 15.2308 11.999C15.2512 11.999 15.2715 11.999 15.2919 11.999C15.3123 11.999 15.3327 11.999 15.353 11.999C15.3734 11.999 15.3938 11.999 15.4141 11.999C15.4345 11.999 15.4548 11.999 15.4751 11.999C15.4954 11.999 15.5158 11.999 15.5361 11.999C15.5564 11.999 15.5767 11.999 15.597 11.999C15.6173 11.999 15.6375 11.999 15.6578 11.999C15.6781 11.999 15.6984 11.999 15.7186 11.999C15.7389 11.999 15.7591 11.999 15.7793 11.999C15.7996 11.999 15.8198 11.999 15.84 11.999C15.8602 11.999 15.8804 11.999 15.9006 11.999C15.9208 11.999 15.941 11.999 15.9612 11.999C15.9813 11.999 16.0015 11.999 16.0216 11.999C16.0418 11.999 16.0619 11.999 16.0821 11.999C16.1022 11.999 16.1223 11.999 16.1424 11.999C16.1625 11.999 16.1826 11.999 16.2027 11.999C16.2228 11.999 16.2429 11.999 16.2629 11.999C16.283 11.999 16.303 11.999 16.3231 11.999C16.3431 11.999 16.3632 11.999 16.3832 11.999C16.4032 11.999 16.4232 11.999 16.4432 11.999C16.4632 11.999 16.4832 11.999 16.5031 11.999C16.5231 11.999 16.5431 11.999 16.563 11.999C16.583 11.999 16.6029 11.999 16.6228 11.999C16.6427 11.999 16.6626 11.999 16.6825 11.999C16.7024 11.999 16.7223 11.999 16.7422 11.999C16.7621 11.999 16.7819 11.999 16.8018 11.999C16.8216 11.999 16.8415 11.999 16.8613 11.999C16.8811 11.999 16.9009 11.999 16.9207 11.999C16.9405 11.999 16.9603 11.999 16.98 11.999C16.9998 11.999 17.0196 11.999 17.0393 11.999C17.0591 11.999 17.0788 11.999 17.0985 11.999C17.1182 11.999 17.1379 11.999 17.1576 11.999C17.1773 11.999 17.197 11.999 17.2166 11.999C17.2363 11.999 17.2559 11.999 17.2756 11.999C17.2952 11.999 17.3148 11.999 17.3344 11.999C17.354 11.999 17.3736 11.999 17.3932 11.999C17.4127 11.999 17.4323 11.999 17.4519 11.999C17.4714 11.999 17.4909 11.999 17.5104 11.999C17.53 11.999 17.5495 11.999 17.5689 11.999C17.5884 11.999 17.6079 11.999 17.6274 11.999C17.6468 11.999 17.6663 11.999 17.6857 11.999C17.7051 11.999 17.7245 11.999 17.7439 11.999C17.7633 11.999 17.7827 11.999 17.802 11.999C17.8214 11.999 17.8408 11.999 17.8601 11.999C17.8794 11.999 17.8987 11.999 17.918 11.999C17.9373 11.999 17.9566 11.999 17.9759 11.999C17.9952 11.999 18.0144 11.999 18.0336 11.999C18.0529 11.999 18.0721 11.999 18.0913 11.999C18.1105 11.999 18.1297 11.999 18.1489 11.999C18.168 11.999 18.1872 11.999 18.2063 11.999C18.2255 11.999 18.2446 11.999 18.2637 11.999C18.2828 11.999 18.3019 11.999 18.3209 11.999C18.34 11.999 18.3591 11.999 18.3781 11.999C18.3971 11.999 18.4161 11.999 18.4351 11.999C18.4541 11.999 18.4731 11.999 18.4921 11.999C18.5111 11.999 18.53 11.999 18.5489 11.999C18.5679 11.999 18.5868 11.999 18.6057 11.999C18.6246 11.999 18.6434 11.999 18.6623 11.999C18.6811 11.999 18.7 11.999 18.7188 11.999C18.7376 11.999 18.7564 11.999 18.7752 11.999C18.794 11.999 18.8128 11.999 18.8315 11.999C18.8502 11.999 18.869 11.999 18.8877 11.999C18.9064 11.999 18.9251 11.999 18.9437 11.999C18.9624 11.999 18.9811 11.999 18.9997 11.999C19.0183 11.999 19.0369 11.999 19.0555 11.999C19.0741 11.999 19.0927 11.999 19.1113 11.999C19.1298 11.999 19.1484 11.999 19.1669 11.999C19.1854 11.999 19.2039 11.999 19.2224 11.999C19.2408 11.999 19.2593 11.999 19.2777 11.999C19.2962 11.999 19.3146 11.999 19.333 11.999C19.3514 11.999 19.3698 11.999 19.3881 11.999C19.4065 11.999 19.4248 11.999 19.4431 11.999C19.4614 11.999 19.4797 11.999 19.498 11.999C19.5163 11.999 19.5345 11.999 19.5528 11.999C19.571 11.999 19.5892 11.999 19.6074 11.999C19.6256 11.999 19.6438 11.999 19.6619 11.999C19.6801 11.999 19.6982 11.999 19.7163 11.999C19.7344 11.999 19.7525 11.999 19.7705 11.999C19.7886 11.999 19.8066 11.999 19.8247 11.999C19.8427 11.999 19.8607 11.999 19.8787 11.999C19.8966 11.999 19.9146 11.999 19.9325 11.999C19.9505 11.999 19.9684 11.999 19.9862 11.999C20.0041 11.999 20.022 11.999 20.0398 11.999C20.0577 11.999 20.0755 11.999 20.0933 11.999C20.1111 11.999 20.1289 11.999 20.1466 11.999C20.1644 11.999 20.1821 11.999 20.1998 11.999C20.2175 11.999 20.2352 11.999 20.2529 11.999C20.2705 11.999 20.2882 11.999 20.3058 11.999C20.3234 11.999 20.341 11.999 20.3586 11.999C20.3761 11.999 20.3937 11.999 20.4112 11.999C20.4287 11.999 20.4462 11.999 20.4637 11.999C20.4812 11.999 20.4986 11.999 20.5161 11.999C20.5335 11.999 20.5509 11.999 20.5683 11.999C20.5857 11.999 20.603 11.999 20.6203 11.999C20.6377 11.999 20.655 11.999 20.6723 11.999C20.6895 11.999 20.7068 11.999 20.724 11.999C20.7413 11.999 20.7585 11.999 20.7757 11.999C20.7928 11.999 20.81 11.999 20.8271 11.999C20.8443 11.999 20.8614 11.999 20.8785 11.999C20.8956 11.999 20.9126 11.999 20.9297 11.999C20.9467 11.999 20.9637 11.999 20.9807 11.999C20.9977 11.999 21.0146 11.999 21.0316 11.999C21.0485 11.999 21.0654 11.999 21.0823 11.999C21.0992 11.999 21.116 11.999 21.1328 11.999C21.1497 11.999 21.1665 11.999 21.1833 11.999C21.2 11.999 21.2168 11.999 21.2335 11.999C21.2502 11.999 21.2669 11.999 21.2836 11.999C21.3003 11.999 21.3169 11.999 21.3336 11.999C21.3502 11.999 21.3668 11.999 21.3833 11.999C21.3999 11.999 21.4164 11.999 21.433 11.999C21.4495 11.999 21.466 11.999 21.4824 11.999C21.4989 11.999 21.5153 11.999 21.5317 11.999C21.5481 11.999 21.5645 11.999 21.5809 11.999C21.5972 11.999 21.6135 11.999 21.6298 11.999C21.6461 11.999 21.6624 11.999 21.6786 11.999C21.6949 11.999 21.7111 11.999 21.7273 11.999C21.7434 11.999 21.7596 11.999 21.7757 11.999C21.7919 11.999 21.808 11.999 21.824 11.999C21.8401 11.999 21.8562 11.999 21.8722 11.999C21.8882 11.999 21.9042 11.999 21.9201 11.999C21.9361 11.999 21.952 11.999 21.9679 11.999C21.9838 11.999 21.9997 11.999 22.0155 11.999C22.0314 11.999 22.0472 11.999 22.063 11.999C22.0788 11.999 22.0945 11.999 22.1103 11.999C22.126 11.999 22.1417 11.999 22.1573 11.999C22.173 11.999 22.1887 11.999 22.2043 11.999C22.2199 11.999 22.2355 11.999 22.251 11.999C22.2666 11.999 22.2821 11.999 22.2976 11.999C22.3131 11.999 22.3285 11.999 22.344 11.999C22.3594 11.999 22.3748 11.999 22.3902 11.999C22.4055 11.999 22.4209 11.999 22.4362 11.999C22.4515 11.999 22.4668 11.999 22.482 11.999C22.4973 11.999 22.5125 11.999 22.5277 11.999C22.5429 11.999 22.558 11.999 22.5731 11.999C22.5883 11.999 22.6034 11.999 22.6184 11.999C22.6335 11.999 22.6485 11.999 22.6635 11.999C22.6785 11.999 22.6935 11.999 22.7084 11.999C22.7234 11.999 22.7383 11.999 22.7532 11.999C22.768 11.999 22.7829 11.999 22.7977 11.999C22.8125 11.999 22.8273 11.999 22.842 11.999C22.8568 11.999 22.8715 11.999 22.8862 11.999C22.9009 11.999 22.9155 11.999 22.9301 11.999C22.9448 11.999 22.9593 11.999 22.9739 11.999C22.9884 11.999 23.003 11.999 23.0175 11.999C23.032 11.999 23.0464 11.999 23.0608 11.999C23.0753 11.999 23.0897 11.999 23.104 11.999C23.1184 11.999 23.1327 11.999 23.147 11.999C23.1613 11.999 23.1755 11.999 23.1898 11.999C23.204 11.999 23.2182 11.999 23.2324 11.999C23.2465 11.999 23.2606 11.999 23.2747 11.999C23.2888 11.999 23.3029 11.999 23.3169 11.999C23.3309 11.999 23.3449 11.999 23.3589 11.999C23.3728 11.999 23.3868 11.999 23.4007 11.999C23.4145 11.999 23.4284 11.999 23.4422 11.999C23.456 11.999 23.4698 11.999 23.4836 11.999C23.4973 11.999 23.5111 11.999 23.5247 11.999C23.5384 11.999 23.5521 11.999 23.5657 11.999C23.5793 11.999 23.5929 11.999 23.6064 11.999C23.62 11.999 23.6335 11.999 23.647 11.999C23.6604 11.999 23.6739 11.999 23.6873 11.999C23.7007 11.999 23.714 11.999 23.7274 11.999C23.7407 11.999 23.754 11.999 23.7673 11.999C23.7805 11.999 23.7938 11.999 23.8069 11.999C23.8201 11.999 23.8333 11.999 23.8464 11.999C23.8595 11.999 23.8726 11.999 23.8857 11.999C23.8987 11.999 23.9117 11.999 23.9247 11.999C23.9377 11.999 23.9506 11.999 23.9635 11.999C23.9764 11.999 23.9893 11.999 24.0021 11.999C24.0149 11.999 24.0277 11.999 24.0405 11.999C24.0532 11.999 24.0659 11.999 24.0786 11.999C24.0913 11.999 24.104 11.999 24.1166 11.999C24.1292 11.999 24.1417 11.999 24.1543 11.999C24.1668 11.999 24.1793 11.999 24.1918 11.999C24.2042 11.999 24.2166 11.999 24.229 11.999C24.2414 11.999 24.2537 11.999 24.2661 11.999C24.2784 11.999 24.2906 11.999 24.3029 11.999C24.3151 11.999 24.3273 11.999 24.3394 11.999C24.3516 11.999 24.3637 11.999 24.3758 11.999C24.3879 11.999 24.3999 11.999 24.4119 11.999C24.4239 11.999 24.4359 11.999 24.4478 11.999C24.4597 11.999 24.4716 11.999 24.4835 11.999C24.4953 11.999 24.5071 11.999 24.5189 11.999C24.5307 11.999 24.5424 11.999 24.5541 11.999C24.5658 11.999 24.5774 11.999 24.589 11.999C24.6006 11.999 24.6122 11.999 24.6238 11.999C24.6353 11.999 24.6468 11.999 24.6582 11.999C24.6697 11.999 24.6811 11.999 24.6925 11.999C24.7039 11.999 24.7152 11.999 24.7265 11.999C24.7378 11.999 24.749 11.999 24.7603 11.999C24.7715 11.999 24.7826 11.999 24.7938 11.999C24.8049 11.999 24.816 11.999 24.8271 11.999C24.8381 11.999 24.8491 11.999 24.8601 11.999C24.8711 11.999 24.882 11.999 24.8929 11.999C24.9038 11.999 24.9146 11.999 24.9255 11.999C24.9363 11.999 24.947 11.999 24.9578 11.999C24.9685 11.999 24.9792 11.999 24.9898 11.999C25.0005 11.999 25.0111 11.999 25.0216 11.999C25.0322 11.999 25.0427 11.999 25.0532 11.999C25.0637 11.999 25.0741 11.999 25.0845 11.999C25.0949 11.999 25.1052 11.999 25.1156 11.999C25.1259 11.999 25.1361 11.999 25.1464 11.999C25.1566 11.999 25.1668 11.999 25.1769 11.999C25.1871 11.999 25.1972 11.999 25.2072 11.999C25.2173 11.999 25.2273 11.999 25.2373 11.999C25.2472 11.999 25.2572 11.999 25.2671 11.999C25.2769 11.999 25.2868 11.999 25.2966 11.999C25.3064 11.999 25.3161 11.999 25.3259 11.999C25.3356 11.999 25.3452 11.999 25.3549 11.999C25.3645 11.999 25.3741 11.999 25.3836 11.999C25.3932 11.999 25.4027 11.999 25.4121 11.999C25.4216 11.999 25.431 11.999 25.4404 11.999C25.4497 11.999 25.459 11.999 25.4683 11.999C25.4776 11.999 25.4868 11.999 25.496 11.999C25.5052 11.999 25.5144 11.999 25.5235 11.999C25.5326 11.999 25.5416 11.999 25.5506 11.999C25.5596 11.999 25.5686 11.999 25.5775 11.999C25.5865 11.999 25.5953 11.999 25.6042 11.999C25.613 11.999 25.6218 11.999 25.6305 11.999C25.6393 11.999 25.648 11.999 25.6566 11.999C25.6653 11.999 25.6739 11.999 25.6825 11.999C25.691 11.999 25.6995 11.999 25.708 11.999C25.7165 11.999 25.7249 11.999 25.7333 11.999C25.7417 11.999 25.75 11.999 25.7583 11.999C25.7666 11.999 25.7748 11.999 25.783 11.999C25.7912 11.999 25.7994 11.999 25.8075 11.999C25.8156 11.999 25.8237 11.999 25.8317 11.999C25.8397 11.999 25.8477 11.999 25.8556 11.999C25.8635 11.999 25.8714 11.999 25.8792 11.999C25.887 11.999 25.8948 11.999 25.9025 11.999C25.9103 11.999 25.9179 11.999 25.9256 11.999C25.9332 11.999 25.9408 11.999 25.9484 11.999C25.9559 11.999 25.9634 11.999 25.9709 11.999C25.9783 11.999 25.9857 11.999 25.9931 11.999C26.0004 11.999 26.0077 11.999 26.015 11.999C26.0222 11.999 26.0295 11.999 26.0366 11.999C26.0438 11.999 26.0509 11.999 26.058 11.999C26.065 11.999 26.0721 11.999 26.079 11.999C26.086 11.999 26.0929 11.999 26.0998 11.999C26.1067 11.999 26.1135 11.999 26.1203 11.999C26.1271 11.999 26.1338 11.999 26.1405 11.999C26.1472 11.999 26.1538 11.999 26.1604 11.999C26.167 11.999 26.1735 11.999 26.18 11.999C26.1865 11.999 26.1929 11.999 26.1993 11.999C26.2057 11.999 26.212 11.999 26.2183 11.999C26.2246 11.999 26.2308 11.999 26.237 11.999C26.2432 11.999 26.2493 11.999 26.2554 11.999C26.2615 11.999 26.2676 11.999 26.2736 11.999C26.2795 11.999 26.2855 11.999 26.2914 11.999C26.2973 11.999 26.3031 11.999 26.3089 11.999C26.3147 11.999 26.3204 11.999 26.3261 11.999C26.3318 11.999 26.3374 11.999 26.343 11.999C26.3486 11.999 26.3542 11.999 26.3596 11.999C26.3651 11.999 26.3706 11.999 26.376 11.999C26.3813 11.999 26.3867 11.999 26.392 11.999C26.3972 11.999 26.4025 11.999 26.4077 11.999C26.4128 11.999 26.418 11.999 26.423 11.999C26.4281 11.999 26.4332 11.999 26.4381 11.999C26.4431 11.999 26.448 11.999 26.4529 11.999C26.4578 11.999 26.4626 11.999 26.4674 11.999C26.4721 11.999 26.4768 11.999 26.4815 11.999C26.4862 11.999 26.4908 11.999 26.4953 11.999C26.4999 11.999 26.5044 11.999 26.5089 11.999C26.5133 11.999 26.5177 11.999 26.5221 11.999C26.5264 11.999 26.5307 11.999 26.535 11.999C26.5392 11.999 26.5434 11.999 26.5475 11.999C26.5517 11.999 26.5558 11.999 26.5598 11.999C26.5638 11.999 26.5678 11.999 26.5717 11.999C26.5757 11.999 26.5795 11.999 26.5834 11.999C26.5872 11.999 26.5909 11.999 26.5947 11.999C26.5984 11.999 26.602 11.999 26.6056 11.999C26.6092 11.999 26.6128 11.999 26.6163 11.999C26.6198 11.999 26.6232 11.999 26.6266 11.999C26.63 11.999 26.6334 11.999 26.6366 11.999C26.6399 11.999 26.6431 11.999 26.6463 11.999C26.6495 11.999 26.6526 11.999 26.6557 11.999C26.6587 11.999 26.6617 11.999 26.6647 11.999C26.6677 11.999 26.6705 11.999 26.6734 11.999C26.6762 11.999 26.679 11.999 26.6818 11.999L26.6818 13.999Z" fill="white"/>
</svg>
