<svg width="74" height="72" viewBox="0 0 74 72" fill="none" xmlns="http://www.w3.org/2000/svg">
<path fill-rule="evenodd" clip-rule="evenodd" d="M0 36C0 16.1177 16.5655 0 37 0C57.4345 0 74 16.1177 74 36C74 55.8823 57.4345 72 37 72C16.5655 72 0 55.8823 0 36ZM28.5909 21.8286C29.6316 21.244 30.9138 21.244 31.9545 21.8286L52.1364 33.1657C53.1771 33.7503 53.8182 34.8307 53.8182 36C53.8182 37.1692 53.1771 38.2496 52.1364 38.8342L31.9545 50.1713C30.9138 50.7559 29.6316 50.7559 28.5909 50.1713C27.5502 49.5867 26.9091 48.5063 26.9091 47.337V24.6629C26.9091 23.4937 27.5502 22.4133 28.5909 21.8286Z" fill="#F5F5F5"/>
</svg>
