<svg width="53" height="53" viewBox="0 0 53 53" fill="none" xmlns="http://www.w3.org/2000/svg">
<path fill-rule="evenodd" clip-rule="evenodd" d="M0 26.5C0 41.1355 11.8645 53 26.5 53C41.1355 53 53 41.1355 53 26.5C53 11.8645 41.1355 0 26.5 0C11.8645 0 0 11.8645 0 26.5ZM43.1311 25.4854C43.1276 34.1716 36.0615 41.2394 27.3735 41.2429H27.3669C24.7297 41.242 22.1383 40.5803 19.8367 39.3249L11.4833 41.5162L13.7188 33.3507C12.3399 30.9609 11.6143 28.2502 11.6154 25.4729C11.6189 16.7847 18.6878 9.71619 27.3733 9.71619C31.5887 9.71801 35.5451 11.359 38.5202 14.3376C41.4952 17.316 43.1328 21.275 43.1311 25.4854Z" fill="#F3F3F3"/>
<path fill-rule="evenodd" clip-rule="evenodd" d="M15.2667 37.7728L20.2237 36.4724L20.702 36.7563C22.7129 37.9496 25.018 38.581 27.3681 38.5819H27.3735C34.5922 38.5819 40.4676 32.7064 40.4705 25.4847C40.4718 21.985 39.1108 18.6945 36.6381 16.2188C34.1653 13.7432 30.8769 12.3791 27.3786 12.3779C20.1542 12.3779 14.2788 18.2528 14.2759 25.474C14.2749 27.9488 14.9674 30.3589 16.2784 32.4442L16.5898 32.9397L15.2667 37.7728ZM34.7729 28.8785C35.0475 29.0112 35.2329 29.1008 35.3121 29.233C35.4105 29.3972 35.4105 30.1855 35.0826 31.1054C34.7544 32.025 33.1814 32.8645 32.4249 32.9775C31.7466 33.0789 30.8881 33.1212 29.945 32.8214C29.3731 32.64 28.6398 32.3977 27.7004 31.992C24.0092 30.3982 21.5147 26.8207 21.0433 26.1445C21.0103 26.0972 20.9872 26.064 20.9743 26.0468L20.9711 26.0426C20.7627 25.7646 19.3666 23.9018 19.3666 21.9738C19.3666 20.1602 20.2575 19.2096 20.6675 18.772C20.6956 18.742 20.7215 18.7145 20.7446 18.6892C21.1055 18.295 21.5321 18.1964 21.7946 18.1964C22.057 18.1964 22.3198 18.1989 22.5492 18.2104C22.5775 18.2118 22.6069 18.2116 22.6374 18.2115C22.8668 18.2101 23.1529 18.2084 23.4351 18.8863C23.5436 19.1471 23.7025 19.5339 23.87 19.9418C24.2088 20.7666 24.5831 21.6779 24.649 21.8098C24.7475 22.0069 24.8131 22.2367 24.6818 22.4996C24.6621 22.539 24.6439 22.5762 24.6265 22.6118C24.5279 22.813 24.4554 22.961 24.2881 23.1564C24.2223 23.2332 24.1543 23.316 24.0863 23.3988C23.9509 23.5638 23.8154 23.7287 23.6975 23.8462C23.5004 24.0425 23.2952 24.2556 23.5249 24.6497C23.7545 25.0439 24.5447 26.3332 25.7152 27.3773C26.9735 28.4996 28.067 28.9739 28.6213 29.2144C28.7296 29.2613 28.8172 29.2993 28.8816 29.3315C29.2752 29.5287 29.5048 29.4957 29.7345 29.233C29.9642 28.9702 30.7188 28.0833 30.9812 27.6892C31.2437 27.2951 31.5063 27.3608 31.8671 27.4921C32.2281 27.6236 34.1638 28.576 34.5576 28.7731C34.6344 28.8116 34.7063 28.8463 34.7729 28.8785Z" fill="#F3F3F3"/>
</svg>
