<svg width="90" height="90" viewBox="0 0 90 90" fill="none" xmlns="http://www.w3.org/2000/svg">
<circle cx="45" cy="45" r="42" fill="#45342B" fill-opacity="0.82" stroke="#D9D9D9" stroke-width="6"/>
<path d="M39.7232 26.3153C39.9929 26.0456 40.3463 25.8758 40.7253 25.8337C41.6472 25.7312 42.4776 26.3955 42.5801 27.3174L44.3375 43.1346C44.3512 43.2579 44.3512 43.3823 44.3375 43.5056C44.2351 44.4275 43.4047 45.0918 42.4828 44.9894L26.6655 43.2319C26.2864 43.1898 25.933 43.0199 25.6633 42.7503C25.0074 42.0944 25.0074 41.0309 25.6633 40.375L30.318 35.7204L25.2745 30.6769C24.6186 30.021 24.6186 28.9576 25.2745 28.3017L27.6497 25.9265C28.3056 25.2706 29.3691 25.2706 30.025 25.9265L35.0685 30.97L39.7232 26.3153Z" fill="#D9D9D9"/>
<path fill-rule="evenodd" clip-rule="evenodd" d="M48.2165 53.9522L54.3923 47.78C56.098 46.0753 56.5208 43.471 55.4421 41.3147L55.0922 40.6153C54.0134 38.459 54.4363 35.8548 56.1419 34.1501L63.7994 26.497C64.3465 25.9502 65.2336 25.9502 65.7807 26.497C65.8872 26.6034 65.9758 26.7263 66.0432 26.8609L69.1366 33.0442C71.503 37.7744 70.5754 43.4874 66.8337 47.227L50.0247 64.0264C45.9518 68.0969 39.9273 69.5183 34.463 67.6979L27.6975 65.444C26.9634 65.1995 26.5667 64.4065 26.8114 63.6729C26.8802 63.4666 26.9961 63.2793 27.1499 63.1255L34.5789 55.7008C36.2845 53.9961 38.8903 53.5735 41.0478 54.6516L41.7476 55.0014C43.9051 56.0795 46.5109 55.6569 48.2165 53.9522Z" fill="#D9D9D9"/>
</svg>
